<ttFont>
    <TTGlyph name="A" xMin="60" yMin="0" xMax="680" yMax="732">
      <contour>
        <pt x="379" y="611" on="1"/>
        <pt x="377" y="618" on="0"/>
        <pt x="372" y="632" on="0"/>
        <pt x="370" y="639" on="1"/>
        <pt x="344" y="563" on="0"/>
        <pt x="279" y="415" on="0"/>
        <pt x="247" y="340" on="1"/>
        <pt x="494" y="340" on="1"/>
        <pt x="465" y="409" on="0"/>
        <pt x="408" y="543" on="0"/>
      </contour>
      <contour>
        <pt x="680" y="0" on="1"/>
        <pt x="638" y="0" on="1"/>
        <pt x="606" y="75" on="0"/>
        <pt x="543" y="225" on="0"/>
        <pt x="511" y="300" on="1"/>
        <pt x="230" y="300" on="1"/>
        <pt x="198" y="225" on="0"/>
        <pt x="135" y="75" on="0"/>
        <pt x="103" y="0" on="1"/>
        <pt x="60" y="0" on="1"/>
        <pt x="138" y="184" on="0"/>
        <pt x="292" y="548" on="0"/>
        <pt x="370" y="732" on="1"/>
        <pt x="448" y="548" on="0"/>
        <pt x="602" y="184" on="0"/>
      </contour>
    </TTGlyph>
    <TTGlyph name="AE" xMin="60" yMin="0" xMax="704" yMax="700">
      <contour>
        <pt x="362" y="335" on="1"/>
        <pt x="362" y="619" on="1"/>
        <pt x="336" y="547" on="0"/>
        <pt x="274" y="406" on="0"/>
        <pt x="244" y="335" on="1"/>
      </contour>
      <contour>
        <pt x="60" y="0" on="1"/>
        <pt x="135" y="176" on="0"/>
        <pt x="281" y="524" on="0"/>
        <pt x="356" y="700" on="1"/>
        <pt x="690" y="700" on="1"/>
        <pt x="690" y="660" on="1"/>
        <pt x="403" y="660" on="1"/>
        <pt x="403" y="373" on="1"/>
        <pt x="651" y="373" on="1"/>
        <pt x="651" y="333" on="1"/>
        <pt x="403" y="333" on="1"/>
        <pt x="403" y="40" on="1"/>
        <pt x="704" y="40" on="1"/>
        <pt x="704" y="0" on="1"/>
        <pt x="362" y="0" on="1"/>
        <pt x="362" y="295" on="1"/>
        <pt x="227" y="295" on="1"/>
        <pt x="196" y="221" on="0"/>
        <pt x="134" y="74" on="0"/>
        <pt x="102" y="0" on="1"/>
      </contour>
    </TTGlyph>
    <TTGlyph name="Aacute" xMin="60" yMin="0" xMax="680" yMax="883">
      <component glyphName="A" x="0" y="0" flags="0x204"/>
      <component glyphName="acute" x="250" y="271" flags="0x4"/>
    </TTGlyph>
    <TTGlyph name="Acircumflex" xMin="60" yMin="0" xMax="680" yMax="931">
      <component glyphName="A" x="0" y="0" flags="0x204"/>
      <component glyphName="asciicircum" x="139" y="271" flags="0x4"/>
    </TTGlyph>
    <TTGlyph name="Adieresis" xMin="60" yMin="0" xMax="680" yMax="831">
      <component glyphName="A" x="0" y="0" flags="0x204"/>
      <component glyphName="dieresis" x="187" y="290" flags="0x4"/>
    </TTGlyph>
    <TTGlyph name="Agrave" xMin="60" yMin="0" xMax="680" yMax="883">
      <component glyphName="A" x="0" y="0" flags="0x204"/>
      <component glyphName="grave" x="284" y="271" flags="0x4"/>
    </TTGlyph>
    <TTGlyph name="Aring" xMin="60" yMin="0" xMax="680" yMax="908">
      <contour>
        <pt x="329" y="835" on="1"/>
        <pt x="329" y="818" on="0"/>
        <pt x="354" y="793" on="0"/>
        <pt x="371" y="793" on="1"/>
        <pt x="388" y="793" on="0"/>
        <pt x="414" y="818" on="0"/>
        <pt x="414" y="835" on="1"/>
        <pt x="414" y="852" on="0"/>
        <pt x="388" y="878" on="0"/>
        <pt x="371" y="878" on="1"/>
        <pt x="354" y="878" on="0"/>
        <pt x="329" y="852" on="0"/>
      </contour>
      <contour>
        <pt x="298" y="836" on="1"/>
        <pt x="298" y="866" on="0"/>
        <pt x="341" y="908" on="0"/>
        <pt x="371" y="908" on="1"/>
        <pt x="401" y="908" on="0"/>
        <pt x="444" y="866" on="0"/>
        <pt x="444" y="836" on="1"/>
        <pt x="444" y="805" on="0"/>
        <pt x="401" y="763" on="0"/>
        <pt x="371" y="763" on="1"/>
        <pt x="341" y="763" on="0"/>
        <pt x="298" y="805" on="0"/>
      </contour>
      <contour>
        <pt x="379" y="611" on="1"/>
        <pt x="377" y="618" on="0"/>
        <pt x="372" y="632" on="0"/>
        <pt x="370" y="639" on="1"/>
        <pt x="344" y="563" on="0"/>
        <pt x="279" y="415" on="0"/>
        <pt x="247" y="340" on="1"/>
        <pt x="494" y="340" on="1"/>
        <pt x="465" y="409" on="0"/>
        <pt x="408" y="543" on="0"/>
      </contour>
      <contour>
        <pt x="680" y="0" on="1"/>
        <pt x="638" y="0" on="1"/>
        <pt x="606" y="75" on="0"/>
        <pt x="543" y="225" on="0"/>
        <pt x="511" y="300" on="1"/>
        <pt x="230" y="300" on="1"/>
        <pt x="198" y="225" on="0"/>
        <pt x="135" y="75" on="0"/>
        <pt x="103" y="0" on="1"/>
        <pt x="60" y="0" on="1"/>
        <pt x="138" y="184" on="0"/>
        <pt x="292" y="548" on="0"/>
        <pt x="370" y="732" on="1"/>
        <pt x="448" y="548" on="0"/>
        <pt x="602" y="184" on="0"/>
      </contour>
    </TTGlyph>
    <TTGlyph name="Atilde" xMin="60" yMin="0" xMax="680" yMax="839">
      <component glyphName="A" x="0" y="0" flags="0x204"/>
      <component glyphName="asciitilde" x="91" y="294" flags="0x4"/>
    </TTGlyph>
    <TTGlyph name="B" xMin="74" yMin="0" xMax="469" yMax="700">
      <contour>
        <pt x="115" y="660" on="1"/>
        <pt x="115" y="372" on="1"/>
        <pt x="247" y="372" on="1"/>
        <pt x="318" y="372" on="0"/>
        <pt x="402" y="455" on="0"/>
        <pt x="402" y="522" on="1"/>
        <pt x="402" y="559" on="0"/>
        <pt x="379" y="612" on="0"/>
        <pt x="337" y="645" on="0"/>
        <pt x="278" y="660" on="0"/>
        <pt x="243" y="660" on="1"/>
      </contour>
      <contour>
        <pt x="115" y="332" on="1"/>
        <pt x="115" y="40" on="1"/>
        <pt x="248" y="40" on="1"/>
        <pt x="285" y="40" on="0"/>
        <pt x="350" y="58" on="0"/>
        <pt x="399" y="94" on="0"/>
        <pt x="428" y="147" on="0"/>
        <pt x="428" y="183" on="1"/>
        <pt x="428" y="222" on="0"/>
        <pt x="395" y="278" on="0"/>
        <pt x="340" y="315" on="0"/>
        <pt x="269" y="332" on="0"/>
        <pt x="231" y="332" on="1"/>
      </contour>
      <contour>
        <pt x="74" y="0" on="1"/>
        <pt x="74" y="700" on="1"/>
        <pt x="234" y="700" on="1"/>
        <pt x="281" y="700" on="0"/>
        <pt x="358" y="680" on="0"/>
        <pt x="413" y="638" on="0"/>
        <pt x="443" y="571" on="0"/>
        <pt x="443" y="525" on="1"/>
        <pt x="443" y="463" on="0"/>
        <pt x="382" y="369" on="0"/>
        <pt x="319" y="352" on="1"/>
        <pt x="349" y="346" on="0"/>
        <pt x="403" y="318" on="0"/>
        <pt x="444" y="274" on="0"/>
        <pt x="469" y="216" on="0"/>
        <pt x="469" y="180" on="1"/>
        <pt x="469" y="135" on="0"/>
        <pt x="433" y="68" on="0"/>
        <pt x="372" y="23" on="0"/>
        <pt x="294" y="0" on="0"/>
        <pt x="252" y="0" on="1"/>
      </contour>
    </TTGlyph>
    <TTGlyph name="C" xMin="62" yMin="-8" xMax="602" yMax="708">
      <contour>
        <pt x="578" y="76" on="1"/>
        <pt x="601" y="42" on="1"/>
        <pt x="561" y="19" on="0"/>
        <pt x="470" y="-8" on="0"/>
        <pt x="419" y="-8" on="1"/>
        <pt x="345" y="-8" on="0"/>
        <pt x="215" y="48" on="0"/>
        <pt x="118" y="145" on="0"/>
        <pt x="62" y="275" on="0"/>
        <pt x="62" y="349" on="1"/>
        <pt x="62" y="423" on="0"/>
        <pt x="118" y="554" on="0"/>
        <pt x="215" y="651" on="0"/>
        <pt x="345" y="708" on="0"/>
        <pt x="419" y="708" on="1"/>
        <pt x="470" y="708" on="0"/>
        <pt x="561" y="682" on="0"/>
        <pt x="602" y="658" on="1"/>
        <pt x="596" y="650" on="0"/>
        <pt x="585" y="632" on="0"/>
        <pt x="579" y="624" on="1"/>
        <pt x="544" y="645" on="0"/>
        <pt x="463" y="668" on="0"/>
        <pt x="419" y="668" on="1"/>
        <pt x="354" y="668" on="0"/>
        <pt x="239" y="617" on="0"/>
        <pt x="153" y="530" on="0"/>
        <pt x="104" y="414" on="0"/>
        <pt x="104" y="348" on="1"/>
        <pt x="104" y="283" on="0"/>
        <pt x="153" y="168" on="0"/>
        <pt x="239" y="82" on="0"/>
        <pt x="352" y="32" on="0"/>
        <pt x="417" y="32" on="1"/>
        <pt x="462" y="32" on="0"/>
        <pt x="542" y="55" on="0"/>
      </contour>
    </TTGlyph>
    <TTGlyph name="Ccedilla" xMin="62" yMin="-234" xMax="602" yMax="708">
      <contour>
        <pt x="578" y="76" on="1"/>
        <pt x="601" y="42" on="1"/>
        <pt x="562" y="19" on="0"/>
        <pt x="473" y="-7" on="0"/>
        <pt x="425" y="-8" on="1"/>
        <pt x="425" y="-34" on="0"/>
        <pt x="453" y="-53" on="0"/>
        <pt x="466" y="-61" on="1"/>
        <pt x="488" y="-76" on="0"/>
        <pt x="506" y="-115" on="0"/>
        <pt x="506" y="-133" on="1"/>
        <pt x="506" y="-181" on="0"/>
        <pt x="455" y="-234" on="0"/>
        <pt x="414" y="-234" on="1"/>
        <pt x="385" y="-234" on="0"/>
        <pt x="335" y="-202" on="0"/>
        <pt x="324" y="-169" on="1"/>
        <pt x="351" y="-157" on="1"/>
        <pt x="357" y="-176" on="0"/>
        <pt x="388" y="-201" on="0"/>
        <pt x="411" y="-201" on="1"/>
        <pt x="440" y="-201" on="0"/>
        <pt x="473" y="-163" on="0"/>
        <pt x="473" y="-135" on="1"/>
        <pt x="473" y="-110" on="0"/>
        <pt x="449" y="-83" on="0"/>
        <pt x="420" y="-63" on="0"/>
        <pt x="396" y="-42" on="0"/>
        <pt x="396" y="-23" on="1"/>
        <pt x="396" y="-7" on="1"/>
        <pt x="326" y="-3" on="0"/>
        <pt x="204" y="56" on="0"/>
        <pt x="114" y="152" on="0"/>
        <pt x="62" y="278" on="0"/>
        <pt x="62" y="349" on="1"/>
        <pt x="62" y="423" on="0"/>
        <pt x="118" y="554" on="0"/>
        <pt x="215" y="651" on="0"/>
        <pt x="345" y="708" on="0"/>
        <pt x="419" y="708" on="1"/>
        <pt x="470" y="708" on="0"/>
        <pt x="561" y="682" on="0"/>
        <pt x="602" y="658" on="1"/>
        <pt x="596" y="650" on="0"/>
        <pt x="585" y="632" on="0"/>
        <pt x="579" y="624" on="1"/>
        <pt x="544" y="645" on="0"/>
        <pt x="463" y="668" on="0"/>
        <pt x="419" y="668" on="1"/>
        <pt x="354" y="668" on="0"/>
        <pt x="239" y="617" on="0"/>
        <pt x="153" y="530" on="0"/>
        <pt x="104" y="414" on="0"/>
        <pt x="104" y="348" on="1"/>
        <pt x="104" y="283" on="0"/>
        <pt x="153" y="168" on="0"/>
        <pt x="239" y="82" on="0"/>
        <pt x="352" y="32" on="0"/>
        <pt x="417" y="32" on="1"/>
        <pt x="462" y="32" on="0"/>
        <pt x="542" y="55" on="0"/>
      </contour>
    </TTGlyph>
    <TTGlyph name="D" xMin="76" yMin="0" xMax="575" yMax="700">
      <contour>
        <pt x="76" y="700" on="1"/>
        <pt x="223" y="700" on="1"/>
        <pt x="295" y="700" on="0"/>
        <pt x="423" y="651" on="0"/>
        <pt x="519" y="560" on="0"/>
        <pt x="575" y="430" on="0"/>
        <pt x="575" y="350" on="1"/>
        <pt x="575" y="291" on="0"/>
        <pt x="534" y="167" on="0"/>
        <pt x="442" y="65" on="0"/>
        <pt x="295" y="0" on="0"/>
        <pt x="189" y="0" on="1"/>
        <pt x="76" y="0" on="1"/>
      </contour>
      <contour>
        <pt x="117" y="660" on="1"/>
        <pt x="117" y="41" on="1"/>
        <pt x="204" y="41" on="1"/>
        <pt x="287" y="41" on="0"/>
        <pt x="411" y="94" on="0"/>
        <pt x="493" y="180" on="0"/>
        <pt x="534" y="291" on="0"/>
        <pt x="534" y="350" on="1"/>
        <pt x="534" y="421" on="0"/>
        <pt x="485" y="536" on="0"/>
        <pt x="400" y="617" on="0"/>
        <pt x="287" y="660" on="0"/>
        <pt x="223" y="660" on="1"/>
      </contour>
    </TTGlyph>
    <TTGlyph name="E" xMin="85" yMin="0" xMax="514" yMax="700">
      <contour>
        <pt x="85" y="0" on="1"/>
        <pt x="85" y="700" on="1"/>
        <pt x="500" y="700" on="1"/>
        <pt x="500" y="660" on="1"/>
        <pt x="126" y="660" on="1"/>
        <pt x="126" y="373" on="1"/>
        <pt x="461" y="373" on="1"/>
        <pt x="461" y="333" on="1"/>
        <pt x="126" y="333" on="1"/>
        <pt x="126" y="40" on="1"/>
        <pt x="514" y="40" on="1"/>
        <pt x="514" y="0" on="1"/>
      </contour>
    </TTGlyph>
    <TTGlyph name="Eacute" xMin="85" yMin="0" xMax="514" yMax="883">
      <component glyphName="E" x="0" y="0" flags="0x204"/>
      <component glyphName="acute" x="171" y="271" flags="0x4"/>
    </TTGlyph>
    <TTGlyph name="Ecircumflex" xMin="85" yMin="0" xMax="514" yMax="931">
      <component glyphName="E" x="0" y="0" flags="0x204"/>
      <component glyphName="asciicircum" x="68" y="271" flags="0x4"/>
    </TTGlyph>
    <TTGlyph name="Edieresis" xMin="85" yMin="0" xMax="514" yMax="831">
      <component glyphName="E" x="0" y="0" flags="0x204"/>
      <component glyphName="dieresis" x="110" y="290" flags="0x4"/>
    </TTGlyph>
    <TTGlyph name="Egrave" xMin="85" yMin="0" xMax="514" yMax="883">
      <component glyphName="E" x="0" y="0" flags="0x204"/>
      <component glyphName="grave" x="206" y="271" flags="0x4"/>
    </TTGlyph>
    <TTGlyph name="Eth" xMin="22" yMin="0" xMax="586" yMax="700">
      <contour>
        <pt x="117" y="331" on="1"/>
        <pt x="117" y="40" on="1"/>
        <pt x="207" y="40" on="1"/>
        <pt x="279" y="40" on="0"/>
        <pt x="403" y="84" on="0"/>
        <pt x="493" y="165" on="0"/>
        <pt x="545" y="279" on="0"/>
        <pt x="545" y="350" on="1"/>
        <pt x="545" y="422" on="0"/>
        <pt x="495" y="536" on="0"/>
        <pt x="405" y="617" on="0"/>
        <pt x="281" y="660" on="0"/>
        <pt x="207" y="660" on="1"/>
        <pt x="117" y="660" on="1"/>
        <pt x="117" y="372" on="1"/>
        <pt x="324" y="372" on="1"/>
        <pt x="324" y="331" on="1"/>
      </contour>
      <contour>
        <pt x="76" y="372" on="1"/>
        <pt x="76" y="700" on="1"/>
        <pt x="219" y="700" on="1"/>
        <pt x="294" y="700" on="0"/>
        <pt x="427" y="651" on="0"/>
        <pt x="527" y="560" on="0"/>
        <pt x="586" y="430" on="0"/>
        <pt x="586" y="350" on="1"/>
        <pt x="586" y="291" on="0"/>
        <pt x="543" y="167" on="0"/>
        <pt x="447" y="65" on="0"/>
        <pt x="293" y="0" on="0"/>
        <pt x="183" y="0" on="1"/>
        <pt x="76" y="0" on="1"/>
        <pt x="76" y="331" on="1"/>
        <pt x="22" y="331" on="1"/>
        <pt x="22" y="372" on="1"/>
      </contour>
    </TTGlyph>
    <TTGlyph name="F" xMin="85" yMin="0" xMax="500" yMax="700">
      <contour>
        <pt x="85" y="0" on="1"/>
        <pt x="85" y="700" on="1"/>
        <pt x="500" y="700" on="1"/>
        <pt x="500" y="660" on="1"/>
        <pt x="126" y="660" on="1"/>
        <pt x="126" y="373" on="1"/>
        <pt x="461" y="373" on="1"/>
        <pt x="461" y="333" on="1"/>
        <pt x="126" y="333" on="1"/>
        <pt x="126" y="0" on="1"/>
      </contour>
    </TTGlyph>
    <TTGlyph name="G" xMin="62" yMin="-8" xMax="602" yMax="708">
      <contour>
        <pt x="415" y="260" on="1"/>
        <pt x="415" y="300" on="1"/>
        <pt x="547" y="300" on="1"/>
        <pt x="577" y="300" on="0"/>
        <pt x="601" y="278" on="0"/>
        <pt x="601" y="249" on="1"/>
        <pt x="601" y="42" on="1"/>
        <pt x="561" y="19" on="0"/>
        <pt x="470" y="-8" on="0"/>
        <pt x="419" y="-8" on="1"/>
        <pt x="345" y="-8" on="0"/>
        <pt x="215" y="48" on="0"/>
        <pt x="118" y="145" on="0"/>
        <pt x="62" y="275" on="0"/>
        <pt x="62" y="349" on="1"/>
        <pt x="62" y="423" on="0"/>
        <pt x="118" y="554" on="0"/>
        <pt x="215" y="651" on="0"/>
        <pt x="345" y="708" on="0"/>
        <pt x="419" y="708" on="1"/>
        <pt x="470" y="708" on="0"/>
        <pt x="561" y="682" on="0"/>
        <pt x="602" y="658" on="1"/>
        <pt x="596" y="650" on="0"/>
        <pt x="585" y="632" on="0"/>
        <pt x="579" y="624" on="1"/>
        <pt x="544" y="645" on="0"/>
        <pt x="463" y="668" on="0"/>
        <pt x="419" y="668" on="1"/>
        <pt x="354" y="668" on="0"/>
        <pt x="239" y="617" on="0"/>
        <pt x="153" y="530" on="0"/>
        <pt x="104" y="414" on="0"/>
        <pt x="104" y="348" on="1"/>
        <pt x="104" y="283" on="0"/>
        <pt x="153" y="168" on="0"/>
        <pt x="239" y="82" on="0"/>
        <pt x="352" y="32" on="0"/>
        <pt x="417" y="32" on="1"/>
        <pt x="493" y="32" on="0"/>
        <pt x="559" y="66" on="1"/>
        <pt x="559" y="192" on="1"/>
        <pt x="559" y="234" on="1"/>
        <pt x="559" y="246" on="0"/>
        <pt x="549" y="260" on="0"/>
        <pt x="532" y="260" on="1"/>
      </contour>
    </TTGlyph>
    <TTGlyph name="H" xMin="94" yMin="0" xMax="609" yMax="700">
      <contour>
        <pt x="94" y="0" on="1"/>
        <pt x="94" y="700" on="1"/>
        <pt x="135" y="700" on="1"/>
        <pt x="135" y="373" on="1"/>
        <pt x="565" y="373" on="1"/>
        <pt x="565" y="700" on="1"/>
        <pt x="609" y="700" on="1"/>
        <pt x="608" y="524" on="0"/>
        <pt x="607" y="176" on="0"/>
        <pt x="606" y="0" on="1"/>
        <pt x="565" y="0" on="1"/>
        <pt x="565" y="333" on="1"/>
        <pt x="135" y="333" on="1"/>
        <pt x="135" y="0" on="1"/>
      </contour>
    </TTGlyph>
    <TTGlyph name="I" xMin="104" yMin="0" xMax="145" yMax="700">
      <contour>
        <pt x="104" y="700" on="1"/>
        <pt x="145" y="700" on="1"/>
        <pt x="145" y="0" on="1"/>
        <pt x="104" y="0" on="1"/>
      </contour>
    </TTGlyph>
    <TTGlyph name="Iacute" xMin="104" yMin="0" xMax="239" yMax="883">
      <component glyphName="I" x="0" y="0" flags="0x4"/>
      <component glyphName="acute" x="6" y="271" flags="0x4"/>
    </TTGlyph>
    <TTGlyph name="Icircumflex" xMin="5" yMin="0" xMax="245" yMax="931">
      <component glyphName="I" x="0" y="0" flags="0x4"/>
      <component glyphName="asciicircum" x="-107" y="271" flags="0x4"/>
    </TTGlyph>
    <TTGlyph name="Idieresis" xMin="9" yMin="0" xMax="239" yMax="831">
      <component glyphName="I" x="0" y="0" flags="0x4"/>
      <component glyphName="dieresis" x="-60" y="290" flags="0x4"/>
    </TTGlyph>
    <TTGlyph name="Igrave" xMin="7" yMin="0" xMax="145" yMax="883">
      <component glyphName="I" x="0" y="0" flags="0x4"/>
      <component glyphName="grave" x="36" y="271" flags="0x4"/>
    </TTGlyph>
    <TTGlyph name="J" xMin="18" yMin="-143" xMax="225" yMax="700">
      <contour>
        <pt x="18" y="-143" on="1"/>
        <pt x="18" y="-103" on="1"/>
        <pt x="54" y="-101" on="0"/>
        <pt x="114" y="-73" on="0"/>
        <pt x="158" y="-23" on="0"/>
        <pt x="183" y="48" on="0"/>
        <pt x="183" y="93" on="1"/>
        <pt x="183" y="700" on="1"/>
        <pt x="225" y="700" on="1"/>
        <pt x="225" y="90" on="1"/>
        <pt x="225" y="34" on="0"/>
        <pt x="193" y="-51" on="0"/>
        <pt x="137" y="-110" on="0"/>
        <pt x="61" y="-142" on="0"/>
      </contour>
    </TTGlyph>
    <TTGlyph name="K" xMin="67" yMin="0" xMax="556" yMax="700">
      <contour>
        <pt x="556" y="0" on="1"/>
        <pt x="505" y="0" on="1"/>
        <pt x="427" y="99" on="0"/>
        <pt x="273" y="294" on="0"/>
        <pt x="195" y="394" on="1"/>
        <pt x="172" y="373" on="0"/>
        <pt x="130" y="332" on="0"/>
        <pt x="108" y="311" on="1"/>
        <pt x="108" y="0" on="1"/>
        <pt x="67" y="0" on="1"/>
        <pt x="67" y="700" on="1"/>
        <pt x="108" y="700" on="1"/>
        <pt x="108" y="386" on="1"/>
        <pt x="108" y="378" on="0"/>
        <pt x="107" y="364" on="0"/>
        <pt x="106" y="356" on="1"/>
        <pt x="111" y="362" on="0"/>
        <pt x="119" y="372" on="0"/>
        <pt x="124" y="377" on="1"/>
        <pt x="209" y="458" on="0"/>
        <pt x="378" y="619" on="0"/>
        <pt x="463" y="700" on="1"/>
        <pt x="517" y="700" on="1"/>
        <pt x="223" y="421" on="1"/>
        <pt x="308" y="315" on="0"/>
        <pt x="472" y="106" on="0"/>
      </contour>
    </TTGlyph>
    <TTGlyph name="L" xMin="85" yMin="0" xMax="514" yMax="700">
      <contour>
        <pt x="85" y="0" on="1"/>
        <pt x="85" y="700" on="1"/>
        <pt x="126" y="700" on="1"/>
        <pt x="126" y="40" on="1"/>
        <pt x="514" y="40" on="1"/>
        <pt x="514" y="0" on="1"/>
      </contour>
    </TTGlyph>
    <TTGlyph name="M" xMin="100" yMin="0" xMax="832" yMax="732">
      <contour>
        <pt x="100" y="732" on="1"/>
        <pt x="192" y="613" on="0"/>
        <pt x="374" y="376" on="0"/>
        <pt x="466" y="257" on="1"/>
        <pt x="558" y="376" on="0"/>
        <pt x="740" y="613" on="0"/>
        <pt x="832" y="732" on="1"/>
        <pt x="832" y="0" on="1"/>
        <pt x="790" y="0" on="1"/>
        <pt x="790" y="446" on="1"/>
        <pt x="790" y="575" on="1"/>
        <pt x="791" y="585" on="0"/>
        <pt x="792" y="604" on="0"/>
        <pt x="792" y="615" on="1"/>
        <pt x="713" y="505" on="0"/>
        <pt x="548" y="294" on="0"/>
        <pt x="466" y="187" on="1"/>
        <pt x="397" y="277" on="0"/>
        <pt x="263" y="452" on="0"/>
        <pt x="194" y="542" on="1"/>
        <pt x="152" y="596" on="1"/>
        <pt x="149" y="601" on="0"/>
        <pt x="143" y="610" on="0"/>
        <pt x="140" y="615" on="1"/>
        <pt x="140" y="604" on="0"/>
        <pt x="141" y="585" on="0"/>
        <pt x="142" y="575" on="1"/>
        <pt x="142" y="0" on="1"/>
        <pt x="100" y="0" on="1"/>
      </contour>
    </TTGlyph>
    <TTGlyph name="N" xMin="100" yMin="-32" xMax="711" yMax="732">
      <contour>
        <pt x="711" y="700" on="1"/>
        <pt x="711" y="-32" on="1"/>
        <pt x="571" y="129" on="0"/>
        <pt x="297" y="446" on="0"/>
        <pt x="158" y="607" on="1"/>
        <pt x="153" y="614" on="0"/>
        <pt x="144" y="626" on="0"/>
        <pt x="139" y="633" on="1"/>
        <pt x="140" y="625" on="0"/>
        <pt x="141" y="609" on="0"/>
        <pt x="142" y="601" on="1"/>
        <pt x="142" y="0" on="1"/>
        <pt x="100" y="0" on="1"/>
        <pt x="100" y="732" on="1"/>
        <pt x="240" y="569" on="0"/>
        <pt x="514" y="250" on="0"/>
        <pt x="653" y="88" on="1"/>
        <pt x="658" y="81" on="0"/>
        <pt x="667" y="69" on="0"/>
        <pt x="672" y="62" on="1"/>
        <pt x="671" y="70" on="0"/>
        <pt x="670" y="86" on="0"/>
        <pt x="669" y="94" on="1"/>
        <pt x="669" y="700" on="1"/>
      </contour>
    </TTGlyph>
    <TTGlyph name="Ntilde" xMin="100" yMin="-32" xMax="711" yMax="838">
      <component glyphName="N" x="0" y="0" flags="0x204"/>
      <component glyphName="asciitilde" x="135" y="293" flags="0x4"/>
    </TTGlyph>
    <TTGlyph name="O" xMin="62" yMin="-8" xMax="778" yMax="708">
      <contour>
        <pt x="62" y="349" on="1"/>
        <pt x="62" y="423" on="0"/>
        <pt x="118" y="554" on="0"/>
        <pt x="215" y="651" on="0"/>
        <pt x="345" y="708" on="0"/>
        <pt x="419" y="708" on="1"/>
        <pt x="493" y="708" on="0"/>
        <pt x="624" y="651" on="0"/>
        <pt x="721" y="554" on="0"/>
        <pt x="778" y="423" on="0"/>
        <pt x="778" y="349" on="1"/>
        <pt x="778" y="275" on="0"/>
        <pt x="721" y="145" on="0"/>
        <pt x="624" y="48" on="0"/>
        <pt x="493" y="-8" on="0"/>
        <pt x="419" y="-8" on="1"/>
        <pt x="345" y="-8" on="0"/>
        <pt x="215" y="48" on="0"/>
        <pt x="118" y="145" on="0"/>
        <pt x="62" y="275" on="0"/>
      </contour>
      <contour>
        <pt x="104" y="348" on="1"/>
        <pt x="104" y="282" on="0"/>
        <pt x="153" y="167" on="0"/>
        <pt x="239" y="82" on="0"/>
        <pt x="353" y="32" on="0"/>
        <pt x="418" y="32" on="1"/>
        <pt x="483" y="32" on="0"/>
        <pt x="599" y="82" on="0"/>
        <pt x="686" y="168" on="0"/>
        <pt x="736" y="283" on="0"/>
        <pt x="736" y="349" on="1"/>
        <pt x="736" y="415" on="0"/>
        <pt x="686" y="531" on="0"/>
        <pt x="600" y="618" on="0"/>
        <pt x="484" y="668" on="0"/>
        <pt x="419" y="668" on="1"/>
        <pt x="354" y="668" on="0"/>
        <pt x="239" y="617" on="0"/>
        <pt x="153" y="530" on="0"/>
        <pt x="104" y="414" on="0"/>
      </contour>
    </TTGlyph>
    <TTGlyph name="Oacute" xMin="62" yMin="-8" xMax="778" yMax="883">
      <component glyphName="O" x="0" y="0" flags="0x204"/>
      <component glyphName="acute" x="300" y="271" flags="0x4"/>
    </TTGlyph>
    <TTGlyph name="Ocircumflex" xMin="62" yMin="-8" xMax="778" yMax="931">
      <component glyphName="O" x="0" y="0" flags="0x4"/>
      <component glyphName="asciicircum" x="184" y="271" flags="0x4"/>
    </TTGlyph>
    <TTGlyph name="Odieresis" xMin="62" yMin="-8" xMax="778" yMax="831">
      <component glyphName="O" x="0" y="0" flags="0x4"/>
      <component glyphName="dieresis" x="235" y="290" flags="0x4"/>
    </TTGlyph>
    <TTGlyph name="Ograve" xMin="62" yMin="-8" xMax="778" yMax="883">
      <component glyphName="O" x="0" y="0" flags="0x4"/>
      <component glyphName="grave" x="330" y="271" flags="0x4"/>
    </TTGlyph>
    <TTGlyph name="Oslash" xMin="62" yMin="-12" xMax="778" yMax="712">
      <contour>
        <pt x="104" y="348" on="1"/>
        <pt x="104" y="282" on="0"/>
        <pt x="153" y="166" on="0"/>
        <pt x="197" y="123" on="1"/>
        <pt x="300" y="245" on="0"/>
        <pt x="502" y="485" on="0"/>
        <pt x="605" y="606" on="1"/>
        <pt x="565" y="635" on="0"/>
        <pt x="471" y="668" on="0"/>
        <pt x="419" y="668" on="1"/>
        <pt x="354" y="668" on="0"/>
        <pt x="239" y="617" on="0"/>
        <pt x="153" y="530" on="0"/>
        <pt x="104" y="414" on="0"/>
      </contour>
      <contour>
        <pt x="417" y="32" on="1"/>
        <pt x="483" y="32" on="0"/>
        <pt x="599" y="82" on="0"/>
        <pt x="686" y="168" on="0"/>
        <pt x="736" y="283" on="0"/>
        <pt x="736" y="349" on="1"/>
        <pt x="736" y="418" on="0"/>
        <pt x="681" y="537" on="0"/>
        <pt x="633" y="581" on="1"/>
        <pt x="530" y="460" on="0"/>
        <pt x="329" y="219" on="0"/>
        <pt x="226" y="98" on="1"/>
        <pt x="266" y="66" on="0"/>
        <pt x="363" y="32" on="0"/>
      </contour>
      <contour>
        <pt x="62" y="349" on="1"/>
        <pt x="62" y="423" on="0"/>
        <pt x="118" y="554" on="0"/>
        <pt x="215" y="651" on="0"/>
        <pt x="345" y="708" on="0"/>
        <pt x="419" y="708" on="1"/>
        <pt x="479" y="708" on="0"/>
        <pt x="587" y="671" on="0"/>
        <pt x="632" y="637" on="1"/>
        <pt x="695" y="712" on="1"/>
        <pt x="702" y="706" on="0"/>
        <pt x="716" y="694" on="0"/>
        <pt x="723" y="687" on="1"/>
        <pt x="707" y="668" on="0"/>
        <pt x="677" y="632" on="0"/>
        <pt x="661" y="613" on="1"/>
        <pt x="715" y="564" on="0"/>
        <pt x="778" y="427" on="0"/>
        <pt x="778" y="349" on="1"/>
        <pt x="778" y="275" on="0"/>
        <pt x="721" y="145" on="0"/>
        <pt x="624" y="48" on="0"/>
        <pt x="493" y="-8" on="0"/>
        <pt x="419" y="-8" on="1"/>
        <pt x="356" y="-8" on="0"/>
        <pt x="245" y="32" on="0"/>
        <pt x="200" y="67" on="1"/>
        <pt x="183" y="47" on="0"/>
        <pt x="150" y="8" on="0"/>
        <pt x="133" y="-12" on="1"/>
        <pt x="126" y="-5" on="0"/>
        <pt x="112" y="7" on="0"/>
        <pt x="105" y="14" on="1"/>
        <pt x="171" y="92" on="1"/>
        <pt x="120" y="141" on="0"/>
        <pt x="62" y="273" on="0"/>
      </contour>
    </TTGlyph>
    <TTGlyph name="Otilde" xMin="62" yMin="-8" xMax="778" yMax="872">
      <component glyphName="O" x="0" y="0" flags="0x4"/>
      <component glyphName="asciitilde" x="141" y="327" flags="0x4"/>
    </TTGlyph>
    <TTGlyph name="P" xMin="74" yMin="0" xMax="438" yMax="700">
      <contour>
        <pt x="115" y="370" on="1"/>
        <pt x="219" y="370" on="1"/>
        <pt x="271" y="370" on="0"/>
        <pt x="340" y="398" on="0"/>
        <pt x="381" y="442" on="0"/>
        <pt x="397" y="493" on="0"/>
        <pt x="397" y="517" on="1"/>
        <pt x="397" y="545" on="0"/>
        <pt x="370" y="597" on="0"/>
        <pt x="322" y="637" on="0"/>
        <pt x="257" y="660" on="0"/>
        <pt x="220" y="660" on="1"/>
        <pt x="115" y="660" on="1"/>
      </contour>
      <contour>
        <pt x="74" y="0" on="1"/>
        <pt x="74" y="700" on="1"/>
        <pt x="224" y="700" on="1"/>
        <pt x="255" y="700" on="0"/>
        <pt x="329" y="680" on="0"/>
        <pt x="394" y="636" on="0"/>
        <pt x="438" y="566" on="0"/>
        <pt x="438" y="517" on="1"/>
        <pt x="438" y="431" on="0"/>
        <pt x="329" y="329" on="0"/>
        <pt x="226" y="329" on="1"/>
        <pt x="115" y="329" on="1"/>
        <pt x="115" y="0" on="1"/>
      </contour>
    </TTGlyph>
    <TTGlyph name="Q" xMin="62" yMin="-8" xMax="800" yMax="708">
      <contour>
        <pt x="104" y="348" on="1"/>
        <pt x="104" y="283" on="0"/>
        <pt x="153" y="168" on="0"/>
        <pt x="239" y="82" on="0"/>
        <pt x="352" y="32" on="0"/>
        <pt x="417" y="32" on="1"/>
        <pt x="483" y="32" on="0"/>
        <pt x="599" y="82" on="0"/>
        <pt x="686" y="168" on="0"/>
        <pt x="736" y="283" on="0"/>
        <pt x="736" y="349" on="1"/>
        <pt x="736" y="415" on="0"/>
        <pt x="686" y="531" on="0"/>
        <pt x="600" y="618" on="0"/>
        <pt x="484" y="668" on="0"/>
        <pt x="419" y="668" on="1"/>
        <pt x="354" y="668" on="0"/>
        <pt x="239" y="617" on="0"/>
        <pt x="153" y="530" on="0"/>
        <pt x="104" y="414" on="0"/>
      </contour>
      <contour>
        <pt x="62" y="349" on="1"/>
        <pt x="62" y="423" on="0"/>
        <pt x="118" y="554" on="0"/>
        <pt x="215" y="651" on="0"/>
        <pt x="345" y="708" on="0"/>
        <pt x="419" y="708" on="1"/>
        <pt x="493" y="708" on="0"/>
        <pt x="624" y="651" on="0"/>
        <pt x="721" y="554" on="0"/>
        <pt x="778" y="423" on="0"/>
        <pt x="778" y="349" on="1"/>
        <pt x="778" y="298" on="0"/>
        <pt x="750" y="204" on="0"/>
        <pt x="700" y="125" on="0"/>
        <pt x="629" y="61" on="0"/>
        <pt x="587" y="40" on="1"/>
        <pt x="800" y="40" on="1"/>
        <pt x="800" y="0" on="1"/>
        <pt x="493" y="0" on="1"/>
        <pt x="455" y="-8" on="0"/>
        <pt x="419" y="-8" on="1"/>
        <pt x="345" y="-8" on="0"/>
        <pt x="215" y="48" on="0"/>
        <pt x="118" y="145" on="0"/>
        <pt x="62" y="275" on="0"/>
      </contour>
    </TTGlyph>
    <TTGlyph name="R" xMin="74" yMin="0" xMax="446" yMax="700">
      <contour>
        <pt x="115" y="370" on="1"/>
        <pt x="219" y="370" on="1"/>
        <pt x="271" y="370" on="0"/>
        <pt x="340" y="398" on="0"/>
        <pt x="381" y="442" on="0"/>
        <pt x="397" y="493" on="0"/>
        <pt x="397" y="517" on="1"/>
        <pt x="397" y="545" on="0"/>
        <pt x="370" y="597" on="0"/>
        <pt x="322" y="637" on="0"/>
        <pt x="257" y="660" on="0"/>
        <pt x="220" y="660" on="1"/>
        <pt x="115" y="660" on="1"/>
      </contour>
      <contour>
        <pt x="74" y="0" on="1"/>
        <pt x="74" y="700" on="1"/>
        <pt x="224" y="700" on="1"/>
        <pt x="255" y="700" on="0"/>
        <pt x="329" y="680" on="0"/>
        <pt x="394" y="636" on="0"/>
        <pt x="438" y="566" on="0"/>
        <pt x="438" y="517" on="1"/>
        <pt x="438" y="445" on="0"/>
        <pt x="361" y="350" on="0"/>
        <pt x="288" y="335" on="1"/>
        <pt x="328" y="250" on="0"/>
        <pt x="407" y="84" on="0"/>
        <pt x="446" y="0" on="1"/>
        <pt x="401" y="0" on="1"/>
        <pt x="362" y="84" on="0"/>
        <pt x="284" y="248" on="0"/>
        <pt x="245" y="331" on="1"/>
        <pt x="236" y="330" on="0"/>
        <pt x="219" y="329" on="0"/>
        <pt x="210" y="329" on="1"/>
        <pt x="115" y="329" on="1"/>
        <pt x="115" y="0" on="1"/>
      </contour>
    </TTGlyph>
    <TTGlyph name="S" xMin="66" yMin="-8" xMax="484" yMax="704">
      <contour>
        <pt x="432" y="641" on="1"/>
        <pt x="425" y="633" on="0"/>
        <pt x="414" y="617" on="0"/>
        <pt x="408" y="609" on="1"/>
        <pt x="399" y="617" on="0"/>
        <pt x="373" y="636" on="0"/>
        <pt x="338" y="653" on="0"/>
        <pt x="295" y="664" on="0"/>
        <pt x="270" y="664" on="1"/>
        <pt x="235" y="664" on="0"/>
        <pt x="183" y="641" on="0"/>
        <pt x="148" y="602" on="0"/>
        <pt x="131" y="551" on="0"/>
        <pt x="131" y="524" on="1"/>
        <pt x="131" y="495" on="0"/>
        <pt x="150" y="454" on="0"/>
        <pt x="183" y="426" on="0"/>
        <pt x="229" y="405" on="0"/>
        <pt x="256" y="396" on="1"/>
        <pt x="288" y="385" on="0"/>
        <pt x="367" y="358" on="0"/>
        <pt x="437" y="311" on="0"/>
        <pt x="484" y="240" on="0"/>
        <pt x="484" y="186" on="1"/>
        <pt x="484" y="142" on="0"/>
        <pt x="451" y="70" on="0"/>
        <pt x="394" y="19" on="0"/>
        <pt x="317" y="-8" on="0"/>
        <pt x="274" y="-8" on="1"/>
        <pt x="235" y="-8" on="0"/>
        <pt x="168" y="12" on="0"/>
        <pt x="116" y="42" on="0"/>
        <pt x="77" y="76" on="0"/>
        <pt x="66" y="89" on="1"/>
        <pt x="94" y="117" on="1"/>
        <pt x="108" y="103" on="0"/>
        <pt x="144" y="73" on="0"/>
        <pt x="187" y="48" on="0"/>
        <pt x="239" y="32" on="0"/>
        <pt x="269" y="32" on="1"/>
        <pt x="303" y="32" on="0"/>
        <pt x="365" y="53" on="0"/>
        <pt x="413" y="92" on="0"/>
        <pt x="442" y="148" on="0"/>
        <pt x="442" y="184" on="1"/>
        <pt x="442" y="229" on="0"/>
        <pt x="402" y="287" on="0"/>
        <pt x="343" y="325" on="0"/>
        <pt x="273" y="349" on="0"/>
        <pt x="243" y="359" on="1"/>
        <pt x="224" y="365" on="0"/>
        <pt x="173" y="385" on="0"/>
        <pt x="126" y="421" on="0"/>
        <pt x="91" y="476" on="0"/>
        <pt x="90" y="517" on="1"/>
        <pt x="88" y="550" on="0"/>
        <pt x="107" y="617" on="0"/>
        <pt x="151" y="670" on="0"/>
        <pt x="221" y="704" on="0"/>
        <pt x="271" y="704" on="1"/>
        <pt x="309" y="704" on="0"/>
        <pt x="388" y="678" on="0"/>
      </contour>
    </TTGlyph>
    <TTGlyph name="T" xMin="0" yMin="0" xMax="553" yMax="700">
      <contour>
        <pt x="553" y="700" on="1"/>
        <pt x="553" y="660" on="1"/>
        <pt x="297" y="660" on="1"/>
        <pt x="297" y="0" on="1"/>
        <pt x="256" y="0" on="1"/>
        <pt x="256" y="660" on="1"/>
        <pt x="0" y="660" on="1"/>
        <pt x="0" y="700" on="1"/>
      </contour>
    </TTGlyph>
    <TTGlyph name="Thorn" xMin="100" yMin="0" xMax="465" yMax="700">
      <contour>
        <pt x="142" y="205" on="1"/>
        <pt x="245" y="205" on="1"/>
        <pt x="297" y="205" on="0"/>
        <pt x="366" y="233" on="0"/>
        <pt x="407" y="277" on="0"/>
        <pt x="423" y="328" on="0"/>
        <pt x="423" y="352" on="1"/>
        <pt x="423" y="380" on="0"/>
        <pt x="396" y="432" on="0"/>
        <pt x="349" y="472" on="0"/>
        <pt x="284" y="495" on="0"/>
        <pt x="246" y="495" on="1"/>
        <pt x="142" y="495" on="1"/>
      </contour>
      <contour>
        <pt x="142" y="0" on="1"/>
        <pt x="100" y="0" on="1"/>
        <pt x="100" y="700" on="1"/>
        <pt x="142" y="700" on="1"/>
        <pt x="142" y="535" on="1"/>
        <pt x="250" y="535" on="1"/>
        <pt x="281" y="535" on="0"/>
        <pt x="356" y="515" on="0"/>
        <pt x="421" y="471" on="0"/>
        <pt x="465" y="401" on="0"/>
        <pt x="465" y="352" on="1"/>
        <pt x="465" y="266" on="0"/>
        <pt x="355" y="164" on="0"/>
        <pt x="252" y="164" on="1"/>
        <pt x="142" y="164" on="1"/>
      </contour>
    </TTGlyph>
    <TTGlyph name="U" xMin="92" yMin="-8" xMax="564" yMax="700">
      <contour>
        <pt x="327" y="-8" on="1"/>
        <pt x="276" y="-8" on="0"/>
        <pt x="190" y="22" on="0"/>
        <pt x="127" y="81" on="0"/>
        <pt x="92" y="169" on="0"/>
        <pt x="92" y="226" on="1"/>
        <pt x="92" y="700" on="1"/>
        <pt x="133" y="700" on="1"/>
        <pt x="133" y="229" on="1"/>
        <pt x="133" y="181" on="0"/>
        <pt x="162" y="108" on="0"/>
        <pt x="213" y="58" on="0"/>
        <pt x="285" y="32" on="0"/>
        <pt x="327" y="32" on="1"/>
        <pt x="369" y="32" on="0"/>
        <pt x="440" y="58" on="0"/>
        <pt x="493" y="108" on="0"/>
        <pt x="522" y="181" on="0"/>
        <pt x="522" y="229" on="1"/>
        <pt x="522" y="700" on="1"/>
        <pt x="564" y="700" on="1"/>
        <pt x="564" y="226" on="1"/>
        <pt x="564" y="169" on="0"/>
        <pt x="528" y="81" on="0"/>
        <pt x="464" y="22" on="0"/>
        <pt x="377" y="-8" on="0"/>
      </contour>
    </TTGlyph>
    <TTGlyph name="Uacute" xMin="93" yMin="-8" xMax="565" yMax="883">
      <component glyphName="U" x="1" y="0" flags="0x204"/>
      <component glyphName="acute" x="200" y="271" flags="0x4"/>
    </TTGlyph>
    <TTGlyph name="Ucircumflex" xMin="93" yMin="-8" xMax="565" yMax="961">
      <component glyphName="U" x="1" y="0" flags="0x204"/>
      <component glyphName="asciicircum" x="94" y="301" flags="0x4"/>
    </TTGlyph>
    <TTGlyph name="Udieresis" xMin="93" yMin="-8" xMax="565" yMax="831">
      <component glyphName="U" x="1" y="0" flags="0x204"/>
      <component glyphName="dieresis" x="146" y="290" flags="0x4"/>
    </TTGlyph>
    <TTGlyph name="Ugrave" xMin="93" yMin="-8" xMax="565" yMax="883">
      <component glyphName="U" x="1" y="0" flags="0x204"/>
      <component glyphName="grave" x="243" y="271" flags="0x4"/>
    </TTGlyph>
    <TTGlyph name="V" xMin="54" yMin="-32" xMax="674" yMax="700">
      <contour>
        <pt x="632" y="700" on="1"/>
        <pt x="674" y="700" on="1"/>
        <pt x="596" y="516" on="0"/>
        <pt x="442" y="152" on="0"/>
        <pt x="364" y="-32" on="1"/>
        <pt x="286" y="152" on="0"/>
        <pt x="132" y="516" on="0"/>
        <pt x="54" y="700" on="1"/>
        <pt x="96" y="700" on="1"/>
        <pt x="161" y="546" on="0"/>
        <pt x="290" y="243" on="0"/>
        <pt x="355" y="89" on="1"/>
        <pt x="357" y="82" on="0"/>
        <pt x="362" y="68" on="0"/>
        <pt x="364" y="61" on="1"/>
        <pt x="366" y="68" on="0"/>
        <pt x="371" y="82" on="0"/>
        <pt x="373" y="89" on="1"/>
        <pt x="438" y="243" on="0"/>
        <pt x="567" y="546" on="0"/>
      </contour>
    </TTGlyph>
    <TTGlyph name="W" xMin="54" yMin="-32" xMax="1046" yMax="700">
      <contour>
        <pt x="1004" y="700" on="1"/>
        <pt x="1046" y="700" on="1"/>
        <pt x="968" y="516" on="0"/>
        <pt x="814" y="152" on="0"/>
        <pt x="736" y="-32" on="1"/>
        <pt x="559" y="385" on="1"/>
        <pt x="550" y="412" on="1"/>
        <pt x="510" y="301" on="0"/>
        <pt x="411" y="77" on="0"/>
        <pt x="364" y="-32" on="1"/>
        <pt x="286" y="152" on="0"/>
        <pt x="132" y="516" on="0"/>
        <pt x="54" y="700" on="1"/>
        <pt x="96" y="700" on="1"/>
        <pt x="161" y="546" on="0"/>
        <pt x="289" y="242" on="0"/>
        <pt x="355" y="89" on="1"/>
        <pt x="357" y="82" on="0"/>
        <pt x="362" y="68" on="0"/>
        <pt x="364" y="61" on="1"/>
        <pt x="398" y="161" on="0"/>
        <pt x="487" y="359" on="0"/>
        <pt x="529" y="457" on="1"/>
        <pt x="503" y="519" on="0"/>
        <pt x="452" y="639" on="0"/>
        <pt x="426" y="700" on="1"/>
        <pt x="469" y="700" on="1"/>
        <pt x="533" y="546" on="0"/>
        <pt x="661" y="242" on="0"/>
        <pt x="727" y="89" on="1"/>
        <pt x="729" y="82" on="0"/>
        <pt x="734" y="68" on="0"/>
        <pt x="736" y="61" on="1"/>
        <pt x="738" y="68" on="0"/>
        <pt x="743" y="82" on="0"/>
        <pt x="745" y="89" on="1"/>
        <pt x="811" y="243" on="0"/>
        <pt x="939" y="546" on="0"/>
      </contour>
    </TTGlyph>
    <TTGlyph name="X" xMin="93" yMin="0" xMax="609" yMax="700">
      <contour>
        <pt x="324" y="359" on="1"/>
        <pt x="269" y="444" on="0"/>
        <pt x="158" y="615" on="0"/>
        <pt x="103" y="700" on="1"/>
        <pt x="153" y="700" on="1"/>
        <pt x="201" y="627" on="0"/>
        <pt x="295" y="481" on="0"/>
        <pt x="343" y="408" on="1"/>
        <pt x="346" y="403" on="0"/>
        <pt x="351" y="395" on="0"/>
        <pt x="353" y="390" on="1"/>
        <pt x="356" y="395" on="0"/>
        <pt x="361" y="403" on="0"/>
        <pt x="363" y="408" on="1"/>
        <pt x="411" y="481" on="0"/>
        <pt x="504" y="627" on="0"/>
        <pt x="551" y="700" on="1"/>
        <pt x="601" y="700" on="1"/>
        <pt x="545" y="613" on="0"/>
        <pt x="435" y="441" on="0"/>
        <pt x="379" y="354" on="1"/>
        <pt x="436" y="265" on="0"/>
        <pt x="552" y="89" on="0"/>
        <pt x="609" y="0" on="1"/>
        <pt x="558" y="0" on="1"/>
        <pt x="381" y="271" on="1"/>
        <pt x="373" y="283" on="0"/>
        <pt x="358" y="311" on="0"/>
        <pt x="349" y="323" on="1"/>
        <pt x="347" y="318" on="0"/>
        <pt x="341" y="309" on="0"/>
        <pt x="339" y="304" on="1"/>
        <pt x="290" y="228" on="0"/>
        <pt x="193" y="77" on="0"/>
        <pt x="144" y="0" on="1"/>
        <pt x="93" y="0" on="1"/>
        <pt x="151" y="91" on="0"/>
        <pt x="266" y="268" on="0"/>
      </contour>
    </TTGlyph>
    <TTGlyph name="Y" xMin="34" yMin="0" xMax="601" yMax="700">
      <contour>
        <pt x="343" y="265" on="1"/>
        <pt x="343" y="0" on="1"/>
        <pt x="293" y="0" on="1"/>
        <pt x="293" y="265" on="1"/>
        <pt x="228" y="374" on="0"/>
        <pt x="99" y="591" on="0"/>
        <pt x="34" y="700" on="1"/>
        <pt x="85" y="700" on="1"/>
        <pt x="140" y="606" on="0"/>
        <pt x="252" y="424" on="0"/>
        <pt x="306" y="330" on="1"/>
        <pt x="309" y="322" on="0"/>
        <pt x="315" y="309" on="0"/>
        <pt x="318" y="302" on="1"/>
        <pt x="319" y="302" on="1"/>
        <pt x="322" y="309" on="0"/>
        <pt x="327" y="322" on="0"/>
        <pt x="330" y="330" on="1"/>
        <pt x="386" y="423" on="0"/>
        <pt x="495" y="606" on="0"/>
        <pt x="550" y="700" on="1"/>
        <pt x="601" y="700" on="1"/>
      </contour>
    </TTGlyph>
    <TTGlyph name="Yacute" xMin="34" yMin="0" xMax="601" yMax="883">
      <component glyphName="Y" x="0" y="0" flags="0x204"/>
      <component glyphName="acute" x="194" y="271" flags="0x4"/>
    </TTGlyph>
    <TTGlyph name="Z" xMin="81" yMin="0" xMax="640" yMax="735">
      <contour>
        <pt x="170" y="700" on="1"/>
        <pt x="611" y="700" on="1"/>
        <pt x="611" y="660" on="1"/>
        <pt x="491" y="505" on="0"/>
        <pt x="254" y="196" on="0"/>
        <pt x="134" y="40" on="1"/>
        <pt x="640" y="40" on="1"/>
        <pt x="640" y="0" on="1"/>
        <pt x="81" y="0" on="1"/>
        <pt x="81" y="40" on="1"/>
        <pt x="201" y="196" on="0"/>
        <pt x="438" y="505" on="0"/>
        <pt x="558" y="660" on="1"/>
        <pt x="163" y="660" on="1"/>
        <pt x="132" y="660" on="0"/>
        <pt x="98" y="684" on="0"/>
        <pt x="98" y="713" on="1"/>
        <pt x="98" y="735" on="1"/>
        <pt x="140" y="735" on="1"/>
        <pt x="140" y="723" on="1"/>
        <pt x="140" y="711" on="0"/>
        <pt x="153" y="700" on="0"/>
      </contour>
    </TTGlyph>
    <TTGlyph name="a" xMin="49" yMin="-7" xMax="443" yMax="383">
      <contour>
        <pt x="91" y="188" on="1"/>
        <pt x="91" y="156" on="0"/>
        <pt x="115" y="100" on="0"/>
        <pt x="156" y="58" on="0"/>
        <pt x="213" y="34" on="0"/>
        <pt x="246" y="34" on="1"/>
        <pt x="279" y="34" on="0"/>
        <pt x="335" y="58" on="0"/>
        <pt x="377" y="100" on="0"/>
        <pt x="401" y="156" on="0"/>
        <pt x="401" y="188" on="1"/>
        <pt x="401" y="220" on="0"/>
        <pt x="377" y="277" on="0"/>
        <pt x="335" y="319" on="0"/>
        <pt x="279" y="343" on="0"/>
        <pt x="246" y="343" on="1"/>
        <pt x="213" y="343" on="0"/>
        <pt x="156" y="319" on="0"/>
        <pt x="115" y="277" on="0"/>
        <pt x="91" y="220" on="0"/>
      </contour>
      <contour>
        <pt x="49" y="188" on="1"/>
        <pt x="49" y="228" on="0"/>
        <pt x="80" y="299" on="0"/>
        <pt x="133" y="352" on="0"/>
        <pt x="205" y="383" on="0"/>
        <pt x="246" y="383" on="1"/>
        <pt x="275" y="383" on="0"/>
        <pt x="327" y="366" on="0"/>
        <pt x="369" y="339" on="0"/>
        <pt x="398" y="304" on="0"/>
        <pt x="405" y="287" on="1"/>
        <pt x="405" y="309" on="0"/>
        <pt x="408" y="353" on="0"/>
        <pt x="409" y="375" on="1"/>
        <pt x="443" y="375" on="1"/>
        <pt x="443" y="0" on="1"/>
        <pt x="405" y="0" on="1"/>
        <pt x="405" y="45" on="1"/>
        <pt x="405" y="56" on="0"/>
        <pt x="406" y="76" on="0"/>
        <pt x="406" y="87" on="1"/>
        <pt x="400" y="70" on="0"/>
        <pt x="371" y="36" on="0"/>
        <pt x="330" y="9" on="0"/>
        <pt x="277" y="-7" on="0"/>
        <pt x="246" y="-7" on="1"/>
        <pt x="205" y="-7" on="0"/>
        <pt x="133" y="24" on="0"/>
        <pt x="80" y="76" on="0"/>
        <pt x="49" y="147" on="0"/>
      </contour>
    </TTGlyph>
    <TTGlyph name="aacute" xMin="49" yMin="-7" xMax="443" yMax="612">
      <component glyphName="a" x="0" y="0" flags="0x4"/>
      <component glyphName="acute" x="132" y="0" flags="0x4"/>
    </TTGlyph>
    <TTGlyph name="acircumflex" xMin="49" yMin="-7" xMax="443" yMax="660">
      <component glyphName="a" x="0" y="0" flags="0x4"/>
      <component glyphName="asciicircum" x="29" y="0" flags="0x4"/>
    </TTGlyph>
    <TTGlyph name="acute" xMin="100" yMin="479" xMax="233" yMax="612">
      <contour>
        <pt x="100" y="479" on="1"/>
        <pt x="123" y="512" on="0"/>
        <pt x="167" y="579" on="0"/>
        <pt x="190" y="612" on="1"/>
        <pt x="233" y="612" on="1"/>
        <pt x="208" y="579" on="0"/>
        <pt x="158" y="512" on="0"/>
        <pt x="133" y="479" on="1"/>
      </contour>
    </TTGlyph>
    <TTGlyph name="adieresis" xMin="49" yMin="-7" xMax="443" yMax="541">
      <component glyphName="a" x="0" y="0" flags="0x4"/>
      <component glyphName="dieresis" x="79" y="0" flags="0x4"/>
    </TTGlyph>
    <TTGlyph name="ae" xMin="47" yMin="-8" xMax="570" yMax="384">
      <contour>
        <pt x="360" y="243" on="1"/>
        <pt x="360" y="205" on="1"/>
        <pt x="399" y="220" on="0"/>
        <pt x="478" y="251" on="0"/>
        <pt x="517" y="266" on="1"/>
        <pt x="499" y="301" on="0"/>
        <pt x="436" y="343" on="0"/>
        <pt x="398" y="343" on="1"/>
        <pt x="381" y="343" on="0"/>
        <pt x="351" y="336" on="0"/>
        <pt x="337" y="331" on="1"/>
        <pt x="350" y="317" on="0"/>
        <pt x="360" y="274" on="0"/>
      </contour>
      <contour>
        <pt x="318" y="162" on="1"/>
        <pt x="239" y="162" on="1"/>
        <pt x="224" y="162" on="0"/>
        <pt x="173" y="162" on="0"/>
        <pt x="124" y="151" on="0"/>
        <pt x="89" y="127" on="0"/>
        <pt x="89" y="103" on="1"/>
        <pt x="89" y="81" on="0"/>
        <pt x="111" y="54" on="0"/>
        <pt x="146" y="39" on="0"/>
        <pt x="187" y="33" on="0"/>
        <pt x="206" y="33" on="1"/>
        <pt x="225" y="33" on="0"/>
        <pt x="265" y="39" on="0"/>
        <pt x="298" y="55" on="0"/>
        <pt x="318" y="84" on="0"/>
        <pt x="318" y="108" on="1"/>
      </contour>
      <contour>
        <pt x="97" y="311" on="1"/>
        <pt x="91" y="318" on="0"/>
        <pt x="78" y="332" on="0"/>
        <pt x="72" y="339" on="1"/>
        <pt x="82" y="348" on="0"/>
        <pt x="113" y="365" on="0"/>
        <pt x="149" y="377" on="0"/>
        <pt x="188" y="384" on="0"/>
        <pt x="205" y="384" on="1"/>
        <pt x="278" y="384" on="0"/>
        <pt x="313" y="365" on="1"/>
        <pt x="353" y="384" on="0"/>
        <pt x="398" y="384" on="1"/>
        <pt x="428" y="384" on="0"/>
        <pt x="482" y="363" on="0"/>
        <pt x="527" y="325" on="0"/>
        <pt x="561" y="274" on="0"/>
        <pt x="570" y="243" on="1"/>
        <pt x="517" y="223" on="0"/>
        <pt x="413" y="181" on="0"/>
        <pt x="360" y="161" on="1"/>
        <pt x="360" y="145" on="1"/>
        <pt x="360" y="130" on="1"/>
        <pt x="360" y="101" on="0"/>
        <pt x="348" y="62" on="0"/>
        <pt x="333" y="47" on="1"/>
        <pt x="362" y="34" on="0"/>
        <pt x="398" y="34" on="1"/>
        <pt x="429" y="34" on="0"/>
        <pt x="483" y="56" on="0"/>
        <pt x="503" y="76" on="1"/>
        <pt x="509" y="68" on="0"/>
        <pt x="522" y="54" on="0"/>
        <pt x="529" y="46" on="1"/>
        <pt x="503" y="21" on="0"/>
        <pt x="436" y="-7" on="0"/>
        <pt x="398" y="-7" on="1"/>
        <pt x="348" y="-7" on="0"/>
        <pt x="308" y="14" on="1"/>
        <pt x="273" y="-8" on="0"/>
        <pt x="205" y="-8" on="1"/>
        <pt x="169" y="-8" on="0"/>
        <pt x="111" y="3" on="0"/>
        <pt x="70" y="28" on="0"/>
        <pt x="47" y="71" on="0"/>
        <pt x="47" y="104" on="1"/>
        <pt x="47" y="132" on="0"/>
        <pt x="72" y="171" on="0"/>
        <pt x="113" y="195" on="0"/>
        <pt x="166" y="205" on="0"/>
        <pt x="195" y="205" on="1"/>
        <pt x="318" y="205" on="1"/>
        <pt x="318" y="245" on="1"/>
        <pt x="318" y="270" on="0"/>
        <pt x="310" y="307" on="0"/>
        <pt x="286" y="331" on="0"/>
        <pt x="241" y="343" on="0"/>
        <pt x="204" y="343" on="1"/>
        <pt x="190" y="343" on="0"/>
        <pt x="160" y="337" on="0"/>
        <pt x="130" y="328" on="0"/>
        <pt x="105" y="317" on="0"/>
      </contour>
    </TTGlyph>
    <TTGlyph name="agrave" xMin="49" yMin="-7" xMax="443" yMax="612">
      <component glyphName="a" x="0" y="0" flags="0x4"/>
      <component glyphName="grave" x="163" y="0" flags="0x4"/>
    </TTGlyph>
    <TTGlyph name="ampersand" xMin="106" yMin="-19" xMax="603" yMax="750">
      <contour>
        <pt x="147" y="187" on="1"/>
        <pt x="147" y="155" on="0"/>
        <pt x="171" y="99" on="0"/>
        <pt x="212" y="57" on="0"/>
        <pt x="269" y="33" on="0"/>
        <pt x="302" y="33" on="1"/>
        <pt x="346" y="33" on="0"/>
        <pt x="415" y="74" on="0"/>
        <pt x="435" y="107" on="1"/>
        <pt x="399" y="166" on="0"/>
        <pt x="327" y="282" on="0"/>
        <pt x="292" y="341" on="1"/>
        <pt x="261" y="338" on="0"/>
        <pt x="208" y="313" on="0"/>
        <pt x="169" y="273" on="0"/>
        <pt x="147" y="218" on="0"/>
      </contour>
      <contour>
        <pt x="499" y="227" on="1"/>
        <pt x="499" y="187" on="1"/>
        <pt x="499" y="146" on="0"/>
        <pt x="480" y="108" on="1"/>
        <pt x="497" y="82" on="0"/>
        <pt x="528" y="29" on="0"/>
        <pt x="545" y="3" on="1"/>
        <pt x="537" y="-2" on="0"/>
        <pt x="521" y="-14" on="0"/>
        <pt x="513" y="-19" on="1"/>
        <pt x="499" y="3" on="0"/>
        <pt x="473" y="47" on="0"/>
        <pt x="459" y="68" on="1"/>
        <pt x="432" y="33" on="0"/>
        <pt x="350" y="-8" on="0"/>
        <pt x="302" y="-8" on="1"/>
        <pt x="261" y="-8" on="0"/>
        <pt x="190" y="23" on="0"/>
        <pt x="137" y="75" on="0"/>
        <pt x="106" y="146" on="0"/>
        <pt x="106" y="187" on="1"/>
        <pt x="106" y="223" on="0"/>
        <pt x="130" y="288" on="0"/>
        <pt x="174" y="339" on="0"/>
        <pt x="233" y="373" on="0"/>
        <pt x="268" y="379" on="1"/>
        <pt x="250" y="408" on="0"/>
        <pt x="214" y="467" on="0"/>
        <pt x="197" y="496" on="1"/>
        <pt x="179" y="526" on="0"/>
        <pt x="164" y="590" on="0"/>
        <pt x="174" y="652" on="0"/>
        <pt x="210" y="706" on="0"/>
        <pt x="243" y="726" on="1"/>
        <pt x="271" y="743" on="0"/>
        <pt x="330" y="750" on="0"/>
        <pt x="386" y="740" on="0"/>
        <pt x="435" y="718" on="0"/>
        <pt x="454" y="706" on="1"/>
        <pt x="449" y="697" on="0"/>
        <pt x="442" y="680" on="0"/>
        <pt x="437" y="672" on="1"/>
        <pt x="419" y="682" on="0"/>
        <pt x="378" y="701" on="0"/>
        <pt x="335" y="710" on="0"/>
        <pt x="291" y="706" on="0"/>
        <pt x="270" y="693" on="1"/>
        <pt x="216" y="659" on="0"/>
        <pt x="204" y="557" on="0"/>
        <pt x="234" y="508" on="1"/>
        <pt x="287" y="423" on="0"/>
        <pt x="390" y="253" on="0"/>
        <pt x="443" y="168" on="1"/>
        <pt x="450" y="186" on="0"/>
        <pt x="459" y="223" on="0"/>
        <pt x="461" y="243" on="1"/>
        <pt x="461" y="285" on="1"/>
        <pt x="464" y="321" on="0"/>
        <pt x="483" y="358" on="0"/>
        <pt x="510" y="374" on="0"/>
        <pt x="544" y="375" on="0"/>
        <pt x="562" y="375" on="1"/>
        <pt x="603" y="375" on="1"/>
        <pt x="603" y="334" on="1"/>
        <pt x="551" y="334" on="1"/>
        <pt x="520" y="334" on="0"/>
        <pt x="499" y="288" on="0"/>
      </contour>
    </TTGlyph>
    <TTGlyph name="aring" xMin="49" yMin="-7" xMax="443" yMax="613">
      <contour>
        <pt x="208" y="540" on="1"/>
        <pt x="208" y="523" on="0"/>
        <pt x="233" y="497" on="0"/>
        <pt x="250" y="497" on="1"/>
        <pt x="267" y="497" on="0"/>
        <pt x="293" y="523" on="0"/>
        <pt x="293" y="540" on="1"/>
        <pt x="293" y="557" on="0"/>
        <pt x="267" y="582" on="0"/>
        <pt x="250" y="582" on="1"/>
        <pt x="233" y="582" on="0"/>
        <pt x="208" y="557" on="0"/>
      </contour>
      <contour>
        <pt x="177" y="540" on="1"/>
        <pt x="177" y="570" on="0"/>
        <pt x="220" y="613" on="0"/>
        <pt x="250" y="613" on="1"/>
        <pt x="280" y="613" on="0"/>
        <pt x="323" y="570" on="0"/>
        <pt x="323" y="540" on="1"/>
        <pt x="323" y="510" on="0"/>
        <pt x="280" y="467" on="0"/>
        <pt x="250" y="467" on="1"/>
        <pt x="220" y="467" on="0"/>
        <pt x="177" y="510" on="0"/>
      </contour>
      <contour>
        <pt x="91" y="188" on="1"/>
        <pt x="91" y="156" on="0"/>
        <pt x="115" y="100" on="0"/>
        <pt x="156" y="58" on="0"/>
        <pt x="213" y="34" on="0"/>
        <pt x="246" y="34" on="1"/>
        <pt x="279" y="34" on="0"/>
        <pt x="335" y="58" on="0"/>
        <pt x="377" y="100" on="0"/>
        <pt x="401" y="156" on="0"/>
        <pt x="401" y="188" on="1"/>
        <pt x="401" y="220" on="0"/>
        <pt x="377" y="277" on="0"/>
        <pt x="335" y="319" on="0"/>
        <pt x="279" y="343" on="0"/>
        <pt x="246" y="343" on="1"/>
        <pt x="213" y="343" on="0"/>
        <pt x="156" y="319" on="0"/>
        <pt x="115" y="277" on="0"/>
        <pt x="91" y="220" on="0"/>
      </contour>
      <contour>
        <pt x="49" y="188" on="1"/>
        <pt x="49" y="228" on="0"/>
        <pt x="80" y="299" on="0"/>
        <pt x="133" y="352" on="0"/>
        <pt x="205" y="383" on="0"/>
        <pt x="246" y="383" on="1"/>
        <pt x="275" y="383" on="0"/>
        <pt x="327" y="366" on="0"/>
        <pt x="369" y="339" on="0"/>
        <pt x="398" y="304" on="0"/>
        <pt x="405" y="287" on="1"/>
        <pt x="405" y="309" on="0"/>
        <pt x="408" y="353" on="0"/>
        <pt x="409" y="375" on="1"/>
        <pt x="443" y="375" on="1"/>
        <pt x="443" y="0" on="1"/>
        <pt x="405" y="0" on="1"/>
        <pt x="405" y="45" on="1"/>
        <pt x="405" y="56" on="0"/>
        <pt x="406" y="76" on="0"/>
        <pt x="406" y="87" on="1"/>
        <pt x="400" y="70" on="0"/>
        <pt x="371" y="36" on="0"/>
        <pt x="330" y="9" on="0"/>
        <pt x="277" y="-7" on="0"/>
        <pt x="246" y="-7" on="1"/>
        <pt x="205" y="-7" on="0"/>
        <pt x="133" y="24" on="0"/>
        <pt x="80" y="76" on="0"/>
        <pt x="49" y="147" on="0"/>
      </contour>
    </TTGlyph>
    <TTGlyph name="asciicircum" xMin="112" yMin="479" xMax="352" yMax="660">
      <contour>
        <pt x="232" y="660" on="1"/>
        <pt x="262" y="615" on="0"/>
        <pt x="322" y="524" on="0"/>
        <pt x="352" y="479" on="1"/>
        <pt x="319" y="479" on="1"/>
        <pt x="297" y="509" on="0"/>
        <pt x="254" y="570" on="0"/>
        <pt x="232" y="600" on="1"/>
        <pt x="210" y="570" on="0"/>
        <pt x="167" y="509" on="0"/>
        <pt x="145" y="479" on="1"/>
        <pt x="112" y="479" on="1"/>
        <pt x="142" y="524" on="0"/>
        <pt x="202" y="615" on="0"/>
      </contour>
    </TTGlyph>
    <TTGlyph name="asciitilde" xMin="128" yMin="455" xMax="425" yMax="545">
      <contour>
        <pt x="267" y="491" on="1"/>
        <pt x="252" y="508" on="0"/>
        <pt x="228" y="519" on="0"/>
        <pt x="214" y="519" on="1"/>
        <pt x="206" y="519" on="0"/>
        <pt x="187" y="515" on="0"/>
        <pt x="169" y="504" on="0"/>
        <pt x="155" y="484" on="0"/>
        <pt x="153" y="468" on="1"/>
        <pt x="147" y="469" on="0"/>
        <pt x="134" y="469" on="0"/>
        <pt x="128" y="470" on="1"/>
        <pt x="129" y="489" on="0"/>
        <pt x="145" y="517" on="0"/>
        <pt x="169" y="536" on="0"/>
        <pt x="199" y="545" on="0"/>
        <pt x="213" y="545" on="1"/>
        <pt x="234" y="545" on="0"/>
        <pt x="269" y="526" on="0"/>
        <pt x="285" y="509" on="1"/>
        <pt x="301" y="492" on="0"/>
        <pt x="325" y="481" on="0"/>
        <pt x="339" y="481" on="1"/>
        <pt x="346" y="481" on="0"/>
        <pt x="366" y="485" on="0"/>
        <pt x="384" y="496" on="0"/>
        <pt x="397" y="516" on="0"/>
        <pt x="399" y="532" on="1"/>
        <pt x="406" y="531" on="0"/>
        <pt x="419" y="531" on="0"/>
        <pt x="425" y="530" on="1"/>
        <pt x="424" y="511" on="0"/>
        <pt x="408" y="483" on="0"/>
        <pt x="384" y="464" on="0"/>
        <pt x="354" y="455" on="0"/>
        <pt x="340" y="455" on="1"/>
        <pt x="319" y="455" on="0"/>
        <pt x="284" y="474" on="0"/>
      </contour>
    </TTGlyph>
    <TTGlyph name="asterisk" xMin="33" yMin="434" xMax="303" yMax="720">
      <contour>
        <pt x="209" y="575" on="1"/>
        <pt x="232" y="562" on="0"/>
        <pt x="279" y="536" on="0"/>
        <pt x="302" y="522" on="1"/>
        <pt x="296" y="513" on="0"/>
        <pt x="285" y="494" on="0"/>
        <pt x="279" y="484" on="1"/>
        <pt x="256" y="498" on="0"/>
        <pt x="211" y="524" on="0"/>
        <pt x="188" y="538" on="1"/>
        <pt x="187" y="512" on="0"/>
        <pt x="187" y="460" on="0"/>
        <pt x="186" y="434" on="1"/>
        <pt x="146" y="434" on="1"/>
        <pt x="146" y="538" on="1"/>
        <pt x="123" y="525" on="0"/>
        <pt x="79" y="500" on="0"/>
        <pt x="56" y="486" on="1"/>
        <pt x="50" y="496" on="0"/>
        <pt x="39" y="515" on="0"/>
        <pt x="33" y="525" on="1"/>
        <pt x="56" y="538" on="0"/>
        <pt x="102" y="563" on="0"/>
        <pt x="125" y="576" on="1"/>
        <pt x="102" y="590" on="0"/>
        <pt x="57" y="616" on="0"/>
        <pt x="34" y="630" on="1"/>
        <pt x="42" y="647" on="0"/>
        <pt x="54" y="665" on="1"/>
        <pt x="77" y="651" on="0"/>
        <pt x="123" y="625" on="0"/>
        <pt x="146" y="611" on="1"/>
        <pt x="146" y="720" on="1"/>
        <pt x="190" y="720" on="1"/>
        <pt x="190" y="693" on="0"/>
        <pt x="189" y="639" on="0"/>
        <pt x="189" y="611" on="1"/>
        <pt x="212" y="625" on="0"/>
        <pt x="260" y="651" on="0"/>
        <pt x="283" y="664" on="1"/>
        <pt x="288" y="656" on="0"/>
        <pt x="298" y="638" on="0"/>
        <pt x="303" y="629" on="1"/>
        <pt x="279" y="615" on="0"/>
        <pt x="233" y="589" on="0"/>
      </contour>
    </TTGlyph>
    <TTGlyph name="at" xMin="82" yMin="-217" xMax="895" yMax="595">
      <contour>
        <pt x="333" y="188" on="1"/>
        <pt x="333" y="156" on="0"/>
        <pt x="357" y="100" on="0"/>
        <pt x="398" y="58" on="0"/>
        <pt x="455" y="34" on="0"/>
        <pt x="488" y="34" on="1"/>
        <pt x="521" y="34" on="0"/>
        <pt x="578" y="58" on="0"/>
        <pt x="619" y="100" on="0"/>
        <pt x="643" y="156" on="0"/>
        <pt x="643" y="188" on="1"/>
        <pt x="643" y="220" on="0"/>
        <pt x="619" y="277" on="0"/>
        <pt x="578" y="319" on="0"/>
        <pt x="521" y="343" on="0"/>
        <pt x="488" y="343" on="1"/>
        <pt x="455" y="343" on="0"/>
        <pt x="398" y="319" on="0"/>
        <pt x="357" y="277" on="0"/>
        <pt x="333" y="220" on="0"/>
      </contour>
      <contour>
        <pt x="895" y="188" on="1"/>
        <pt x="892" y="131" on="0"/>
        <pt x="862" y="58" on="0"/>
        <pt x="817" y="16" on="0"/>
        <pt x="763" y="0" on="0"/>
        <pt x="737" y="0" on="1"/>
        <pt x="647" y="0" on="1"/>
        <pt x="647" y="40" on="1"/>
        <pt x="647" y="52" on="0"/>
        <pt x="648" y="75" on="0"/>
        <pt x="648" y="86" on="1"/>
        <pt x="641" y="69" on="0"/>
        <pt x="612" y="35" on="0"/>
        <pt x="571" y="9" on="0"/>
        <pt x="518" y="-7" on="0"/>
        <pt x="488" y="-7" on="1"/>
        <pt x="447" y="-7" on="0"/>
        <pt x="375" y="24" on="0"/>
        <pt x="322" y="76" on="0"/>
        <pt x="291" y="147" on="0"/>
        <pt x="291" y="188" on="1"/>
        <pt x="291" y="228" on="0"/>
        <pt x="322" y="299" on="0"/>
        <pt x="375" y="352" on="0"/>
        <pt x="447" y="383" on="0"/>
        <pt x="488" y="383" on="1"/>
        <pt x="517" y="383" on="0"/>
        <pt x="568" y="366" on="0"/>
        <pt x="610" y="339" on="0"/>
        <pt x="640" y="305" on="0"/>
        <pt x="647" y="287" on="1"/>
        <pt x="647" y="309" on="0"/>
        <pt x="650" y="353" on="0"/>
        <pt x="651" y="375" on="1"/>
        <pt x="685" y="375" on="1"/>
        <pt x="685" y="40" on="1"/>
        <pt x="741" y="40" on="1"/>
        <pt x="789" y="40" on="0"/>
        <pt x="851" y="110" on="0"/>
        <pt x="853" y="188" on="1"/>
        <pt x="853" y="264" on="0"/>
        <pt x="796" y="398" on="0"/>
        <pt x="697" y="497" on="0"/>
        <pt x="564" y="554" on="0"/>
        <pt x="489" y="554" on="1"/>
        <pt x="413" y="554" on="0"/>
        <pt x="280" y="497" on="0"/>
        <pt x="181" y="398" on="0"/>
        <pt x="124" y="264" on="0"/>
        <pt x="124" y="188" on="1"/>
        <pt x="124" y="112" on="0"/>
        <pt x="181" y="-20" on="0"/>
        <pt x="280" y="-119" on="0"/>
        <pt x="413" y="-176" on="0"/>
        <pt x="489" y="-176" on="1"/>
        <pt x="549" y="-176" on="0"/>
        <pt x="658" y="-140" on="0"/>
        <pt x="704" y="-108" on="1"/>
        <pt x="711" y="-116" on="0"/>
        <pt x="723" y="-130" on="0"/>
        <pt x="729" y="-138" on="1"/>
        <pt x="679" y="-176" on="0"/>
        <pt x="555" y="-217" on="0"/>
        <pt x="489" y="-217" on="1"/>
        <pt x="405" y="-217" on="0"/>
        <pt x="257" y="-153" on="0"/>
        <pt x="146" y="-43" on="0"/>
        <pt x="82" y="105" on="0"/>
        <pt x="82" y="189" on="1"/>
        <pt x="82" y="273" on="0"/>
        <pt x="146" y="421" on="0"/>
        <pt x="257" y="531" on="0"/>
        <pt x="405" y="595" on="0"/>
        <pt x="489" y="595" on="1"/>
        <pt x="573" y="595" on="0"/>
        <pt x="721" y="531" on="0"/>
        <pt x="831" y="421" on="0"/>
        <pt x="895" y="273" on="0"/>
      </contour>
    </TTGlyph>
    <TTGlyph name="atilde" xMin="49" yMin="-7" xMax="443" yMax="545">
      <component glyphName="a" x="0" y="0" flags="0x4"/>
      <component glyphName="asciitilde" x="-5" y="0" flags="0x4"/>
    </TTGlyph>
    <TTGlyph name="b" xMin="82" yMin="-7" xMax="476" yMax="750">
      <contour>
        <pt x="434" y="188" on="1"/>
        <pt x="434" y="220" on="0"/>
        <pt x="410" y="277" on="0"/>
        <pt x="369" y="319" on="0"/>
        <pt x="312" y="343" on="0"/>
        <pt x="279" y="343" on="1"/>
        <pt x="246" y="343" on="0"/>
        <pt x="189" y="319" on="0"/>
        <pt x="148" y="277" on="0"/>
        <pt x="124" y="220" on="0"/>
        <pt x="124" y="188" on="1"/>
        <pt x="124" y="156" on="0"/>
        <pt x="148" y="100" on="0"/>
        <pt x="189" y="58" on="0"/>
        <pt x="246" y="34" on="0"/>
        <pt x="279" y="34" on="1"/>
        <pt x="312" y="34" on="0"/>
        <pt x="369" y="58" on="0"/>
        <pt x="410" y="100" on="0"/>
        <pt x="434" y="156" on="0"/>
      </contour>
      <contour>
        <pt x="476" y="188" on="1"/>
        <pt x="476" y="147" on="0"/>
        <pt x="445" y="76" on="0"/>
        <pt x="392" y="24" on="0"/>
        <pt x="320" y="-7" on="0"/>
        <pt x="279" y="-7" on="1"/>
        <pt x="248" y="-7" on="0"/>
        <pt x="195" y="9" on="0"/>
        <pt x="154" y="36" on="0"/>
        <pt x="125" y="70" on="0"/>
        <pt x="119" y="87" on="1"/>
        <pt x="119" y="76" on="0"/>
        <pt x="120" y="56" on="0"/>
        <pt x="120" y="45" on="1"/>
        <pt x="120" y="0" on="1"/>
        <pt x="82" y="0" on="1"/>
        <pt x="82" y="750" on="1"/>
        <pt x="124" y="750" on="1"/>
        <pt x="124" y="333" on="1"/>
        <pt x="122" y="322" on="0"/>
        <pt x="121" y="299" on="0"/>
        <pt x="120" y="288" on="1"/>
        <pt x="126" y="305" on="0"/>
        <pt x="156" y="339" on="0"/>
        <pt x="198" y="366" on="0"/>
        <pt x="250" y="383" on="0"/>
        <pt x="279" y="383" on="1"/>
        <pt x="320" y="383" on="0"/>
        <pt x="392" y="352" on="0"/>
        <pt x="445" y="299" on="0"/>
        <pt x="476" y="228" on="0"/>
      </contour>
    </TTGlyph>
    <TTGlyph name="backslash" xMin="10" yMin="-19" xMax="334" yMax="736">
      <contour>
        <pt x="56" y="736" on="1"/>
        <pt x="126" y="546" on="0"/>
        <pt x="264" y="171" on="0"/>
        <pt x="334" y="-19" on="1"/>
        <pt x="288" y="-19" on="1"/>
        <pt x="218" y="171" on="0"/>
        <pt x="80" y="546" on="0"/>
        <pt x="10" y="736" on="1"/>
      </contour>
    </TTGlyph>
    <TTGlyph name="bar" xMin="96" yMin="-232" xMax="138" yMax="700">
      <contour>
        <pt x="96" y="-232" on="1"/>
        <pt x="96" y="700" on="1"/>
        <pt x="138" y="700" on="1"/>
        <pt x="138" y="-232" on="1"/>
      </contour>
    </TTGlyph>
    <TTGlyph name="braceleft" xMin="30" yMin="-148" xMax="255" yMax="746">
      <contour>
        <pt x="30" y="275" on="1"/>
        <pt x="30" y="321" on="1"/>
        <pt x="54" y="322" on="0"/>
        <pt x="85" y="349" on="0"/>
        <pt x="103" y="389" on="0"/>
        <pt x="109" y="436" on="0"/>
        <pt x="109" y="456" on="1"/>
        <pt x="109" y="628" on="1"/>
        <pt x="109" y="674" on="0"/>
        <pt x="125" y="722" on="0"/>
        <pt x="153" y="743" on="0"/>
        <pt x="188" y="746" on="0"/>
        <pt x="208" y="746" on="1"/>
        <pt x="255" y="746" on="1"/>
        <pt x="255" y="705" on="1"/>
        <pt x="203" y="705" on="1"/>
        <pt x="172" y="705" on="0"/>
        <pt x="151" y="658" on="0"/>
        <pt x="151" y="597" on="1"/>
        <pt x="151" y="455" on="1"/>
        <pt x="151" y="414" on="0"/>
        <pt x="139" y="361" on="0"/>
        <pt x="121" y="326" on="0"/>
        <pt x="98" y="306" on="0"/>
        <pt x="86" y="299" on="1"/>
        <pt x="98" y="292" on="0"/>
        <pt x="121" y="271" on="0"/>
        <pt x="139" y="235" on="0"/>
        <pt x="151" y="182" on="0"/>
        <pt x="151" y="142" on="1"/>
        <pt x="151" y="1" on="1"/>
        <pt x="151" y="-61" on="0"/>
        <pt x="172" y="-108" on="0"/>
        <pt x="203" y="-108" on="1"/>
        <pt x="255" y="-108" on="1"/>
        <pt x="255" y="-148" on="1"/>
        <pt x="208" y="-148" on="1"/>
        <pt x="187" y="-148" on="0"/>
        <pt x="150" y="-145" on="0"/>
        <pt x="124" y="-120" on="0"/>
        <pt x="109" y="-63" on="0"/>
        <pt x="109" y="-9" on="1"/>
        <pt x="109" y="140" on="1"/>
        <pt x="109" y="160" on="0"/>
        <pt x="103" y="207" on="0"/>
        <pt x="85" y="247" on="0"/>
        <pt x="54" y="274" on="0"/>
      </contour>
    </TTGlyph>
    <TTGlyph name="braceright" xMin="65" yMin="-148" xMax="290" yMax="746">
      <contour>
        <pt x="290" y="321" on="1"/>
        <pt x="290" y="275" on="1"/>
        <pt x="261" y="273" on="0"/>
        <pt x="230" y="238" on="0"/>
        <pt x="214" y="189" on="0"/>
        <pt x="211" y="136" on="0"/>
        <pt x="211" y="118" on="1"/>
        <pt x="211" y="-30" on="1"/>
        <pt x="211" y="-77" on="0"/>
        <pt x="195" y="-125" on="0"/>
        <pt x="167" y="-146" on="0"/>
        <pt x="131" y="-148" on="0"/>
        <pt x="112" y="-148" on="1"/>
        <pt x="65" y="-148" on="1"/>
        <pt x="65" y="-108" on="1"/>
        <pt x="117" y="-108" on="1"/>
        <pt x="148" y="-108" on="0"/>
        <pt x="169" y="-61" on="0"/>
        <pt x="169" y="1" on="1"/>
        <pt x="169" y="165" on="1"/>
        <pt x="169" y="197" on="0"/>
        <pt x="182" y="243" on="0"/>
        <pt x="202" y="274" on="0"/>
        <pt x="225" y="293" on="0"/>
        <pt x="234" y="299" on="1"/>
        <pt x="222" y="306" on="0"/>
        <pt x="199" y="326" on="0"/>
        <pt x="181" y="361" on="0"/>
        <pt x="169" y="414" on="0"/>
        <pt x="169" y="455" on="1"/>
        <pt x="169" y="597" on="1"/>
        <pt x="169" y="658" on="0"/>
        <pt x="148" y="705" on="0"/>
        <pt x="117" y="705" on="1"/>
        <pt x="65" y="705" on="1"/>
        <pt x="65" y="746" on="1"/>
        <pt x="112" y="746" on="1"/>
        <pt x="131" y="746" on="0"/>
        <pt x="167" y="744" on="0"/>
        <pt x="194" y="723" on="0"/>
        <pt x="211" y="674" on="0"/>
        <pt x="211" y="628" on="1"/>
        <pt x="211" y="478" on="1"/>
        <pt x="211" y="460" on="0"/>
        <pt x="214" y="407" on="0"/>
        <pt x="230" y="358" on="0"/>
        <pt x="261" y="322" on="0"/>
      </contour>
    </TTGlyph>
    <TTGlyph name="bracketleft" xMin="83" yMin="-149" xMax="258" yMax="746">
      <contour>
        <pt x="83" y="-149" on="1"/>
        <pt x="83" y="746" on="1"/>
        <pt x="258" y="746" on="1"/>
        <pt x="258" y="705" on="1"/>
        <pt x="126" y="705" on="1"/>
        <pt x="126" y="-108" on="1"/>
        <pt x="258" y="-108" on="1"/>
        <pt x="258" y="-149" on="1"/>
      </contour>
    </TTGlyph>
    <TTGlyph name="bracketright" xMin="76" yMin="-149" xMax="251" yMax="746">
      <contour>
        <pt x="251" y="746" on="1"/>
        <pt x="251" y="-149" on="1"/>
        <pt x="76" y="-149" on="1"/>
        <pt x="76" y="-108" on="1"/>
        <pt x="208" y="-108" on="1"/>
        <pt x="208" y="705" on="1"/>
        <pt x="76" y="705" on="1"/>
        <pt x="76" y="746" on="1"/>
      </contour>
    </TTGlyph>
    <TTGlyph name="brokenbar" xMin="89" yMin="-233" xMax="131" yMax="700">
      <contour>
        <pt x="131" y="-233" on="1"/>
        <pt x="89" y="-233" on="1"/>
        <pt x="89" y="117" on="1"/>
        <pt x="131" y="117" on="1"/>
      </contour>
      <contour>
        <pt x="131" y="350" on="1"/>
        <pt x="89" y="350" on="1"/>
        <pt x="89" y="700" on="1"/>
        <pt x="131" y="700" on="1"/>
      </contour>
    </TTGlyph>
    <TTGlyph name="bullet" xMin="150" yMin="211" xMax="330" yMax="391">
      <contour>
        <pt x="150" y="300" on="1"/>
        <pt x="150" y="319" on="0"/>
        <pt x="164" y="352" on="0"/>
        <pt x="188" y="377" on="0"/>
        <pt x="220" y="391" on="0"/>
        <pt x="239" y="391" on="1"/>
        <pt x="277" y="391" on="0"/>
        <pt x="330" y="338" on="0"/>
        <pt x="330" y="300" on="1"/>
        <pt x="330" y="281" on="0"/>
        <pt x="316" y="249" on="0"/>
        <pt x="291" y="225" on="0"/>
        <pt x="258" y="211" on="0"/>
        <pt x="239" y="211" on="1"/>
        <pt x="201" y="211" on="0"/>
        <pt x="150" y="262" on="0"/>
      </contour>
    </TTGlyph>
    <TTGlyph name="c" xMin="36" yMin="-7" xMax="357" yMax="383">
      <contour>
        <pt x="330" y="67" on="1"/>
        <pt x="337" y="59" on="0"/>
        <pt x="350" y="44" on="0"/>
        <pt x="356" y="36" on="1"/>
        <pt x="330" y="16" on="0"/>
        <pt x="268" y="-7" on="0"/>
        <pt x="232" y="-7" on="1"/>
        <pt x="191" y="-7" on="0"/>
        <pt x="120" y="24" on="0"/>
        <pt x="67" y="76" on="0"/>
        <pt x="36" y="147" on="0"/>
        <pt x="36" y="188" on="1"/>
        <pt x="36" y="228" on="0"/>
        <pt x="67" y="300" on="0"/>
        <pt x="120" y="352" on="0"/>
        <pt x="191" y="383" on="0"/>
        <pt x="232" y="383" on="1"/>
        <pt x="268" y="383" on="0"/>
        <pt x="332" y="360" on="0"/>
        <pt x="357" y="340" on="1"/>
        <pt x="350" y="332" on="0"/>
        <pt x="337" y="317" on="0"/>
        <pt x="330" y="309" on="1"/>
        <pt x="310" y="325" on="0"/>
        <pt x="261" y="343" on="0"/>
        <pt x="232" y="343" on="1"/>
        <pt x="199" y="343" on="0"/>
        <pt x="143" y="319" on="0"/>
        <pt x="102" y="277" on="0"/>
        <pt x="78" y="220" on="0"/>
        <pt x="78" y="188" on="1"/>
        <pt x="78" y="156" on="0"/>
        <pt x="102" y="100" on="0"/>
        <pt x="143" y="58" on="0"/>
        <pt x="199" y="34" on="0"/>
        <pt x="232" y="34" on="1"/>
        <pt x="289" y="34" on="0"/>
      </contour>
    </TTGlyph>
    <TTGlyph name="ccedilla" xMin="36" yMin="-234" xMax="357" yMax="383">
      <contour>
        <pt x="330" y="67" on="1"/>
        <pt x="337" y="59" on="0"/>
        <pt x="350" y="44" on="0"/>
        <pt x="356" y="36" on="1"/>
        <pt x="307" y="-4" on="0"/>
        <pt x="238" y="-7" on="1"/>
        <pt x="238" y="-21" on="0"/>
        <pt x="246" y="-38" on="0"/>
        <pt x="259" y="-49" on="0"/>
        <pt x="273" y="-57" on="0"/>
        <pt x="279" y="-61" on="1"/>
        <pt x="302" y="-76" on="0"/>
        <pt x="320" y="-115" on="0"/>
        <pt x="320" y="-133" on="1"/>
        <pt x="320" y="-178" on="0"/>
        <pt x="276" y="-226" on="0"/>
        <pt x="242" y="-231" on="1"/>
        <pt x="224" y="-234" on="0"/>
        <pt x="207" y="-230" on="1"/>
        <pt x="184" y="-226" on="0"/>
        <pt x="146" y="-196" on="0"/>
        <pt x="137" y="-169" on="1"/>
        <pt x="144" y="-166" on="0"/>
        <pt x="158" y="-160" on="0"/>
        <pt x="165" y="-157" on="1"/>
        <pt x="170" y="-176" on="0"/>
        <pt x="202" y="-201" on="0"/>
        <pt x="225" y="-201" on="1"/>
        <pt x="253" y="-201" on="0"/>
        <pt x="287" y="-163" on="0"/>
        <pt x="287" y="-135" on="1"/>
        <pt x="287" y="-110" on="0"/>
        <pt x="263" y="-83" on="0"/>
        <pt x="233" y="-63" on="0"/>
        <pt x="209" y="-42" on="0"/>
        <pt x="209" y="-23" on="1"/>
        <pt x="209" y="-4" on="1"/>
        <pt x="172" y="0" on="0"/>
        <pt x="109" y="32" on="0"/>
        <pt x="62" y="83" on="0"/>
        <pt x="36" y="150" on="0"/>
        <pt x="36" y="188" on="1"/>
        <pt x="36" y="228" on="0"/>
        <pt x="67" y="300" on="0"/>
        <pt x="120" y="352" on="0"/>
        <pt x="191" y="383" on="0"/>
        <pt x="232" y="383" on="1"/>
        <pt x="268" y="383" on="0"/>
        <pt x="332" y="360" on="0"/>
        <pt x="357" y="340" on="1"/>
        <pt x="350" y="332" on="0"/>
        <pt x="337" y="317" on="0"/>
        <pt x="330" y="309" on="1"/>
        <pt x="310" y="325" on="0"/>
        <pt x="261" y="343" on="0"/>
        <pt x="232" y="343" on="1"/>
        <pt x="199" y="343" on="0"/>
        <pt x="143" y="319" on="0"/>
        <pt x="102" y="277" on="0"/>
        <pt x="78" y="220" on="0"/>
        <pt x="78" y="188" on="1"/>
        <pt x="78" y="156" on="0"/>
        <pt x="102" y="100" on="0"/>
        <pt x="143" y="58" on="0"/>
        <pt x="199" y="34" on="0"/>
        <pt x="232" y="34" on="1"/>
        <pt x="289" y="34" on="0"/>
      </contour>
    </TTGlyph>
    <TTGlyph name="cedilla" xMin="117" yMin="-234" xMax="300" yMax="0">
      <contour>
        <pt x="189" y="0" on="1"/>
        <pt x="218" y="0" on="1"/>
        <pt x="218" y="-6" on="1"/>
        <pt x="218" y="-20" on="0"/>
        <pt x="226" y="-37" on="0"/>
        <pt x="239" y="-49" on="0"/>
        <pt x="254" y="-57" on="0"/>
        <pt x="260" y="-61" on="1"/>
        <pt x="282" y="-76" on="0"/>
        <pt x="300" y="-115" on="0"/>
        <pt x="300" y="-133" on="1"/>
        <pt x="300" y="-181" on="0"/>
        <pt x="249" y="-234" on="0"/>
        <pt x="208" y="-234" on="1"/>
        <pt x="179" y="-234" on="0"/>
        <pt x="128" y="-202" on="0"/>
        <pt x="117" y="-169" on="1"/>
        <pt x="124" y="-166" on="0"/>
        <pt x="138" y="-160" on="0"/>
        <pt x="145" y="-157" on="1"/>
        <pt x="150" y="-176" on="0"/>
        <pt x="182" y="-201" on="0"/>
        <pt x="205" y="-201" on="1"/>
        <pt x="233" y="-201" on="0"/>
        <pt x="267" y="-163" on="0"/>
        <pt x="267" y="-135" on="1"/>
        <pt x="267" y="-110" on="0"/>
        <pt x="243" y="-83" on="0"/>
        <pt x="213" y="-63" on="0"/>
        <pt x="189" y="-42" on="0"/>
        <pt x="189" y="-23" on="1"/>
      </contour>
    </TTGlyph>
    <TTGlyph name="cent" xMin="36" yMin="-68" xMax="357" yMax="438">
      <contour>
        <pt x="78" y="188" on="1"/>
        <pt x="78" y="131" on="0"/>
        <pt x="147" y="49" on="0"/>
        <pt x="201" y="39" on="1"/>
        <pt x="201" y="336" on="1"/>
        <pt x="174" y="332" on="0"/>
        <pt x="129" y="306" on="0"/>
        <pt x="96" y="266" on="0"/>
        <pt x="78" y="216" on="0"/>
      </contour>
      <contour>
        <pt x="330" y="67" on="1"/>
        <pt x="337" y="59" on="0"/>
        <pt x="350" y="44" on="0"/>
        <pt x="356" y="36" on="1"/>
        <pt x="308" y="-4" on="0"/>
        <pt x="243" y="-6" on="1"/>
        <pt x="243" y="-68" on="1"/>
        <pt x="201" y="-68" on="1"/>
        <pt x="201" y="-3" on="1"/>
        <pt x="166" y="2" on="0"/>
        <pt x="105" y="36" on="0"/>
        <pt x="61" y="87" on="0"/>
        <pt x="36" y="152" on="0"/>
        <pt x="36" y="188" on="1"/>
        <pt x="36" y="224" on="0"/>
        <pt x="61" y="290" on="0"/>
        <pt x="105" y="341" on="0"/>
        <pt x="166" y="375" on="0"/>
        <pt x="201" y="380" on="1"/>
        <pt x="201" y="438" on="1"/>
        <pt x="243" y="438" on="1"/>
        <pt x="243" y="383" on="1"/>
        <pt x="275" y="381" on="0"/>
        <pt x="334" y="359" on="0"/>
        <pt x="357" y="340" on="1"/>
        <pt x="350" y="332" on="0"/>
        <pt x="337" y="317" on="0"/>
        <pt x="330" y="309" on="1"/>
        <pt x="312" y="323" on="0"/>
        <pt x="267" y="340" on="0"/>
        <pt x="243" y="341" on="1"/>
        <pt x="243" y="34" on="1"/>
        <pt x="292" y="37" on="0"/>
      </contour>
    </TTGlyph>
    <TTGlyph name="colon" xMin="52" yMin="0" xMax="117" yMax="316">
      <contour>
        <pt x="52" y="283" on="1"/>
        <pt x="52" y="297" on="0"/>
        <pt x="72" y="316" on="0"/>
        <pt x="85" y="316" on="1"/>
        <pt x="98" y="316" on="0"/>
        <pt x="117" y="297" on="0"/>
        <pt x="117" y="283" on="1"/>
        <pt x="117" y="269" on="0"/>
        <pt x="98" y="250" on="0"/>
        <pt x="85" y="250" on="1"/>
        <pt x="72" y="250" on="0"/>
        <pt x="52" y="269" on="0"/>
      </contour>
      <contour>
        <pt x="52" y="33" on="1"/>
        <pt x="52" y="47" on="0"/>
        <pt x="72" y="66" on="0"/>
        <pt x="85" y="66" on="1"/>
        <pt x="98" y="66" on="0"/>
        <pt x="117" y="47" on="0"/>
        <pt x="117" y="33" on="1"/>
        <pt x="117" y="19" on="0"/>
        <pt x="98" y="0" on="0"/>
        <pt x="85" y="0" on="1"/>
        <pt x="72" y="0" on="0"/>
        <pt x="52" y="19" on="0"/>
      </contour>
    </TTGlyph>
    <TTGlyph name="comma" xMin="17" yMin="-120" xMax="141" yMax="86">
      <contour>
        <pt x="141" y="86" on="1"/>
        <pt x="119" y="34" on="0"/>
        <pt x="77" y="-68" on="0"/>
        <pt x="55" y="-120" on="1"/>
        <pt x="17" y="-120" on="1"/>
        <pt x="37" y="-68" on="0"/>
        <pt x="74" y="34" on="0"/>
        <pt x="94" y="86" on="1"/>
      </contour>
    </TTGlyph>
    <TTGlyph name="copyright" xMin="142" yMin="115" xMax="658" yMax="630">
      <contour>
        <pt x="399" y="138" on="1"/>
        <pt x="448" y="138" on="0"/>
        <pt x="534" y="173" on="0"/>
        <pt x="597" y="236" on="0"/>
        <pt x="634" y="321" on="0"/>
        <pt x="634" y="371" on="1"/>
        <pt x="634" y="422" on="0"/>
        <pt x="597" y="508" on="0"/>
        <pt x="534" y="571" on="0"/>
        <pt x="448" y="607" on="0"/>
        <pt x="399" y="607" on="1"/>
        <pt x="351" y="607" on="0"/>
        <pt x="266" y="571" on="0"/>
        <pt x="203" y="508" on="0"/>
        <pt x="166" y="422" on="0"/>
        <pt x="166" y="371" on="1"/>
        <pt x="166" y="321" on="0"/>
        <pt x="203" y="236" on="0"/>
        <pt x="266" y="173" on="0"/>
        <pt x="351" y="138" on="0"/>
      </contour>
      <contour>
        <pt x="400" y="115" on="1"/>
        <pt x="346" y="115" on="0"/>
        <pt x="252" y="154" on="0"/>
        <pt x="182" y="223" on="0"/>
        <pt x="142" y="317" on="0"/>
        <pt x="142" y="372" on="1"/>
        <pt x="142" y="428" on="0"/>
        <pt x="182" y="522" on="0"/>
        <pt x="252" y="591" on="0"/>
        <pt x="346" y="630" on="0"/>
        <pt x="400" y="630" on="1"/>
        <pt x="454" y="630" on="0"/>
        <pt x="548" y="591" on="0"/>
        <pt x="618" y="522" on="0"/>
        <pt x="658" y="428" on="0"/>
        <pt x="658" y="372" on="1"/>
        <pt x="658" y="317" on="0"/>
        <pt x="618" y="223" on="0"/>
        <pt x="548" y="154" on="0"/>
        <pt x="454" y="115" on="0"/>
      </contour>
      <contour>
        <pt x="477" y="251" on="1"/>
        <pt x="488" y="236" on="1"/>
        <pt x="470" y="225" on="0"/>
        <pt x="428" y="213" on="0"/>
        <pt x="405" y="213" on="1"/>
        <pt x="372" y="213" on="0"/>
        <pt x="313" y="239" on="0"/>
        <pt x="269" y="283" on="0"/>
        <pt x="244" y="342" on="0"/>
        <pt x="244" y="375" on="1"/>
        <pt x="244" y="409" on="0"/>
        <pt x="269" y="468" on="0"/>
        <pt x="313" y="512" on="0"/>
        <pt x="372" y="537" on="0"/>
        <pt x="405" y="537" on="1"/>
        <pt x="450" y="537" on="0"/>
        <pt x="488" y="515" on="1"/>
        <pt x="485" y="511" on="0"/>
        <pt x="480" y="503" on="0"/>
        <pt x="478" y="499" on="1"/>
        <pt x="444" y="519" on="0"/>
        <pt x="405" y="519" on="1"/>
        <pt x="376" y="519" on="0"/>
        <pt x="324" y="496" on="0"/>
        <pt x="285" y="457" on="0"/>
        <pt x="263" y="404" on="0"/>
        <pt x="263" y="374" on="1"/>
        <pt x="263" y="345" on="0"/>
        <pt x="285" y="293" on="0"/>
        <pt x="324" y="254" on="0"/>
        <pt x="375" y="231" on="0"/>
        <pt x="404" y="231" on="1"/>
        <pt x="424" y="231" on="0"/>
        <pt x="460" y="242" on="0"/>
      </contour>
    </TTGlyph>
    <TTGlyph name="currency" xMin="99" yMin="210" xMax="395" yMax="506">
      <contour>
        <pt x="146" y="361" on="1"/>
        <pt x="146" y="340" on="0"/>
        <pt x="162" y="302" on="0"/>
        <pt x="190" y="274" on="0"/>
        <pt x="226" y="258" on="0"/>
        <pt x="247" y="258" on="1"/>
        <pt x="268" y="258" on="0"/>
        <pt x="306" y="274" on="0"/>
        <pt x="333" y="302" on="0"/>
        <pt x="349" y="340" on="0"/>
        <pt x="349" y="361" on="1"/>
        <pt x="349" y="382" on="0"/>
        <pt x="333" y="419" on="0"/>
        <pt x="306" y="447" on="0"/>
        <pt x="268" y="463" on="0"/>
        <pt x="247" y="463" on="1"/>
        <pt x="226" y="463" on="0"/>
        <pt x="190" y="447" on="0"/>
        <pt x="162" y="419" on="0"/>
        <pt x="146" y="382" on="0"/>
      </contour>
      <contour>
        <pt x="104" y="361" on="1"/>
        <pt x="104" y="384" on="0"/>
        <pt x="118" y="427" on="0"/>
        <pt x="131" y="444" on="1"/>
        <pt x="123" y="452" on="0"/>
        <pt x="107" y="469" on="0"/>
        <pt x="99" y="477" on="1"/>
        <pt x="129" y="506" on="1"/>
        <pt x="161" y="474" on="1"/>
        <pt x="179" y="488" on="0"/>
        <pt x="222" y="504" on="0"/>
        <pt x="247" y="504" on="1"/>
        <pt x="272" y="504" on="0"/>
        <pt x="316" y="487" on="0"/>
        <pt x="333" y="473" on="1"/>
        <pt x="365" y="506" on="1"/>
        <pt x="395" y="476" on="1"/>
        <pt x="363" y="445" on="1"/>
        <pt x="391" y="408" on="0"/>
        <pt x="391" y="361" on="1"/>
        <pt x="391" y="313" on="0"/>
        <pt x="361" y="275" on="1"/>
        <pt x="395" y="240" on="1"/>
        <pt x="366" y="211" on="1"/>
        <pt x="357" y="219" on="0"/>
        <pt x="340" y="237" on="0"/>
        <pt x="331" y="245" on="1"/>
        <pt x="314" y="232" on="0"/>
        <pt x="270" y="218" on="0"/>
        <pt x="247" y="218" on="1"/>
        <pt x="224" y="218" on="0"/>
        <pt x="181" y="232" on="0"/>
        <pt x="164" y="244" on="1"/>
        <pt x="129" y="210" on="1"/>
        <pt x="99" y="239" on="1"/>
        <pt x="134" y="274" on="1"/>
        <pt x="104" y="312" on="0"/>
      </contour>
    </TTGlyph>
    <TTGlyph name="d" xMin="53" yMin="-7" xMax="446" yMax="750">
      <contour>
        <pt x="95" y="188" on="1"/>
        <pt x="95" y="156" on="0"/>
        <pt x="119" y="100" on="0"/>
        <pt x="160" y="58" on="0"/>
        <pt x="216" y="34" on="0"/>
        <pt x="249" y="34" on="1"/>
        <pt x="282" y="34" on="0"/>
        <pt x="339" y="58" on="0"/>
        <pt x="381" y="100" on="0"/>
        <pt x="405" y="156" on="0"/>
        <pt x="405" y="188" on="1"/>
        <pt x="405" y="220" on="0"/>
        <pt x="381" y="277" on="0"/>
        <pt x="339" y="319" on="0"/>
        <pt x="282" y="343" on="0"/>
        <pt x="249" y="343" on="1"/>
        <pt x="216" y="343" on="0"/>
        <pt x="160" y="319" on="0"/>
        <pt x="119" y="277" on="0"/>
        <pt x="95" y="220" on="0"/>
      </contour>
      <contour>
        <pt x="53" y="188" on="1"/>
        <pt x="53" y="228" on="0"/>
        <pt x="83" y="299" on="0"/>
        <pt x="136" y="352" on="0"/>
        <pt x="208" y="383" on="0"/>
        <pt x="249" y="383" on="1"/>
        <pt x="279" y="383" on="0"/>
        <pt x="331" y="366" on="0"/>
        <pt x="373" y="339" on="0"/>
        <pt x="403" y="305" on="0"/>
        <pt x="409" y="288" on="1"/>
        <pt x="408" y="299" on="0"/>
        <pt x="406" y="322" on="0"/>
        <pt x="405" y="333" on="1"/>
        <pt x="405" y="750" on="1"/>
        <pt x="446" y="750" on="1"/>
        <pt x="446" y="0" on="1"/>
        <pt x="409" y="0" on="1"/>
        <pt x="409" y="45" on="1"/>
        <pt x="409" y="87" on="1"/>
        <pt x="403" y="70" on="0"/>
        <pt x="374" y="36" on="0"/>
        <pt x="333" y="9" on="0"/>
        <pt x="280" y="-7" on="0"/>
        <pt x="249" y="-7" on="1"/>
        <pt x="208" y="-7" on="0"/>
        <pt x="136" y="24" on="0"/>
        <pt x="83" y="76" on="0"/>
        <pt x="53" y="147" on="0"/>
      </contour>
    </TTGlyph>
    <TTGlyph name="degree" xMin="51" yMin="474" xMax="224" yMax="646">
      <contour>
        <pt x="138" y="503" on="1"/>
        <pt x="161" y="503" on="0"/>
        <pt x="195" y="536" on="0"/>
        <pt x="195" y="560" on="1"/>
        <pt x="195" y="583" on="0"/>
        <pt x="161" y="616" on="0"/>
        <pt x="138" y="616" on="1"/>
        <pt x="114" y="616" on="0"/>
        <pt x="81" y="583" on="0"/>
        <pt x="81" y="560" on="1"/>
        <pt x="81" y="536" on="0"/>
        <pt x="114" y="503" on="0"/>
      </contour>
      <contour>
        <pt x="51" y="559" on="1"/>
        <pt x="51" y="596" on="0"/>
        <pt x="101" y="646" on="0"/>
        <pt x="138" y="646" on="1"/>
        <pt x="174" y="646" on="0"/>
        <pt x="224" y="596" on="0"/>
        <pt x="224" y="559" on="1"/>
        <pt x="224" y="523" on="0"/>
        <pt x="174" y="474" on="0"/>
        <pt x="138" y="474" on="1"/>
        <pt x="101" y="474" on="0"/>
        <pt x="51" y="523" on="0"/>
      </contour>
    </TTGlyph>
    <TTGlyph name="dieresis" xMin="69" yMin="475" xMax="299" yMax="541">
      <contour>
        <pt x="234" y="508" on="1"/>
        <pt x="234" y="522" on="0"/>
        <pt x="254" y="541" on="0"/>
        <pt x="267" y="541" on="1"/>
        <pt x="280" y="541" on="0"/>
        <pt x="299" y="522" on="0"/>
        <pt x="299" y="508" on="1"/>
        <pt x="299" y="494" on="0"/>
        <pt x="280" y="475" on="0"/>
        <pt x="267" y="475" on="1"/>
        <pt x="254" y="475" on="0"/>
        <pt x="234" y="494" on="0"/>
      </contour>
      <contour>
        <pt x="69" y="508" on="1"/>
        <pt x="69" y="522" on="0"/>
        <pt x="89" y="541" on="0"/>
        <pt x="102" y="541" on="1"/>
        <pt x="114" y="541" on="0"/>
        <pt x="134" y="522" on="0"/>
        <pt x="134" y="508" on="1"/>
        <pt x="134" y="494" on="0"/>
        <pt x="114" y="475" on="0"/>
        <pt x="102" y="475" on="1"/>
        <pt x="89" y="475" on="0"/>
        <pt x="69" y="494" on="0"/>
      </contour>
    </TTGlyph>
    <TTGlyph name="divide" xMin="68" yMin="71" xMax="428" yMax="387">
      <contour>
        <pt x="428" y="208" on="1"/>
        <pt x="68" y="208" on="1"/>
        <pt x="68" y="249" on="1"/>
        <pt x="428" y="249" on="1"/>
      </contour>
      <contour>
        <pt x="218" y="354" on="1"/>
        <pt x="218" y="368" on="0"/>
        <pt x="238" y="387" on="0"/>
        <pt x="251" y="387" on="1"/>
        <pt x="264" y="387" on="0"/>
        <pt x="283" y="368" on="0"/>
        <pt x="283" y="354" on="1"/>
        <pt x="283" y="340" on="0"/>
        <pt x="264" y="321" on="0"/>
        <pt x="251" y="321" on="1"/>
        <pt x="238" y="321" on="0"/>
        <pt x="218" y="340" on="0"/>
      </contour>
      <contour>
        <pt x="218" y="104" on="1"/>
        <pt x="218" y="118" on="0"/>
        <pt x="238" y="137" on="0"/>
        <pt x="251" y="137" on="1"/>
        <pt x="264" y="137" on="0"/>
        <pt x="283" y="118" on="0"/>
        <pt x="283" y="104" on="1"/>
        <pt x="283" y="90" on="0"/>
        <pt x="264" y="71" on="0"/>
        <pt x="251" y="71" on="1"/>
        <pt x="238" y="71" on="0"/>
        <pt x="218" y="90" on="0"/>
      </contour>
    </TTGlyph>
    <TTGlyph name="dollar" xMin="66" yMin="-68" xMax="484" yMax="764">
      <contour>
        <pt x="131" y="524" on="1"/>
        <pt x="131" y="473" on="0"/>
        <pt x="186" y="422" on="0"/>
        <pt x="233" y="406" on="1"/>
        <pt x="242" y="400" on="0"/>
        <pt x="251" y="399" on="1"/>
        <pt x="251" y="662" on="1"/>
        <pt x="221" y="659" on="0"/>
        <pt x="176" y="634" on="0"/>
        <pt x="146" y="596" on="0"/>
        <pt x="131" y="549" on="0"/>
      </contour>
      <contour>
        <pt x="442" y="184" on="1"/>
        <pt x="442" y="220" on="0"/>
        <pt x="416" y="271" on="0"/>
        <pt x="373" y="306" on="0"/>
        <pt x="320" y="330" on="0"/>
        <pt x="293" y="339" on="1"/>
        <pt x="293" y="35" on="1"/>
        <pt x="323" y="38" on="0"/>
        <pt x="377" y="61" on="0"/>
        <pt x="418" y="99" on="0"/>
        <pt x="442" y="152" on="0"/>
      </contour>
      <contour>
        <pt x="432" y="641" on="1"/>
        <pt x="425" y="633" on="0"/>
        <pt x="414" y="617" on="0"/>
        <pt x="408" y="609" on="1"/>
        <pt x="392" y="623" on="0"/>
        <pt x="334" y="657" on="0"/>
        <pt x="293" y="662" on="1"/>
        <pt x="293" y="383" on="1"/>
        <pt x="324" y="372" on="0"/>
        <pt x="392" y="343" on="0"/>
        <pt x="448" y="298" on="0"/>
        <pt x="484" y="233" on="0"/>
        <pt x="484" y="186" on="1"/>
        <pt x="484" y="144" on="0"/>
        <pt x="454" y="76" on="0"/>
        <pt x="402" y="26" on="0"/>
        <pt x="333" y="-4" on="0"/>
        <pt x="293" y="-7" on="1"/>
        <pt x="293" y="-68" on="1"/>
        <pt x="251" y="-68" on="1"/>
        <pt x="251" y="-6" on="1"/>
        <pt x="216" y="-3" on="0"/>
        <pt x="157" y="18" on="0"/>
        <pt x="110" y="46" on="0"/>
        <pt x="76" y="77" on="0"/>
        <pt x="66" y="89" on="1"/>
        <pt x="94" y="117" on="1"/>
        <pt x="107" y="104" on="0"/>
        <pt x="139" y="76" on="0"/>
        <pt x="178" y="52" on="0"/>
        <pt x="224" y="35" on="0"/>
        <pt x="251" y="33" on="1"/>
        <pt x="251" y="354" on="1"/>
        <pt x="247" y="356" on="0"/>
        <pt x="237" y="360" on="1"/>
        <pt x="218" y="366" on="0"/>
        <pt x="168" y="387" on="0"/>
        <pt x="123" y="423" on="0"/>
        <pt x="91" y="478" on="0"/>
        <pt x="90" y="517" on="1"/>
        <pt x="88" y="548" on="0"/>
        <pt x="105" y="612" on="0"/>
        <pt x="144" y="664" on="0"/>
        <pt x="207" y="700" on="0"/>
        <pt x="251" y="703" on="1"/>
        <pt x="251" y="764" on="1"/>
        <pt x="293" y="764" on="1"/>
        <pt x="293" y="702" on="1"/>
        <pt x="327" y="700" on="0"/>
        <pt x="396" y="672" on="0"/>
      </contour>
    </TTGlyph>
    <TTGlyph name="e" xMin="36" yMin="-7" xMax="404" yMax="383">
      <contour>
        <pt x="232" y="343" on="1"/>
        <pt x="202" y="343" on="0"/>
        <pt x="148" y="322" on="0"/>
        <pt x="108" y="284" on="0"/>
        <pt x="83" y="234" on="0"/>
        <pt x="80" y="205" on="1"/>
        <pt x="79" y="193" on="0"/>
        <pt x="80" y="170" on="0"/>
        <pt x="82" y="159" on="1"/>
        <pt x="149" y="186" on="0"/>
        <pt x="283" y="239" on="0"/>
        <pt x="351" y="266" on="1"/>
        <pt x="334" y="300" on="0"/>
        <pt x="270" y="343" on="0"/>
      </contour>
      <contour>
        <pt x="404" y="243" on="1"/>
        <pt x="326" y="212" on="0"/>
        <pt x="172" y="151" on="0"/>
        <pt x="94" y="120" on="1"/>
        <pt x="111" y="82" on="0"/>
        <pt x="185" y="34" on="0"/>
        <pt x="232" y="34" on="1"/>
        <pt x="263" y="34" on="0"/>
        <pt x="317" y="56" on="0"/>
        <pt x="337" y="76" on="1"/>
        <pt x="344" y="68" on="0"/>
        <pt x="356" y="53" on="0"/>
        <pt x="363" y="45" on="1"/>
        <pt x="337" y="21" on="0"/>
        <pt x="271" y="-7" on="0"/>
        <pt x="232" y="-7" on="1"/>
        <pt x="191" y="-7" on="0"/>
        <pt x="120" y="24" on="0"/>
        <pt x="67" y="76" on="0"/>
        <pt x="36" y="147" on="0"/>
        <pt x="36" y="188" on="1"/>
        <pt x="36" y="228" on="0"/>
        <pt x="67" y="300" on="0"/>
        <pt x="120" y="352" on="0"/>
        <pt x="191" y="383" on="0"/>
        <pt x="232" y="383" on="1"/>
        <pt x="262" y="383" on="0"/>
        <pt x="316" y="362" on="0"/>
        <pt x="361" y="325" on="0"/>
        <pt x="395" y="274" on="0"/>
      </contour>
    </TTGlyph>
    <TTGlyph name="eacute" xMin="36" yMin="-7" xMax="404" yMax="612">
      <component glyphName="e" x="0" y="0" flags="0x204"/>
      <component glyphName="acute" x="127" y="0" flags="0x4"/>
    </TTGlyph>
    <TTGlyph name="ecircumflex" xMin="36" yMin="-7" xMax="404" yMax="660">
      <component glyphName="e" x="0" y="0" flags="0x204"/>
      <component glyphName="asciicircum" x="0" y="0" flags="0x4"/>
    </TTGlyph>
    <TTGlyph name="edieresis" xMin="36" yMin="-7" xMax="404" yMax="541">
      <component glyphName="e" x="0" y="0" flags="0x204"/>
      <component glyphName="dieresis" x="45" y="0" flags="0x4"/>
    </TTGlyph>
    <TTGlyph name="egrave" xMin="36" yMin="-7" xMax="404" yMax="612">
      <component glyphName="e" x="0" y="0" flags="0x204"/>
      <component glyphName="grave" x="128" y="0" flags="0x4"/>
    </TTGlyph>
    <TTGlyph name="eight" xMin="46" yMin="-8" xMax="465" yMax="658">
      <contour>
        <pt x="145" y="506" on="1"/>
        <pt x="145" y="485" on="0"/>
        <pt x="162" y="448" on="0"/>
        <pt x="192" y="422" on="0"/>
        <pt x="231" y="407" on="0"/>
        <pt x="254" y="407" on="1"/>
        <pt x="300" y="407" on="0"/>
        <pt x="361" y="463" on="0"/>
        <pt x="361" y="506" on="1"/>
        <pt x="361" y="528" on="0"/>
        <pt x="345" y="568" on="0"/>
        <pt x="316" y="599" on="0"/>
        <pt x="277" y="617" on="0"/>
        <pt x="254" y="617" on="1"/>
        <pt x="231" y="617" on="0"/>
        <pt x="192" y="599" on="0"/>
        <pt x="162" y="568" on="0"/>
        <pt x="145" y="528" on="0"/>
      </contour>
      <contour>
        <pt x="89" y="201" on="1"/>
        <pt x="89" y="167" on="0"/>
        <pt x="114" y="106" on="0"/>
        <pt x="159" y="59" on="0"/>
        <pt x="218" y="32" on="0"/>
        <pt x="253" y="32" on="1"/>
        <pt x="288" y="32" on="0"/>
        <pt x="350" y="59" on="0"/>
        <pt x="396" y="106" on="0"/>
        <pt x="423" y="167" on="0"/>
        <pt x="423" y="201" on="1"/>
        <pt x="423" y="235" on="0"/>
        <pt x="396" y="294" on="0"/>
        <pt x="351" y="339" on="0"/>
        <pt x="289" y="366" on="0"/>
        <pt x="255" y="366" on="1"/>
        <pt x="220" y="366" on="0"/>
        <pt x="159" y="340" on="0"/>
        <pt x="114" y="295" on="0"/>
        <pt x="89" y="235" on="0"/>
      </contour>
      <contour>
        <pt x="46" y="201" on="1"/>
        <pt x="46" y="267" on="0"/>
        <pt x="120" y="368" on="0"/>
        <pt x="178" y="390" on="1"/>
        <pt x="144" y="406" on="0"/>
        <pt x="103" y="470" on="0"/>
        <pt x="103" y="510" on="1"/>
        <pt x="103" y="540" on="0"/>
        <pt x="126" y="594" on="0"/>
        <pt x="167" y="635" on="0"/>
        <pt x="221" y="658" on="0"/>
        <pt x="252" y="658" on="1"/>
        <pt x="283" y="658" on="0"/>
        <pt x="339" y="634" on="0"/>
        <pt x="379" y="593" on="0"/>
        <pt x="403" y="539" on="0"/>
        <pt x="403" y="508" on="1"/>
        <pt x="403" y="469" on="0"/>
        <pt x="362" y="407" on="0"/>
        <pt x="330" y="390" on="1"/>
        <pt x="359" y="379" on="0"/>
        <pt x="409" y="342" on="0"/>
        <pt x="445" y="293" on="0"/>
        <pt x="465" y="234" on="0"/>
        <pt x="465" y="201" on="1"/>
        <pt x="465" y="158" on="0"/>
        <pt x="431" y="82" on="0"/>
        <pt x="374" y="25" on="0"/>
        <pt x="297" y="-8" on="0"/>
        <pt x="254" y="-8" on="1"/>
        <pt x="211" y="-8" on="0"/>
        <pt x="136" y="25" on="0"/>
        <pt x="79" y="82" on="0"/>
        <pt x="46" y="158" on="0"/>
      </contour>
    </TTGlyph>
    <TTGlyph name="emdash" xMin="99" yMin="177" xMax="601" yMax="218">
      <contour>
        <pt x="99" y="177" on="1"/>
        <pt x="99" y="218" on="1"/>
        <pt x="601" y="218" on="1"/>
        <pt x="601" y="177" on="1"/>
      </contour>
    </TTGlyph>
    <TTGlyph name="endash" xMin="100" yMin="177" xMax="401" yMax="218">
      <contour>
        <pt x="100" y="177" on="1"/>
        <pt x="100" y="218" on="1"/>
        <pt x="401" y="218" on="1"/>
        <pt x="401" y="177" on="1"/>
      </contour>
    </TTGlyph>
    <TTGlyph name="equal" xMin="100" yMin="135" xMax="606" yMax="370">
      <contour>
        <pt x="606" y="176" on="1"/>
        <pt x="606" y="135" on="1"/>
        <pt x="100" y="135" on="1"/>
        <pt x="100" y="176" on="1"/>
      </contour>
      <contour>
        <pt x="606" y="370" on="1"/>
        <pt x="606" y="329" on="1"/>
        <pt x="100" y="329" on="1"/>
        <pt x="100" y="370" on="1"/>
      </contour>
    </TTGlyph>
    <TTGlyph name="eth" xMin="52" yMin="-6" xMax="446" yMax="731">
      <contour>
        <pt x="94" y="188" on="1"/>
        <pt x="94" y="156" on="0"/>
        <pt x="118" y="100" on="0"/>
        <pt x="160" y="58" on="0"/>
        <pt x="217" y="35" on="0"/>
        <pt x="250" y="35" on="1"/>
        <pt x="283" y="35" on="0"/>
        <pt x="340" y="60" on="0"/>
        <pt x="381" y="102" on="0"/>
        <pt x="404" y="158" on="0"/>
        <pt x="404" y="190" on="1"/>
        <pt x="404" y="223" on="0"/>
        <pt x="379" y="279" on="0"/>
        <pt x="337" y="321" on="0"/>
        <pt x="281" y="344" on="0"/>
        <pt x="248" y="344" on="1"/>
        <pt x="215" y="344" on="0"/>
        <pt x="158" y="319" on="0"/>
        <pt x="117" y="277" on="0"/>
        <pt x="94" y="220" on="0"/>
      </contour>
      <contour>
        <pt x="140" y="541" on="1"/>
        <pt x="157" y="559" on="0"/>
        <pt x="191" y="596" on="0"/>
        <pt x="208" y="614" on="1"/>
        <pt x="163" y="664" on="0"/>
        <pt x="115" y="703" on="1"/>
        <pt x="143" y="731" on="1"/>
        <pt x="191" y="693" on="0"/>
        <pt x="236" y="644" on="1"/>
        <pt x="251" y="661" on="0"/>
        <pt x="282" y="693" on="0"/>
        <pt x="296" y="710" on="1"/>
        <pt x="304" y="704" on="0"/>
        <pt x="317" y="692" on="0"/>
        <pt x="324" y="686" on="1"/>
        <pt x="308" y="668" on="0"/>
        <pt x="277" y="633" on="0"/>
        <pt x="260" y="615" on="1"/>
        <pt x="297" y="570" on="0"/>
        <pt x="365" y="465" on="0"/>
        <pt x="416" y="355" on="0"/>
        <pt x="446" y="244" on="0"/>
        <pt x="446" y="192" on="1"/>
        <pt x="446" y="151" on="0"/>
        <pt x="416" y="80" on="0"/>
        <pt x="364" y="26" on="0"/>
        <pt x="292" y="-5" on="0"/>
        <pt x="251" y="-6" on="1"/>
        <pt x="210" y="-6" on="0"/>
        <pt x="138" y="23" on="0"/>
        <pt x="84" y="76" on="0"/>
        <pt x="53" y="146" on="0"/>
        <pt x="52" y="187" on="1"/>
        <pt x="52" y="227" on="0"/>
        <pt x="81" y="299" on="0"/>
        <pt x="134" y="352" on="0"/>
        <pt x="205" y="384" on="0"/>
        <pt x="246" y="384" on="1"/>
        <pt x="284" y="385" on="0"/>
        <pt x="348" y="354" on="0"/>
        <pt x="370" y="328" on="1"/>
        <pt x="357" y="378" on="0"/>
        <pt x="291" y="511" on="0"/>
        <pt x="231" y="583" on="1"/>
        <pt x="215" y="566" on="0"/>
        <pt x="184" y="532" on="0"/>
        <pt x="168" y="515" on="1"/>
        <pt x="161" y="522" on="0"/>
        <pt x="147" y="534" on="0"/>
      </contour>
    </TTGlyph>
    <TTGlyph name="exclam" xMin="68" yMin="22" xMax="132" yMax="750">
      <contour>
        <pt x="100" y="22" on="1"/>
        <pt x="88" y="22" on="0"/>
        <pt x="68" y="41" on="0"/>
        <pt x="68" y="55" on="1"/>
        <pt x="68" y="69" on="0"/>
        <pt x="88" y="88" on="0"/>
        <pt x="100" y="88" on="1"/>
        <pt x="112" y="88" on="0"/>
        <pt x="132" y="69" on="0"/>
        <pt x="132" y="55" on="1"/>
        <pt x="132" y="41" on="0"/>
        <pt x="112" y="22" on="0"/>
        <pt x="100" y="22" on="1"/>
      </contour>
      <contour>
        <pt x="79" y="750" on="1"/>
        <pt x="121" y="750" on="1"/>
        <pt x="121" y="166" on="1"/>
        <pt x="79" y="166" on="1"/>
      </contour>
    </TTGlyph>
    <TTGlyph name="exclamdown" xMin="68" yMin="-210" xMax="132" yMax="518">
      <component glyphName="exclam" x="0" y="540" scalex="1.0" scaley="-0.999938964844" flags="0x4"/>
    </TTGlyph>
    <TTGlyph name="f" xMin="22" yMin="0" xMax="294" yMax="750">
      <contour>
        <pt x="22" y="336" on="1"/>
        <pt x="22" y="377" on="1"/>
        <pt x="87" y="377" on="1"/>
        <pt x="87" y="518" on="1"/>
        <pt x="87" y="573" on="0"/>
        <pt x="119" y="659" on="0"/>
        <pt x="175" y="717" on="0"/>
        <pt x="251" y="748" on="0"/>
        <pt x="294" y="750" on="1"/>
        <pt x="294" y="710" on="1"/>
        <pt x="260" y="709" on="0"/>
        <pt x="199" y="683" on="0"/>
        <pt x="154" y="633" on="0"/>
        <pt x="128" y="563" on="0"/>
        <pt x="128" y="519" on="1"/>
        <pt x="128" y="377" on="1"/>
        <pt x="253" y="377" on="1"/>
        <pt x="253" y="336" on="1"/>
        <pt x="128" y="336" on="1"/>
        <pt x="128" y="0" on="1"/>
        <pt x="87" y="0" on="1"/>
        <pt x="87" y="336" on="1"/>
      </contour>
    </TTGlyph>
    <TTGlyph name="five" xMin="110" yMin="-8" xMax="465" yMax="650">
      <contour>
        <pt x="143" y="321" on="1"/>
        <pt x="143" y="650" on="1"/>
        <pt x="430" y="650" on="1"/>
        <pt x="430" y="609" on="1"/>
        <pt x="185" y="609" on="1"/>
        <pt x="185" y="392" on="1"/>
        <pt x="201" y="399" on="0"/>
        <pt x="236" y="407" on="0"/>
        <pt x="254" y="407" on="1"/>
        <pt x="297" y="407" on="0"/>
        <pt x="374" y="375" on="0"/>
        <pt x="431" y="319" on="0"/>
        <pt x="465" y="244" on="0"/>
        <pt x="465" y="201" on="1"/>
        <pt x="465" y="158" on="0"/>
        <pt x="431" y="82" on="0"/>
        <pt x="374" y="25" on="0"/>
        <pt x="297" y="-8" on="0"/>
        <pt x="254" y="-8" on="1"/>
        <pt x="212" y="-8" on="0"/>
        <pt x="139" y="23" on="0"/>
        <pt x="110" y="50" on="1"/>
        <pt x="118" y="57" on="0"/>
        <pt x="133" y="71" on="0"/>
        <pt x="141" y="78" on="1"/>
        <pt x="163" y="57" on="0"/>
        <pt x="220" y="33" on="0"/>
        <pt x="253" y="33" on="1"/>
        <pt x="288" y="33" on="0"/>
        <pt x="350" y="60" on="0"/>
        <pt x="396" y="106" on="0"/>
        <pt x="423" y="167" on="0"/>
        <pt x="423" y="201" on="1"/>
        <pt x="423" y="235" on="0"/>
        <pt x="396" y="295" on="0"/>
        <pt x="350" y="340" on="0"/>
        <pt x="288" y="366" on="0"/>
        <pt x="253" y="366" on="1"/>
        <pt x="218" y="366" on="0"/>
        <pt x="160" y="342" on="0"/>
      </contour>
    </TTGlyph>
    <TTGlyph name="four" xMin="37" yMin="0" xMax="500" yMax="658">
      <contour>
        <pt x="361" y="535" on="1"/>
        <pt x="301" y="457" on="0"/>
        <pt x="182" y="302" on="0"/>
        <pt x="122" y="224" on="1"/>
        <pt x="361" y="224" on="1"/>
      </contour>
      <contour>
        <pt x="37" y="183" on="1"/>
        <pt x="129" y="302" on="0"/>
        <pt x="311" y="539" on="0"/>
        <pt x="403" y="658" on="1"/>
        <pt x="403" y="224" on="1"/>
        <pt x="500" y="224" on="1"/>
        <pt x="500" y="183" on="1"/>
        <pt x="403" y="183" on="1"/>
        <pt x="403" y="0" on="1"/>
        <pt x="361" y="0" on="1"/>
        <pt x="361" y="183" on="1"/>
      </contour>
    </TTGlyph>
    <TTGlyph name="g" xMin="49" yMin="-250" xMax="443" yMax="383">
      <contour>
        <pt x="91" y="188" on="1"/>
        <pt x="91" y="156" on="0"/>
        <pt x="115" y="100" on="0"/>
        <pt x="156" y="58" on="0"/>
        <pt x="213" y="34" on="0"/>
        <pt x="246" y="34" on="1"/>
        <pt x="279" y="34" on="0"/>
        <pt x="335" y="58" on="0"/>
        <pt x="377" y="100" on="0"/>
        <pt x="401" y="156" on="0"/>
        <pt x="401" y="188" on="1"/>
        <pt x="401" y="220" on="0"/>
        <pt x="377" y="277" on="0"/>
        <pt x="335" y="319" on="0"/>
        <pt x="279" y="343" on="0"/>
        <pt x="246" y="343" on="1"/>
        <pt x="213" y="343" on="0"/>
        <pt x="156" y="319" on="0"/>
        <pt x="115" y="277" on="0"/>
        <pt x="91" y="220" on="0"/>
      </contour>
      <contour>
        <pt x="409" y="375" on="1"/>
        <pt x="443" y="375" on="1"/>
        <pt x="443" y="-17" on="1"/>
        <pt x="443" y="-35" on="1"/>
        <pt x="443" y="-84" on="0"/>
        <pt x="413" y="-163" on="0"/>
        <pt x="361" y="-219" on="0"/>
        <pt x="292" y="-249" on="0"/>
        <pt x="252" y="-250" on="1"/>
        <pt x="210" y="-249" on="0"/>
        <pt x="125" y="-219" on="0"/>
        <pt x="98" y="-190" on="1"/>
        <pt x="106" y="-182" on="0"/>
        <pt x="120" y="-167" on="0"/>
        <pt x="128" y="-159" on="1"/>
        <pt x="150" y="-183" on="0"/>
        <pt x="218" y="-207" on="0"/>
        <pt x="251" y="-207" on="1"/>
        <pt x="282" y="-207" on="0"/>
        <pt x="337" y="-182" on="0"/>
        <pt x="377" y="-136" on="0"/>
        <pt x="401" y="-71" on="0"/>
        <pt x="401" y="-32" on="1"/>
        <pt x="401" y="40" on="1"/>
        <pt x="402" y="51" on="0"/>
        <pt x="404" y="75" on="0"/>
        <pt x="405" y="86" on="1"/>
        <pt x="390" y="50" on="0"/>
        <pt x="305" y="-6" on="0"/>
        <pt x="246" y="-7" on="1"/>
        <pt x="205" y="-7" on="0"/>
        <pt x="133" y="24" on="0"/>
        <pt x="80" y="76" on="0"/>
        <pt x="49" y="147" on="0"/>
        <pt x="49" y="188" on="1"/>
        <pt x="49" y="228" on="0"/>
        <pt x="80" y="299" on="0"/>
        <pt x="133" y="352" on="0"/>
        <pt x="205" y="383" on="0"/>
        <pt x="246" y="383" on="1"/>
        <pt x="275" y="383" on="0"/>
        <pt x="327" y="366" on="0"/>
        <pt x="369" y="339" on="0"/>
        <pt x="398" y="304" on="0"/>
        <pt x="405" y="287" on="1"/>
        <pt x="405" y="309" on="0"/>
        <pt x="408" y="353" on="0"/>
      </contour>
    </TTGlyph>
    <TTGlyph name="germandbls" xMin="22" yMin="-8" xMax="492" yMax="658">
      <contour>
        <pt x="183" y="17" on="1"/>
        <pt x="188" y="26" on="0"/>
        <pt x="196" y="44" on="0"/>
        <pt x="200" y="53" on="1"/>
        <pt x="236" y="32" on="0"/>
        <pt x="280" y="32" on="1"/>
        <pt x="315" y="32" on="0"/>
        <pt x="377" y="59" on="0"/>
        <pt x="423" y="105" on="0"/>
        <pt x="450" y="166" on="0"/>
        <pt x="450" y="200" on="1"/>
        <pt x="450" y="234" on="0"/>
        <pt x="423" y="294" on="0"/>
        <pt x="377" y="339" on="0"/>
        <pt x="316" y="365" on="0"/>
        <pt x="281" y="365" on="1"/>
        <pt x="281" y="386" on="1"/>
        <pt x="281" y="407" on="1"/>
        <pt x="326" y="407" on="0"/>
        <pt x="388" y="461" on="0"/>
        <pt x="388" y="505" on="1"/>
        <pt x="388" y="527" on="0"/>
        <pt x="372" y="568" on="0"/>
        <pt x="344" y="599" on="0"/>
        <pt x="305" y="617" on="0"/>
        <pt x="282" y="617" on="1"/>
        <pt x="250" y="616" on="0"/>
        <pt x="194" y="589" on="0"/>
        <pt x="152" y="540" on="0"/>
        <pt x="128" y="469" on="0"/>
        <pt x="128" y="425" on="1"/>
        <pt x="128" y="0" on="1"/>
        <pt x="87" y="0" on="1"/>
        <pt x="87" y="356" on="1"/>
        <pt x="22" y="356" on="1"/>
        <pt x="22" y="396" on="1"/>
        <pt x="87" y="396" on="1"/>
        <pt x="87" y="425" on="1"/>
        <pt x="87" y="480" on="0"/>
        <pt x="118" y="566" on="0"/>
        <pt x="172" y="625" on="0"/>
        <pt x="243" y="657" on="0"/>
        <pt x="282" y="658" on="1"/>
        <pt x="313" y="657" on="0"/>
        <pt x="367" y="633" on="0"/>
        <pt x="407" y="592" on="0"/>
        <pt x="430" y="538" on="0"/>
        <pt x="430" y="507" on="1"/>
        <pt x="430" y="469" on="0"/>
        <pt x="389" y="406" on="0"/>
        <pt x="357" y="389" on="1"/>
        <pt x="386" y="379" on="0"/>
        <pt x="436" y="342" on="0"/>
        <pt x="472" y="293" on="0"/>
        <pt x="492" y="233" on="0"/>
        <pt x="492" y="200" on="1"/>
        <pt x="492" y="157" on="0"/>
        <pt x="458" y="81" on="0"/>
        <pt x="401" y="25" on="0"/>
        <pt x="324" y="-8" on="0"/>
        <pt x="281" y="-8" on="1"/>
        <pt x="228" y="-8" on="0"/>
      </contour>
    </TTGlyph>
    <TTGlyph name="grave" xMin="-29" yMin="479" xMax="104" yMax="612">
      <contour>
        <pt x="14" y="612" on="1"/>
        <pt x="37" y="579" on="0"/>
        <pt x="81" y="512" on="0"/>
        <pt x="104" y="479" on="1"/>
        <pt x="71" y="479" on="1"/>
        <pt x="46" y="512" on="0"/>
        <pt x="-4" y="579" on="0"/>
        <pt x="-29" y="612" on="1"/>
      </contour>
    </TTGlyph>
    <TTGlyph name="greater" xMin="115" yMin="-15" xMax="553" yMax="491">
      <contour>
        <pt x="115" y="-15" on="1"/>
        <pt x="115" y="40" on="1"/>
        <pt x="202" y="90" on="0"/>
        <pt x="373" y="188" on="0"/>
        <pt x="459" y="238" on="1"/>
        <pt x="373" y="288" on="0"/>
        <pt x="202" y="386" on="0"/>
        <pt x="115" y="436" on="1"/>
        <pt x="115" y="491" on="1"/>
        <pt x="225" y="428" on="0"/>
        <pt x="443" y="301" on="0"/>
        <pt x="553" y="238" on="1"/>
        <pt x="443" y="175" on="0"/>
        <pt x="225" y="48" on="0"/>
      </contour>
    </TTGlyph>
    <TTGlyph name="guillemotleft" xMin="117" yMin="77" xMax="459" yMax="400">
      <contour>
        <pt x="459" y="77" on="1"/>
        <pt x="288" y="239" on="1"/>
        <pt x="331" y="280" on="0"/>
        <pt x="416" y="359" on="0"/>
        <pt x="459" y="400" on="1"/>
        <pt x="459" y="352" on="1"/>
        <pt x="431" y="324" on="0"/>
        <pt x="376" y="268" on="0"/>
        <pt x="348" y="239" on="1"/>
        <pt x="459" y="125" on="1"/>
      </contour>
      <contour>
        <pt x="288" y="77" on="1"/>
        <pt x="117" y="239" on="1"/>
        <pt x="160" y="280" on="0"/>
        <pt x="245" y="359" on="0"/>
        <pt x="288" y="400" on="1"/>
        <pt x="288" y="352" on="1"/>
        <pt x="260" y="323" on="0"/>
        <pt x="205" y="268" on="0"/>
        <pt x="177" y="239" on="1"/>
        <pt x="288" y="125" on="1"/>
      </contour>
    </TTGlyph>
    <TTGlyph name="guillemotright" xMin="117" yMin="77" xMax="459" yMax="400">
      <component glyphName="guillemotleft" x="576" y="0" scalex="-0.999938964844" scaley="1.0" flags="0x4"/>
    </TTGlyph>
    <TTGlyph name="guilsinglleft" xMin="117" yMin="77" xMax="288" yMax="400">
      <contour>
        <pt x="288" y="77" on="1"/>
        <pt x="117" y="239" on="1"/>
        <pt x="160" y="280" on="0"/>
        <pt x="245" y="359" on="0"/>
        <pt x="288" y="400" on="1"/>
        <pt x="288" y="352" on="1"/>
        <pt x="260" y="323" on="0"/>
        <pt x="205" y="268" on="0"/>
        <pt x="177" y="239" on="1"/>
        <pt x="288" y="125" on="1"/>
      </contour>
    </TTGlyph>
    <TTGlyph name="guilsinglright" xMin="117" yMin="77" xMax="288" yMax="400">
      <component glyphName="guilsinglleft" x="405" y="0" scalex="-0.999938964844" scaley="1.0" flags="0x4"/>
    </TTGlyph>
    <TTGlyph name="h" xMin="103" yMin="0" xMax="427" yMax="750">
      <contour>
        <pt x="103" y="750" on="1"/>
        <pt x="145" y="750" on="1"/>
        <pt x="145" y="323" on="1"/>
        <pt x="142" y="278" on="1"/>
        <pt x="162" y="326" on="0"/>
        <pt x="249" y="381" on="0"/>
        <pt x="306" y="383" on="1"/>
        <pt x="361" y="383" on="0"/>
        <pt x="425" y="321" on="0"/>
        <pt x="427" y="271" on="1"/>
        <pt x="427" y="0" on="1"/>
        <pt x="385" y="0" on="1"/>
        <pt x="385" y="260" on="1"/>
        <pt x="383" y="292" on="0"/>
        <pt x="340" y="340" on="0"/>
        <pt x="298" y="342" on="1"/>
        <pt x="268" y="342" on="0"/>
        <pt x="212" y="321" on="0"/>
        <pt x="170" y="285" on="0"/>
        <pt x="145" y="235" on="0"/>
        <pt x="145" y="205" on="1"/>
        <pt x="145" y="0" on="1"/>
        <pt x="103" y="0" on="1"/>
      </contour>
    </TTGlyph>
    <TTGlyph name="hyphen" xMin="53" yMin="169" xMax="237" yMax="210">
      <contour>
        <pt x="53" y="169" on="1"/>
        <pt x="53" y="210" on="1"/>
        <pt x="237" y="210" on="1"/>
        <pt x="237" y="169" on="1"/>
      </contour>
    </TTGlyph>
    <TTGlyph name="i" xMin="63" yMin="0" xMax="129" yMax="541">
      <contour>
        <pt x="63" y="508" on="1"/>
        <pt x="63" y="522" on="0"/>
        <pt x="83" y="541" on="0"/>
        <pt x="96" y="541" on="1"/>
        <pt x="109" y="541" on="0"/>
        <pt x="129" y="522" on="0"/>
        <pt x="129" y="508" on="1"/>
        <pt x="129" y="494" on="0"/>
        <pt x="109" y="475" on="0"/>
        <pt x="96" y="475" on="1"/>
        <pt x="83" y="475" on="0"/>
        <pt x="63" y="494" on="0"/>
      </contour>
      <contour>
        <pt x="116" y="0" on="1"/>
        <pt x="75" y="0" on="1"/>
        <pt x="75" y="375" on="1"/>
        <pt x="116" y="375" on="1"/>
      </contour>
    </TTGlyph>
    <TTGlyph name="iacute" xMin="71" yMin="0" xMax="212" yMax="612">
      <contour>
        <pt x="112" y="0" on="1"/>
        <pt x="71" y="0" on="1"/>
        <pt x="71" y="375" on="1"/>
        <pt x="112" y="375" on="1"/>
      </contour>
      <contour>
        <pt x="79" y="479" on="1"/>
        <pt x="102" y="512" on="0"/>
        <pt x="146" y="579" on="0"/>
        <pt x="169" y="612" on="1"/>
        <pt x="212" y="612" on="1"/>
        <pt x="187" y="579" on="0"/>
        <pt x="137" y="512" on="0"/>
        <pt x="112" y="479" on="1"/>
      </contour>
    </TTGlyph>
    <TTGlyph name="icircumflex" xMin="-4" yMin="0" xMax="236" yMax="660">
      <contour>
        <pt x="137" y="0" on="1"/>
        <pt x="95" y="0" on="1"/>
        <pt x="95" y="375" on="1"/>
        <pt x="137" y="375" on="1"/>
      </contour>
      <contour>
        <pt x="116" y="660" on="1"/>
        <pt x="146" y="615" on="0"/>
        <pt x="206" y="524" on="0"/>
        <pt x="236" y="479" on="1"/>
        <pt x="203" y="479" on="1"/>
        <pt x="181" y="509" on="0"/>
        <pt x="138" y="570" on="0"/>
        <pt x="116" y="600" on="1"/>
        <pt x="94" y="570" on="0"/>
        <pt x="51" y="509" on="0"/>
        <pt x="29" y="479" on="1"/>
        <pt x="-4" y="479" on="1"/>
        <pt x="26" y="524" on="0"/>
        <pt x="86" y="615" on="0"/>
      </contour>
    </TTGlyph>
    <TTGlyph name="idieresis" xMin="26" yMin="0" xMax="256" yMax="541">
      <contour>
        <pt x="165" y="0" on="1"/>
        <pt x="123" y="0" on="1"/>
        <pt x="123" y="375" on="1"/>
        <pt x="165" y="375" on="1"/>
      </contour>
      <contour>
        <pt x="191" y="508" on="1"/>
        <pt x="191" y="522" on="0"/>
        <pt x="211" y="541" on="0"/>
        <pt x="224" y="541" on="1"/>
        <pt x="237" y="541" on="0"/>
        <pt x="256" y="522" on="0"/>
        <pt x="256" y="508" on="1"/>
        <pt x="256" y="494" on="0"/>
        <pt x="237" y="475" on="0"/>
        <pt x="224" y="475" on="1"/>
        <pt x="211" y="475" on="0"/>
        <pt x="191" y="494" on="0"/>
      </contour>
      <contour>
        <pt x="26" y="508" on="1"/>
        <pt x="26" y="522" on="0"/>
        <pt x="46" y="541" on="0"/>
        <pt x="59" y="541" on="1"/>
        <pt x="71" y="541" on="0"/>
        <pt x="91" y="522" on="0"/>
        <pt x="91" y="508" on="1"/>
        <pt x="91" y="494" on="0"/>
        <pt x="71" y="475" on="0"/>
        <pt x="59" y="475" on="1"/>
        <pt x="46" y="475" on="0"/>
        <pt x="26" y="494" on="0"/>
      </contour>
    </TTGlyph>
    <TTGlyph name="igrave" xMin="-24" yMin="0" xMax="116" yMax="612">
      <contour>
        <pt x="116" y="0" on="1"/>
        <pt x="75" y="0" on="1"/>
        <pt x="75" y="375" on="1"/>
        <pt x="116" y="375" on="1"/>
      </contour>
      <contour>
        <pt x="19" y="612" on="1"/>
        <pt x="42" y="579" on="0"/>
        <pt x="86" y="512" on="0"/>
        <pt x="109" y="479" on="1"/>
        <pt x="76" y="479" on="1"/>
        <pt x="51" y="512" on="0"/>
        <pt x="1" y="579" on="0"/>
        <pt x="-24" y="612" on="1"/>
      </contour>
    </TTGlyph>
    <TTGlyph name="j" xMin="42" yMin="-180" xMax="151" yMax="541">
      <contour>
        <pt x="86" y="508" on="1"/>
        <pt x="86" y="522" on="0"/>
        <pt x="106" y="541" on="0"/>
        <pt x="119" y="541" on="1"/>
        <pt x="131" y="541" on="0"/>
        <pt x="151" y="522" on="0"/>
        <pt x="151" y="508" on="1"/>
        <pt x="151" y="494" on="0"/>
        <pt x="131" y="475" on="0"/>
        <pt x="119" y="475" on="1"/>
        <pt x="106" y="475" on="0"/>
        <pt x="86" y="494" on="0"/>
      </contour>
      <contour>
        <pt x="72" y="-180" on="1"/>
        <pt x="42" y="-150" on="1"/>
        <pt x="67" y="-125" on="0"/>
        <pt x="97" y="-53" on="0"/>
        <pt x="97" y="-5" on="1"/>
        <pt x="97" y="375" on="1"/>
        <pt x="138" y="375" on="1"/>
        <pt x="138" y="-4" on="1"/>
        <pt x="138" y="-63" on="0"/>
        <pt x="103" y="-151" on="0"/>
      </contour>
    </TTGlyph>
    <TTGlyph name="k" xMin="77" yMin="0" xMax="379" yMax="750">
      <contour>
        <pt x="327" y="384" on="1"/>
        <pt x="333" y="378" on="0"/>
        <pt x="346" y="365" on="0"/>
        <pt x="352" y="358" on="1"/>
        <pt x="315" y="324" on="0"/>
        <pt x="250" y="261" on="0"/>
        <pt x="213" y="227" on="1"/>
        <pt x="255" y="170" on="0"/>
        <pt x="337" y="57" on="0"/>
        <pt x="379" y="0" on="1"/>
        <pt x="330" y="0" on="1"/>
        <pt x="293" y="50" on="0"/>
        <pt x="219" y="149" on="0"/>
        <pt x="183" y="199" on="1"/>
        <pt x="166" y="184" on="0"/>
        <pt x="135" y="153" on="0"/>
        <pt x="119" y="139" on="1"/>
        <pt x="119" y="0" on="1"/>
        <pt x="77" y="0" on="1"/>
        <pt x="77" y="750" on="1"/>
        <pt x="119" y="750" on="1"/>
        <pt x="119" y="190" on="1"/>
        <pt x="173" y="241" on="0"/>
        <pt x="273" y="333" on="0"/>
      </contour>
    </TTGlyph>
    <TTGlyph name="l" xMin="75" yMin="0" xMax="116" yMax="750">
      <contour>
        <pt x="116" y="0" on="1"/>
        <pt x="75" y="0" on="1"/>
        <pt x="75" y="750" on="1"/>
        <pt x="116" y="750" on="1"/>
      </contour>
    </TTGlyph>
    <TTGlyph name="less" xMin="115" yMin="-15" xMax="553" yMax="491">
      <contour>
        <pt x="553" y="40" on="1"/>
        <pt x="553" y="-15" on="1"/>
        <pt x="443" y="48" on="0"/>
        <pt x="225" y="175" on="0"/>
        <pt x="115" y="238" on="1"/>
        <pt x="225" y="301" on="0"/>
        <pt x="443" y="428" on="0"/>
        <pt x="553" y="491" on="1"/>
        <pt x="553" y="436" on="1"/>
        <pt x="467" y="386" on="0"/>
        <pt x="296" y="288" on="0"/>
        <pt x="209" y="238" on="1"/>
        <pt x="296" y="188" on="0"/>
        <pt x="467" y="90" on="0"/>
      </contour>
    </TTGlyph>
    <TTGlyph name="logicalnot" xMin="100" yMin="148" xMax="460" yMax="244">
      <contour>
        <pt x="418" y="148" on="1"/>
        <pt x="418" y="211" on="1"/>
        <pt x="100" y="211" on="1"/>
        <pt x="100" y="244" on="1"/>
        <pt x="460" y="244" on="1"/>
        <pt x="460" y="148" on="1"/>
      </contour>
    </TTGlyph>
    <TTGlyph name="m" xMin="103" yMin="0" xMax="709" yMax="383">
      <contour>
        <pt x="103" y="375" on="1"/>
        <pt x="141" y="375" on="1"/>
        <pt x="141" y="340" on="1"/>
        <pt x="141" y="323" on="0"/>
        <pt x="141" y="295" on="0"/>
        <pt x="142" y="278" on="1"/>
        <pt x="162" y="326" on="0"/>
        <pt x="249" y="382" on="0"/>
        <pt x="306" y="383" on="1"/>
        <pt x="357" y="383" on="0"/>
        <pt x="421" y="328" on="0"/>
        <pt x="426" y="283" on="1"/>
        <pt x="447" y="328" on="0"/>
        <pt x="533" y="382" on="0"/>
        <pt x="588" y="383" on="1"/>
        <pt x="643" y="383" on="0"/>
        <pt x="707" y="321" on="0"/>
        <pt x="709" y="271" on="1"/>
        <pt x="709" y="0" on="1"/>
        <pt x="668" y="0" on="1"/>
        <pt x="668" y="260" on="1"/>
        <pt x="666" y="292" on="0"/>
        <pt x="623" y="340" on="0"/>
        <pt x="581" y="342" on="1"/>
        <pt x="551" y="342" on="0"/>
        <pt x="495" y="322" on="0"/>
        <pt x="453" y="286" on="0"/>
        <pt x="428" y="237" on="0"/>
        <pt x="427" y="208" on="1"/>
        <pt x="427" y="0" on="1"/>
        <pt x="385" y="0" on="1"/>
        <pt x="385" y="260" on="1"/>
        <pt x="383" y="292" on="0"/>
        <pt x="340" y="340" on="0"/>
        <pt x="298" y="342" on="1"/>
        <pt x="268" y="342" on="0"/>
        <pt x="212" y="321" on="0"/>
        <pt x="170" y="285" on="0"/>
        <pt x="145" y="235" on="0"/>
        <pt x="145" y="205" on="1"/>
        <pt x="145" y="0" on="1"/>
        <pt x="103" y="0" on="1"/>
      </contour>
    </TTGlyph>
    <TTGlyph name="macron" xMin="85" yMin="486" xMax="315" yMax="516">
      <contour>
        <pt x="85" y="486" on="1"/>
        <pt x="85" y="516" on="1"/>
        <pt x="315" y="516" on="1"/>
        <pt x="315" y="486" on="1"/>
      </contour>
    </TTGlyph>
    <TTGlyph name="mu" xMin="103" yMin="-201" xMax="427" yMax="375">
      <contour>
        <pt x="427" y="-4" on="1"/>
        <pt x="385" y="-4" on="1"/>
        <pt x="385" y="52" on="1"/>
        <pt x="388" y="97" on="1"/>
        <pt x="368" y="49" on="0"/>
        <pt x="281" y="-7" on="0"/>
        <pt x="224" y="-8" on="1"/>
        <pt x="198" y="-8" on="0"/>
        <pt x="157" y="11" on="0"/>
        <pt x="145" y="28" on="1"/>
        <pt x="145" y="-201" on="1"/>
        <pt x="103" y="-201" on="1"/>
        <pt x="103" y="375" on="1"/>
        <pt x="145" y="375" on="1"/>
        <pt x="145" y="115" on="1"/>
        <pt x="147" y="83" on="0"/>
        <pt x="190" y="35" on="0"/>
        <pt x="232" y="33" on="1"/>
        <pt x="262" y="33" on="0"/>
        <pt x="318" y="54" on="0"/>
        <pt x="360" y="90" on="0"/>
        <pt x="385" y="140" on="0"/>
        <pt x="385" y="170" on="1"/>
        <pt x="385" y="375" on="1"/>
        <pt x="427" y="375" on="1"/>
      </contour>
    </TTGlyph>
    <TTGlyph name="multiply" xMin="122" yMin="0" xMax="406" yMax="284">
      <contour>
        <pt x="377" y="0" on="1"/>
        <pt x="348" y="29" on="0"/>
        <pt x="292" y="84" on="0"/>
        <pt x="263" y="113" on="1"/>
        <pt x="235" y="85" on="0"/>
        <pt x="180" y="29" on="0"/>
        <pt x="151" y="0" on="1"/>
        <pt x="144" y="8" on="0"/>
        <pt x="129" y="22" on="0"/>
        <pt x="122" y="29" on="1"/>
        <pt x="151" y="58" on="0"/>
        <pt x="206" y="113" on="0"/>
        <pt x="234" y="142" on="1"/>
        <pt x="122" y="254" on="1"/>
        <pt x="152" y="284" on="1"/>
        <pt x="264" y="172" on="1"/>
        <pt x="293" y="201" on="0"/>
        <pt x="348" y="255" on="0"/>
        <pt x="377" y="284" on="1"/>
        <pt x="384" y="277" on="0"/>
        <pt x="398" y="262" on="0"/>
        <pt x="406" y="255" on="1"/>
        <pt x="377" y="227" on="0"/>
        <pt x="322" y="171" on="0"/>
        <pt x="293" y="143" on="1"/>
        <pt x="322" y="114" on="0"/>
        <pt x="377" y="58" on="0"/>
        <pt x="406" y="30" on="1"/>
      </contour>
    </TTGlyph>
    <TTGlyph name="n" xMin="103" yMin="0" xMax="427" yMax="383">
      <contour>
        <pt x="103" y="375" on="1"/>
        <pt x="141" y="375" on="1"/>
        <pt x="141" y="340" on="1"/>
        <pt x="141" y="323" on="0"/>
        <pt x="141" y="295" on="0"/>
        <pt x="142" y="278" on="1"/>
        <pt x="162" y="325" on="0"/>
        <pt x="250" y="383" on="0"/>
        <pt x="306" y="383" on="1"/>
        <pt x="361" y="383" on="0"/>
        <pt x="425" y="321" on="0"/>
        <pt x="427" y="271" on="1"/>
        <pt x="427" y="0" on="1"/>
        <pt x="385" y="0" on="1"/>
        <pt x="385" y="260" on="1"/>
        <pt x="383" y="292" on="0"/>
        <pt x="340" y="340" on="0"/>
        <pt x="298" y="342" on="1"/>
        <pt x="268" y="342" on="0"/>
        <pt x="212" y="321" on="0"/>
        <pt x="170" y="285" on="0"/>
        <pt x="145" y="235" on="0"/>
        <pt x="145" y="205" on="1"/>
        <pt x="145" y="0" on="1"/>
        <pt x="103" y="0" on="1"/>
      </contour>
    </TTGlyph>
    <TTGlyph name="nine" xMin="43" yMin="-8" xMax="463" yMax="634">
      <contour>
        <pt x="420" y="427" on="1"/>
        <pt x="420" y="461" on="0"/>
        <pt x="394" y="522" on="0"/>
        <pt x="349" y="567" on="0"/>
        <pt x="288" y="593" on="0"/>
        <pt x="254" y="593" on="1"/>
        <pt x="219" y="593" on="0"/>
        <pt x="158" y="567" on="0"/>
        <pt x="112" y="522" on="0"/>
        <pt x="85" y="461" on="0"/>
        <pt x="85" y="427" on="1"/>
        <pt x="85" y="392" on="0"/>
        <pt x="112" y="332" on="0"/>
        <pt x="158" y="286" on="0"/>
        <pt x="219" y="260" on="0"/>
        <pt x="254" y="260" on="1"/>
        <pt x="288" y="260" on="0"/>
        <pt x="349" y="286" on="0"/>
        <pt x="394" y="332" on="0"/>
        <pt x="420" y="392" on="0"/>
      </contour>
      <contour>
        <pt x="463" y="427" on="1"/>
        <pt x="463" y="356" on="0"/>
        <pt x="401" y="232" on="0"/>
        <pt x="304" y="124" on="0"/>
        <pt x="186" y="32" on="0"/>
        <pt x="131" y="-8" on="1"/>
        <pt x="124" y="0" on="0"/>
        <pt x="111" y="17" on="0"/>
        <pt x="104" y="25" on="1"/>
        <pt x="210" y="96" on="0"/>
        <pt x="333" y="222" on="0"/>
        <pt x="360" y="269" on="1"/>
        <pt x="341" y="246" on="0"/>
        <pt x="285" y="220" on="0"/>
        <pt x="253" y="220" on="1"/>
        <pt x="210" y="220" on="0"/>
        <pt x="133" y="252" on="0"/>
        <pt x="76" y="308" on="0"/>
        <pt x="43" y="384" on="0"/>
        <pt x="43" y="427" on="1"/>
        <pt x="43" y="470" on="0"/>
        <pt x="76" y="545" on="0"/>
        <pt x="133" y="601" on="0"/>
        <pt x="210" y="634" on="0"/>
        <pt x="253" y="634" on="1"/>
        <pt x="296" y="634" on="0"/>
        <pt x="373" y="601" on="0"/>
        <pt x="430" y="545" on="0"/>
        <pt x="463" y="470" on="0"/>
      </contour>
    </TTGlyph>
    <TTGlyph name="ntilde" xMin="103" yMin="0" xMax="431" yMax="536">
      <component glyphName="n" x="0" y="0" flags="0x4"/>
      <component glyphName="asciitilde" x="6" y="-9" flags="0x4"/>
    </TTGlyph>
    <TTGlyph name="numbersign" xMin="27" yMin="0" xMax="510" yMax="643">
      <contour>
        <pt x="198" y="393" on="1"/>
        <pt x="194" y="357" on="0"/>
        <pt x="186" y="286" on="0"/>
        <pt x="182" y="251" on="1"/>
        <pt x="324" y="251" on="1"/>
        <pt x="328" y="286" on="0"/>
        <pt x="336" y="357" on="0"/>
        <pt x="340" y="393" on="1"/>
      </contour>
      <contour>
        <pt x="294" y="0" on="1"/>
        <pt x="318" y="210" on="1"/>
        <pt x="176" y="210" on="1"/>
        <pt x="152" y="0" on="1"/>
        <pt x="110" y="0" on="1"/>
        <pt x="134" y="210" on="1"/>
        <pt x="27" y="210" on="1"/>
        <pt x="29" y="221" on="0"/>
        <pt x="31" y="240" on="0"/>
        <pt x="32" y="251" on="1"/>
        <pt x="140" y="251" on="1"/>
        <pt x="144" y="286" on="0"/>
        <pt x="152" y="357" on="0"/>
        <pt x="156" y="393" on="1"/>
        <pt x="50" y="393" on="1"/>
        <pt x="52" y="403" on="0"/>
        <pt x="53" y="423" on="0"/>
        <pt x="54" y="433" on="1"/>
        <pt x="161" y="433" on="1"/>
        <pt x="168" y="486" on="0"/>
        <pt x="180" y="590" on="0"/>
        <pt x="187" y="643" on="1"/>
        <pt x="229" y="643" on="1"/>
        <pt x="222" y="590" on="0"/>
        <pt x="210" y="486" on="0"/>
        <pt x="203" y="433" on="1"/>
        <pt x="345" y="433" on="1"/>
        <pt x="352" y="486" on="0"/>
        <pt x="364" y="590" on="0"/>
        <pt x="371" y="643" on="1"/>
        <pt x="413" y="643" on="1"/>
        <pt x="406" y="590" on="0"/>
        <pt x="394" y="486" on="0"/>
        <pt x="387" y="433" on="1"/>
        <pt x="510" y="433" on="1"/>
        <pt x="508" y="423" on="0"/>
        <pt x="507" y="403" on="0"/>
        <pt x="506" y="393" on="1"/>
        <pt x="382" y="393" on="1"/>
        <pt x="378" y="357" on="0"/>
        <pt x="370" y="286" on="0"/>
        <pt x="366" y="251" on="1"/>
        <pt x="487" y="251" on="1"/>
        <pt x="486" y="240" on="0"/>
        <pt x="484" y="221" on="0"/>
        <pt x="483" y="210" on="1"/>
        <pt x="360" y="210" on="1"/>
        <pt x="336" y="0" on="1"/>
      </contour>
    </TTGlyph>
    <TTGlyph name="o" xMin="36" yMin="-7" xMax="430" yMax="384">
      <contour>
        <pt x="36" y="188" on="1"/>
        <pt x="36" y="228" on="0"/>
        <pt x="67" y="300" on="0"/>
        <pt x="120" y="353" on="0"/>
        <pt x="191" y="384" on="0"/>
        <pt x="232" y="384" on="1"/>
        <pt x="273" y="384" on="0"/>
        <pt x="345" y="353" on="0"/>
        <pt x="399" y="300" on="0"/>
        <pt x="430" y="228" on="0"/>
        <pt x="430" y="188" on="1"/>
        <pt x="430" y="147" on="0"/>
        <pt x="399" y="76" on="0"/>
        <pt x="345" y="24" on="0"/>
        <pt x="273" y="-7" on="0"/>
        <pt x="232" y="-7" on="1"/>
        <pt x="191" y="-7" on="0"/>
        <pt x="120" y="24" on="0"/>
        <pt x="67" y="76" on="0"/>
        <pt x="36" y="147" on="0"/>
      </contour>
      <contour>
        <pt x="78" y="188" on="1"/>
        <pt x="78" y="156" on="0"/>
        <pt x="102" y="100" on="0"/>
        <pt x="144" y="58" on="0"/>
        <pt x="200" y="34" on="0"/>
        <pt x="232" y="34" on="1"/>
        <pt x="264" y="34" on="0"/>
        <pt x="320" y="58" on="0"/>
        <pt x="362" y="100" on="0"/>
        <pt x="387" y="156" on="0"/>
        <pt x="387" y="188" on="1"/>
        <pt x="387" y="220" on="0"/>
        <pt x="362" y="276" on="0"/>
        <pt x="320" y="318" on="0"/>
        <pt x="264" y="343" on="0"/>
        <pt x="232" y="343" on="1"/>
        <pt x="200" y="343" on="0"/>
        <pt x="144" y="318" on="0"/>
        <pt x="102" y="276" on="0"/>
        <pt x="78" y="220" on="0"/>
      </contour>
    </TTGlyph>
    <TTGlyph name="oacute" xMin="36" yMin="-7" xMax="430" yMax="612">
      <component glyphName="o" x="0" y="0" flags="0x4"/>
      <component glyphName="acute" x="131" y="0" flags="0x4"/>
    </TTGlyph>
    <TTGlyph name="ocircumflex" xMin="36" yMin="-7" xMax="430" yMax="660">
      <component glyphName="o" x="0" y="0" flags="0x4"/>
      <component glyphName="asciicircum" x="0" y="0" flags="0x4"/>
    </TTGlyph>
    <TTGlyph name="odieresis" xMin="36" yMin="-7" xMax="430" yMax="541">
      <component glyphName="o" x="0" y="0" flags="0x4"/>
      <component glyphName="dieresis" x="51" y="0" flags="0x4"/>
    </TTGlyph>
    <TTGlyph name="ograve" xMin="36" yMin="-7" xMax="430" yMax="612">
      <component glyphName="o" x="0" y="0" flags="0x4"/>
      <component glyphName="grave" x="131" y="0" flags="0x4"/>
    </TTGlyph>
    <TTGlyph name="one" xMin="34" yMin="0" xMax="171" yMax="650">
      <contour>
        <pt x="34" y="609" on="1"/>
        <pt x="34" y="650" on="1"/>
        <pt x="171" y="650" on="1"/>
        <pt x="171" y="0" on="1"/>
        <pt x="129" y="0" on="1"/>
        <pt x="129" y="609" on="1"/>
      </contour>
    </TTGlyph>
    <TTGlyph name="onehalf" xMin="121" yMin="-19" xMax="867" yMax="735">
      <component glyphName="one" x="97" y="234" scalex="0.709899902344" scaley="0.709716796875" flags="0x4"/>
      <component glyphName="two" x="536" y="0" scalex="0.707397460938" scaley="0.707885742188" flags="0x4"/>
      <component glyphName="slash" x="262" y="0" scalex="1.0" scaley="0.999206542969" flags="0x4"/>
    </TTGlyph>
    <TTGlyph name="onequarter" xMin="131" yMin="-19" xMax="845" yMax="735">
      <component glyphName="slash" x="262" y="0" scalex="1.0" scaley="0.999206542969" flags="0x4"/>
      <component glyphName="four" x="474" y="0" scalex="0.742980957031" scaley="0.744689941406" flags="0x4"/>
      <component glyphName="one" x="107" y="234" scalex="0.709167480469" scaley="0.709411621094" flags="0x4"/>
    </TTGlyph>
    <TTGlyph name="onesuperior" xMin="64" yMin="401" xMax="127" yMax="700">
      <component glyphName="one" x="49" y="401" scalex="0.458740234375" scaley="0.460021972656" flags="0x4"/>
    </TTGlyph>
    <TTGlyph name="ordfeminine" xMin="93" yMin="300" xMax="377" yMax="582">
      <component glyphName="a" x="58" y="306" scalex="0.721374511719" scaley="0.721252441406" flags="0x4"/>
    </TTGlyph>
    <TTGlyph name="ordmasculine" xMin="90" yMin="300" xMax="375" yMax="582">
      <component glyphName="o" x="65" y="306" scale="0.721252441406" flags="0x4"/>
    </TTGlyph>
    <TTGlyph name="oslash" xMin="36" yMin="-15" xMax="430" yMax="390">
      <contour>
        <pt x="78" y="188" on="1"/>
        <pt x="78" y="158" on="0"/>
        <pt x="99" y="105" on="0"/>
        <pt x="117" y="85" on="1"/>
        <pt x="167" y="144" on="0"/>
        <pt x="264" y="260" on="0"/>
        <pt x="314" y="319" on="1"/>
        <pt x="297" y="330" on="0"/>
        <pt x="255" y="343" on="0"/>
        <pt x="232" y="343" on="1"/>
        <pt x="199" y="343" on="0"/>
        <pt x="143" y="319" on="0"/>
        <pt x="102" y="277" on="0"/>
        <pt x="78" y="220" on="0"/>
      </contour>
      <contour>
        <pt x="232" y="34" on="1"/>
        <pt x="265" y="34" on="0"/>
        <pt x="322" y="58" on="0"/>
        <pt x="364" y="100" on="0"/>
        <pt x="388" y="156" on="0"/>
        <pt x="388" y="188" on="1"/>
        <pt x="388" y="221" on="0"/>
        <pt x="362" y="279" on="0"/>
        <pt x="339" y="300" on="1"/>
        <pt x="289" y="240" on="0"/>
        <pt x="190" y="123" on="0"/>
        <pt x="140" y="64" on="1"/>
        <pt x="179" y="34" on="0"/>
      </contour>
      <contour>
        <pt x="36" y="188" on="1"/>
        <pt x="36" y="228" on="0"/>
        <pt x="67" y="300" on="0"/>
        <pt x="120" y="352" on="0"/>
        <pt x="191" y="383" on="0"/>
        <pt x="232" y="383" on="1"/>
        <pt x="263" y="383" on="0"/>
        <pt x="318" y="366" on="0"/>
        <pt x="341" y="351" on="1"/>
        <pt x="349" y="361" on="0"/>
        <pt x="367" y="380" on="0"/>
        <pt x="375" y="390" on="1"/>
        <pt x="381" y="385" on="0"/>
        <pt x="392" y="374" on="0"/>
        <pt x="398" y="369" on="1"/>
        <pt x="390" y="360" on="0"/>
        <pt x="374" y="341" on="0"/>
        <pt x="366" y="331" on="1"/>
        <pt x="395" y="305" on="0"/>
        <pt x="430" y="230" on="0"/>
        <pt x="430" y="188" on="1"/>
        <pt x="430" y="147" on="0"/>
        <pt x="399" y="76" on="0"/>
        <pt x="345" y="24" on="0"/>
        <pt x="273" y="-7" on="0"/>
        <pt x="232" y="-7" on="1"/>
        <pt x="198" y="-7" on="0"/>
        <pt x="138" y="14" on="0"/>
        <pt x="113" y="33" on="1"/>
        <pt x="103" y="21" on="0"/>
        <pt x="83" y="-3" on="0"/>
        <pt x="73" y="-15" on="1"/>
        <pt x="67" y="-10" on="0"/>
        <pt x="55" y="0" on="0"/>
        <pt x="49" y="5" on="1"/>
        <pt x="60" y="17" on="0"/>
        <pt x="79" y="41" on="0"/>
        <pt x="90" y="53" on="1"/>
        <pt x="64" y="79" on="0"/>
        <pt x="36" y="148" on="0"/>
      </contour>
    </TTGlyph>
    <TTGlyph name="otilde" xMin="36" yMin="-7" xMax="430" yMax="545">
      <component glyphName="o" x="0" y="0" flags="0x4"/>
      <component glyphName="asciitilde" x="-40" y="0" flags="0x4"/>
    </TTGlyph>
    <TTGlyph name="p" xMin="67" yMin="-250" xMax="461" yMax="382">
      <contour>
        <pt x="419" y="187" on="1"/>
        <pt x="419" y="220" on="0"/>
        <pt x="395" y="276" on="0"/>
        <pt x="354" y="317" on="0"/>
        <pt x="297" y="341" on="0"/>
        <pt x="264" y="341" on="1"/>
        <pt x="231" y="341" on="0"/>
        <pt x="174" y="317" on="0"/>
        <pt x="133" y="276" on="0"/>
        <pt x="109" y="220" on="0"/>
        <pt x="109" y="187" on="1"/>
        <pt x="109" y="155" on="0"/>
        <pt x="133" y="98" on="0"/>
        <pt x="174" y="56" on="0"/>
        <pt x="231" y="32" on="0"/>
        <pt x="264" y="32" on="1"/>
        <pt x="297" y="32" on="0"/>
        <pt x="354" y="56" on="0"/>
        <pt x="395" y="98" on="0"/>
        <pt x="419" y="155" on="0"/>
      </contour>
      <contour>
        <pt x="461" y="187" on="1"/>
        <pt x="461" y="147" on="0"/>
        <pt x="430" y="76" on="0"/>
        <pt x="377" y="23" on="0"/>
        <pt x="305" y="-8" on="0"/>
        <pt x="264" y="-8" on="1"/>
        <pt x="233" y="-8" on="0"/>
        <pt x="181" y="8" on="0"/>
        <pt x="140" y="34" on="0"/>
        <pt x="111" y="68" on="0"/>
        <pt x="105" y="85" on="1"/>
        <pt x="106" y="75" on="0"/>
        <pt x="108" y="55" on="0"/>
        <pt x="109" y="44" on="1"/>
        <pt x="109" y="-250" on="1"/>
        <pt x="67" y="-250" on="1"/>
        <pt x="67" y="375" on="1"/>
        <pt x="103" y="375" on="1"/>
        <pt x="103" y="352" on="0"/>
        <pt x="104" y="308" on="0"/>
        <pt x="104" y="285" on="1"/>
        <pt x="110" y="303" on="0"/>
        <pt x="140" y="337" on="0"/>
        <pt x="182" y="365" on="0"/>
        <pt x="235" y="382" on="0"/>
        <pt x="264" y="382" on="1"/>
        <pt x="305" y="382" on="0"/>
        <pt x="377" y="351" on="0"/>
        <pt x="430" y="299" on="0"/>
        <pt x="461" y="227" on="0"/>
      </contour>
    </TTGlyph>
    <TTGlyph name="paragraph" xMin="38" yMin="0" xMax="406" yMax="750">
      <contour>
        <pt x="243" y="0" on="1"/>
        <pt x="201" y="0" on="1"/>
        <pt x="201" y="423" on="1"/>
        <pt x="167" y="423" on="0"/>
        <pt x="107" y="448" on="0"/>
        <pt x="63" y="492" on="0"/>
        <pt x="38" y="552" on="0"/>
        <pt x="38" y="586" on="1"/>
        <pt x="38" y="620" on="0"/>
        <pt x="63" y="680" on="0"/>
        <pt x="107" y="724" on="0"/>
        <pt x="167" y="750" on="0"/>
        <pt x="201" y="750" on="1"/>
        <pt x="406" y="750" on="1"/>
        <pt x="406" y="0" on="1"/>
        <pt x="364" y="0" on="1"/>
        <pt x="364" y="709" on="1"/>
        <pt x="243" y="709" on="1"/>
      </contour>
    </TTGlyph>
    <TTGlyph name="parenleft" xMin="134" yMin="-163" xMax="330" yMax="747">
      <contour>
        <pt x="134" y="292" on="1"/>
        <pt x="134" y="367" on="0"/>
        <pt x="162" y="503" on="0"/>
        <pt x="208" y="619" on="0"/>
        <pt x="267" y="714" on="0"/>
        <pt x="299" y="747" on="1"/>
        <pt x="307" y="741" on="0"/>
        <pt x="322" y="730" on="0"/>
        <pt x="330" y="724" on="1"/>
        <pt x="301" y="691" on="0"/>
        <pt x="246" y="601" on="0"/>
        <pt x="202" y="491" on="0"/>
        <pt x="176" y="363" on="0"/>
        <pt x="176" y="292" on="1"/>
        <pt x="176" y="221" on="0"/>
        <pt x="202" y="93" on="0"/>
        <pt x="246" y="-17" on="0"/>
        <pt x="301" y="-107" on="0"/>
        <pt x="330" y="-140" on="1"/>
        <pt x="322" y="-146" on="0"/>
        <pt x="307" y="-157" on="0"/>
        <pt x="299" y="-163" on="1"/>
        <pt x="267" y="-130" on="0"/>
        <pt x="208" y="-35" on="0"/>
        <pt x="162" y="81" on="0"/>
        <pt x="134" y="217" on="0"/>
      </contour>
    </TTGlyph>
    <TTGlyph name="parenright" xMin="96" yMin="-165" xMax="292" yMax="745">
      <contour>
        <pt x="292" y="290" on="1"/>
        <pt x="292" y="215" on="0"/>
        <pt x="264" y="79" on="0"/>
        <pt x="218" y="-37" on="0"/>
        <pt x="158" y="-132" on="0"/>
        <pt x="127" y="-165" on="1"/>
        <pt x="119" y="-159" on="0"/>
        <pt x="104" y="-148" on="0"/>
        <pt x="96" y="-142" on="1"/>
        <pt x="125" y="-109" on="0"/>
        <pt x="180" y="-19" on="0"/>
        <pt x="224" y="91" on="0"/>
        <pt x="250" y="219" on="0"/>
        <pt x="250" y="290" on="1"/>
        <pt x="250" y="361" on="0"/>
        <pt x="224" y="489" on="0"/>
        <pt x="180" y="599" on="0"/>
        <pt x="125" y="689" on="0"/>
        <pt x="96" y="722" on="1"/>
        <pt x="104" y="728" on="0"/>
        <pt x="119" y="739" on="0"/>
        <pt x="127" y="745" on="1"/>
        <pt x="158" y="712" on="0"/>
        <pt x="218" y="617" on="0"/>
        <pt x="264" y="501" on="0"/>
        <pt x="292" y="365" on="0"/>
      </contour>
    </TTGlyph>
    <TTGlyph name="percent" xMin="101" yMin="-4" xMax="639" yMax="504">
      <contour>
        <pt x="447" y="112" on="1"/>
        <pt x="447" y="80" on="0"/>
        <pt x="490" y="37" on="0"/>
        <pt x="522" y="37" on="1"/>
        <pt x="554" y="37" on="0"/>
        <pt x="597" y="80" on="0"/>
        <pt x="597" y="112" on="1"/>
        <pt x="597" y="143" on="0"/>
        <pt x="554" y="187" on="0"/>
        <pt x="522" y="187" on="1"/>
        <pt x="490" y="187" on="0"/>
        <pt x="447" y="143" on="0"/>
      </contour>
      <contour>
        <pt x="522" y="-4" on="1"/>
        <pt x="498" y="-4" on="0"/>
        <pt x="455" y="14" on="0"/>
        <pt x="424" y="45" on="0"/>
        <pt x="405" y="88" on="0"/>
        <pt x="405" y="112" on="1"/>
        <pt x="405" y="136" on="0"/>
        <pt x="424" y="178" on="0"/>
        <pt x="455" y="209" on="0"/>
        <pt x="498" y="227" on="0"/>
        <pt x="522" y="227" on="1"/>
        <pt x="546" y="227" on="0"/>
        <pt x="588" y="209" on="0"/>
        <pt x="620" y="178" on="0"/>
        <pt x="639" y="136" on="0"/>
        <pt x="639" y="112" on="1"/>
        <pt x="639" y="88" on="0"/>
        <pt x="620" y="45" on="0"/>
        <pt x="588" y="14" on="0"/>
        <pt x="546" y="-4" on="0"/>
      </contour>
      <contour>
        <pt x="143" y="388" on="1"/>
        <pt x="143" y="357" on="0"/>
        <pt x="186" y="314" on="0"/>
        <pt x="218" y="314" on="1"/>
        <pt x="250" y="314" on="0"/>
        <pt x="293" y="357" on="0"/>
        <pt x="293" y="388" on="1"/>
        <pt x="293" y="420" on="0"/>
        <pt x="250" y="463" on="0"/>
        <pt x="218" y="463" on="1"/>
        <pt x="186" y="463" on="0"/>
        <pt x="143" y="420" on="0"/>
      </contour>
      <contour>
        <pt x="218" y="273" on="1"/>
        <pt x="194" y="273" on="0"/>
        <pt x="151" y="291" on="0"/>
        <pt x="120" y="322" on="0"/>
        <pt x="101" y="365" on="0"/>
        <pt x="101" y="389" on="1"/>
        <pt x="101" y="413" on="0"/>
        <pt x="120" y="455" on="0"/>
        <pt x="151" y="486" on="0"/>
        <pt x="194" y="504" on="0"/>
        <pt x="218" y="504" on="1"/>
        <pt x="242" y="504" on="0"/>
        <pt x="284" y="486" on="0"/>
        <pt x="316" y="455" on="0"/>
        <pt x="335" y="413" on="0"/>
        <pt x="335" y="389" on="1"/>
        <pt x="335" y="365" on="0"/>
        <pt x="316" y="322" on="0"/>
        <pt x="284" y="291" on="0"/>
        <pt x="242" y="273" on="0"/>
      </contour>
      <contour>
        <pt x="194" y="0" on="1"/>
        <pt x="269" y="126" on="0"/>
        <pt x="417" y="374" on="0"/>
        <pt x="492" y="500" on="1"/>
        <pt x="538" y="500" on="1"/>
        <pt x="463" y="374" on="0"/>
        <pt x="315" y="126" on="0"/>
        <pt x="240" y="0" on="1"/>
      </contour>
    </TTGlyph>
    <TTGlyph name="period" xMin="53" yMin="0" xMax="118" yMax="66">
      <contour>
        <pt x="53" y="33" on="1"/>
        <pt x="53" y="47" on="0"/>
        <pt x="73" y="66" on="0"/>
        <pt x="86" y="66" on="1"/>
        <pt x="98" y="66" on="0"/>
        <pt x="118" y="47" on="0"/>
        <pt x="118" y="33" on="1"/>
        <pt x="118" y="19" on="0"/>
        <pt x="98" y="0" on="0"/>
        <pt x="86" y="0" on="1"/>
        <pt x="73" y="0" on="0"/>
        <pt x="53" y="19" on="0"/>
      </contour>
    </TTGlyph>
    <TTGlyph name="periodcentered" xMin="53" yMin="248" xMax="118" yMax="314">
      <component glyphName="period" x="0" y="248" flags="0x4"/>
    </TTGlyph>
    <TTGlyph name="plus" xMin="86" yMin="51" xMax="446" yMax="411">
      <contour>
        <pt x="245" y="51" on="1"/>
        <pt x="245" y="211" on="1"/>
        <pt x="86" y="211" on="1"/>
        <pt x="86" y="252" on="1"/>
        <pt x="245" y="252" on="1"/>
        <pt x="245" y="411" on="1"/>
        <pt x="287" y="411" on="1"/>
        <pt x="287" y="252" on="1"/>
        <pt x="446" y="252" on="1"/>
        <pt x="446" y="211" on="1"/>
        <pt x="287" y="211" on="1"/>
        <pt x="287" y="51" on="1"/>
      </contour>
    </TTGlyph>
    <TTGlyph name="plusminus" xMin="86" yMin="122" xMax="446" yMax="571">
      <contour>
        <pt x="245" y="211" on="1"/>
        <pt x="245" y="371" on="1"/>
        <pt x="86" y="371" on="1"/>
        <pt x="86" y="412" on="1"/>
        <pt x="245" y="412" on="1"/>
        <pt x="245" y="571" on="1"/>
        <pt x="287" y="571" on="1"/>
        <pt x="287" y="412" on="1"/>
        <pt x="446" y="412" on="1"/>
        <pt x="446" y="371" on="1"/>
        <pt x="287" y="371" on="1"/>
        <pt x="287" y="211" on="1"/>
      </contour>
      <contour>
        <pt x="446" y="122" on="1"/>
        <pt x="86" y="122" on="1"/>
        <pt x="86" y="162" on="1"/>
        <pt x="446" y="162" on="1"/>
      </contour>
    </TTGlyph>
    <TTGlyph name="q" xMin="51" yMin="-250" xMax="445" yMax="382">
      <contour>
        <pt x="93" y="187" on="1"/>
        <pt x="93" y="155" on="0"/>
        <pt x="117" y="98" on="0"/>
        <pt x="159" y="56" on="0"/>
        <pt x="215" y="32" on="0"/>
        <pt x="248" y="32" on="1"/>
        <pt x="281" y="32" on="0"/>
        <pt x="338" y="56" on="0"/>
        <pt x="380" y="98" on="0"/>
        <pt x="404" y="155" on="0"/>
        <pt x="404" y="187" on="1"/>
        <pt x="404" y="220" on="0"/>
        <pt x="380" y="276" on="0"/>
        <pt x="338" y="317" on="0"/>
        <pt x="281" y="341" on="0"/>
        <pt x="248" y="341" on="1"/>
        <pt x="215" y="341" on="0"/>
        <pt x="159" y="317" on="0"/>
        <pt x="117" y="276" on="0"/>
        <pt x="93" y="220" on="0"/>
      </contour>
      <contour>
        <pt x="51" y="187" on="1"/>
        <pt x="51" y="227" on="0"/>
        <pt x="82" y="299" on="0"/>
        <pt x="135" y="351" on="0"/>
        <pt x="207" y="382" on="0"/>
        <pt x="248" y="382" on="1"/>
        <pt x="277" y="382" on="0"/>
        <pt x="330" y="365" on="0"/>
        <pt x="372" y="337" on="0"/>
        <pt x="402" y="303" on="0"/>
        <pt x="408" y="285" on="1"/>
        <pt x="409" y="308" on="0"/>
        <pt x="409" y="352" on="0"/>
        <pt x="409" y="375" on="1"/>
        <pt x="445" y="375" on="1"/>
        <pt x="445" y="-250" on="1"/>
        <pt x="403" y="-250" on="1"/>
        <pt x="403" y="44" on="1"/>
        <pt x="404" y="55" on="0"/>
        <pt x="406" y="75" on="0"/>
        <pt x="408" y="85" on="1"/>
        <pt x="401" y="68" on="0"/>
        <pt x="373" y="34" on="0"/>
        <pt x="331" y="8" on="0"/>
        <pt x="279" y="-8" on="0"/>
        <pt x="248" y="-8" on="1"/>
        <pt x="207" y="-8" on="0"/>
        <pt x="135" y="23" on="0"/>
        <pt x="82" y="76" on="0"/>
        <pt x="51" y="147" on="0"/>
      </contour>
    </TTGlyph>
    <TTGlyph name="question" xMin="35" yMin="15" xMax="422" yMax="732">
      <contour>
        <pt x="72" y="578" on="1"/>
        <pt x="63" y="582" on="0"/>
        <pt x="44" y="588" on="0"/>
        <pt x="35" y="591" on="1"/>
        <pt x="44" y="617" on="0"/>
        <pt x="76" y="667" on="0"/>
        <pt x="123" y="707" on="0"/>
        <pt x="186" y="732" on="0"/>
        <pt x="226" y="732" on="1"/>
        <pt x="267" y="732" on="0"/>
        <pt x="339" y="701" on="0"/>
        <pt x="392" y="648" on="0"/>
        <pt x="422" y="577" on="0"/>
        <pt x="422" y="537" on="1"/>
        <pt x="422" y="483" on="0"/>
        <pt x="369" y="400" on="0"/>
        <pt x="324" y="368" on="1"/>
        <pt x="307" y="355" on="0"/>
        <pt x="274" y="335" on="0"/>
        <pt x="248" y="310" on="0"/>
        <pt x="232" y="272" on="0"/>
        <pt x="232" y="242" on="1"/>
        <pt x="232" y="164" on="1"/>
        <pt x="190" y="164" on="1"/>
        <pt x="190" y="261" on="1"/>
        <pt x="190" y="292" on="0"/>
        <pt x="212" y="331" on="0"/>
        <pt x="247" y="361" on="0"/>
        <pt x="292" y="388" on="0"/>
        <pt x="316" y="408" on="1"/>
        <pt x="349" y="435" on="0"/>
        <pt x="380" y="500" on="0"/>
        <pt x="380" y="537" on="1"/>
        <pt x="380" y="570" on="0"/>
        <pt x="357" y="626" on="0"/>
        <pt x="315" y="668" on="0"/>
        <pt x="259" y="691" on="0"/>
        <pt x="226" y="691" on="1"/>
        <pt x="168" y="691" on="0"/>
        <pt x="89" y="631" on="0"/>
      </contour>
      <contour>
        <pt x="211" y="15" on="1"/>
        <pt x="199" y="15" on="0"/>
        <pt x="178" y="34" on="0"/>
        <pt x="178" y="48" on="1"/>
        <pt x="178" y="62" on="0"/>
        <pt x="199" y="81" on="0"/>
        <pt x="211" y="81" on="1"/>
        <pt x="223" y="81" on="0"/>
        <pt x="243" y="62" on="0"/>
        <pt x="243" y="48" on="1"/>
        <pt x="243" y="34" on="0"/>
        <pt x="223" y="15" on="0"/>
      </contour>
    </TTGlyph>
    <TTGlyph name="questiondown" xMin="35" yMin="-193" xMax="422" yMax="524">
      <component glyphName="question" x="457" y="539" scale="-0.999938964844" flags="0x4"/>
    </TTGlyph>
    <TTGlyph name="quotedbl" xMin="63" yMin="472" xMax="240" yMax="720">
      <contour>
        <pt x="196" y="472" on="1"/>
        <pt x="196" y="720" on="1"/>
        <pt x="240" y="720" on="1"/>
        <pt x="239" y="657" on="0"/>
        <pt x="237" y="535" on="0"/>
        <pt x="236" y="472" on="1"/>
      </contour>
      <contour>
        <pt x="63" y="472" on="1"/>
        <pt x="63" y="720" on="1"/>
        <pt x="107" y="720" on="1"/>
        <pt x="106" y="657" on="0"/>
        <pt x="104" y="535" on="0"/>
        <pt x="103" y="472" on="1"/>
      </contour>
    </TTGlyph>
    <TTGlyph name="quotedblbase" xMin="20" yMin="-49" xMax="197" yMax="92">
      <contour>
        <pt x="40" y="-49" on="1"/>
        <pt x="29" y="-40" on="0"/>
        <pt x="20" y="-29" on="1"/>
        <pt x="41" y="-9" on="0"/>
        <pt x="60" y="50" on="0"/>
        <pt x="53" y="85" on="1"/>
        <pt x="61" y="87" on="0"/>
        <pt x="77" y="90" on="0"/>
        <pt x="85" y="92" on="1"/>
        <pt x="93" y="51" on="0"/>
        <pt x="69" y="-23" on="0"/>
      </contour>
      <contour>
        <pt x="144" y="-49" on="1"/>
        <pt x="133" y="-40" on="0"/>
        <pt x="124" y="-29" on="1"/>
        <pt x="145" y="-9" on="0"/>
        <pt x="164" y="50" on="0"/>
        <pt x="157" y="85" on="1"/>
        <pt x="165" y="87" on="0"/>
        <pt x="181" y="90" on="0"/>
        <pt x="189" y="92" on="1"/>
        <pt x="197" y="51" on="0"/>
        <pt x="173" y="-23" on="0"/>
      </contour>
    </TTGlyph>
    <TTGlyph name="quotedblleft" xMin="23" yMin="570" xMax="200" yMax="711">
      <contour>
        <pt x="200" y="590" on="1"/>
        <pt x="195" y="585" on="0"/>
        <pt x="185" y="575" on="0"/>
        <pt x="180" y="570" on="1"/>
        <pt x="151" y="596" on="0"/>
        <pt x="127" y="670" on="0"/>
        <pt x="135" y="711" on="1"/>
        <pt x="143" y="709" on="0"/>
        <pt x="159" y="706" on="0"/>
        <pt x="167" y="704" on="1"/>
        <pt x="160" y="669" on="0"/>
        <pt x="179" y="610" on="0"/>
      </contour>
      <contour>
        <pt x="96" y="590" on="1"/>
        <pt x="91" y="585" on="0"/>
        <pt x="81" y="575" on="0"/>
        <pt x="76" y="570" on="1"/>
        <pt x="47" y="596" on="0"/>
        <pt x="23" y="670" on="0"/>
        <pt x="31" y="711" on="1"/>
        <pt x="39" y="709" on="0"/>
        <pt x="55" y="706" on="0"/>
        <pt x="63" y="704" on="1"/>
        <pt x="56" y="669" on="0"/>
        <pt x="75" y="610" on="0"/>
      </contour>
    </TTGlyph>
    <TTGlyph name="quotedblright" xMin="31" yMin="570" xMax="208" yMax="711">
      <contour>
        <pt x="51" y="570" on="1"/>
        <pt x="46" y="575" on="0"/>
        <pt x="36" y="585" on="0"/>
        <pt x="31" y="590" on="1"/>
        <pt x="52" y="610" on="0"/>
        <pt x="71" y="669" on="0"/>
        <pt x="64" y="704" on="1"/>
        <pt x="72" y="706" on="0"/>
        <pt x="88" y="709" on="0"/>
        <pt x="96" y="711" on="1"/>
        <pt x="104" y="670" on="0"/>
        <pt x="80" y="596" on="0"/>
      </contour>
      <contour>
        <pt x="155" y="570" on="1"/>
        <pt x="150" y="575" on="0"/>
        <pt x="140" y="585" on="0"/>
        <pt x="135" y="590" on="1"/>
        <pt x="156" y="610" on="0"/>
        <pt x="175" y="669" on="0"/>
        <pt x="168" y="704" on="1"/>
        <pt x="176" y="706" on="0"/>
        <pt x="192" y="709" on="0"/>
        <pt x="200" y="711" on="1"/>
        <pt x="208" y="670" on="0"/>
        <pt x="184" y="596" on="0"/>
      </contour>
    </TTGlyph>
    <TTGlyph name="quoteleft" xMin="28" yMin="570" xMax="102" yMax="711">
      <contour>
        <pt x="102" y="590" on="1"/>
        <pt x="82" y="570" on="1"/>
        <pt x="53" y="596" on="0"/>
        <pt x="28" y="670" on="0"/>
        <pt x="36" y="711" on="1"/>
        <pt x="44" y="709" on="0"/>
        <pt x="61" y="706" on="0"/>
        <pt x="69" y="704" on="1"/>
        <pt x="62" y="669" on="0"/>
        <pt x="81" y="610" on="0"/>
      </contour>
    </TTGlyph>
    <TTGlyph name="quoteright" xMin="49" yMin="570" xMax="123" yMax="711">
      <contour>
        <pt x="69" y="570" on="1"/>
        <pt x="49" y="590" on="1"/>
        <pt x="70" y="610" on="0"/>
        <pt x="89" y="669" on="0"/>
        <pt x="82" y="704" on="1"/>
        <pt x="90" y="706" on="0"/>
        <pt x="107" y="709" on="0"/>
        <pt x="115" y="711" on="1"/>
        <pt x="123" y="670" on="0"/>
        <pt x="98" y="596" on="0"/>
      </contour>
    </TTGlyph>
    <TTGlyph name="quotesinglbase" xMin="20" yMin="-49" xMax="93" yMax="92">
      <contour>
        <pt x="40" y="-49" on="1"/>
        <pt x="29" y="-40" on="0"/>
        <pt x="20" y="-29" on="1"/>
        <pt x="41" y="-9" on="0"/>
        <pt x="60" y="50" on="0"/>
        <pt x="53" y="85" on="1"/>
        <pt x="61" y="87" on="0"/>
        <pt x="77" y="90" on="0"/>
        <pt x="85" y="92" on="1"/>
        <pt x="93" y="51" on="0"/>
        <pt x="69" y="-23" on="0"/>
      </contour>
    </TTGlyph>
    <TTGlyph name="quotesingle" xMin="57" yMin="472" xMax="101" yMax="720">
      <contour>
        <pt x="57" y="472" on="1"/>
        <pt x="57" y="720" on="1"/>
        <pt x="101" y="720" on="1"/>
        <pt x="100" y="657" on="0"/>
        <pt x="98" y="535" on="0"/>
        <pt x="97" y="472" on="1"/>
      </contour>
    </TTGlyph>
    <TTGlyph name="r" xMin="103" yMin="0" xMax="299" yMax="383">
      <contour>
        <pt x="296" y="342" on="1"/>
        <pt x="264" y="341" on="0"/>
        <pt x="209" y="320" on="0"/>
        <pt x="169" y="284" on="0"/>
        <pt x="145" y="234" on="0"/>
        <pt x="145" y="205" on="1"/>
        <pt x="145" y="0" on="1"/>
        <pt x="103" y="0" on="1"/>
        <pt x="103" y="375" on="1"/>
        <pt x="141" y="375" on="1"/>
        <pt x="141" y="340" on="1"/>
        <pt x="141" y="323" on="0"/>
        <pt x="141" y="295" on="0"/>
        <pt x="142" y="278" on="1"/>
        <pt x="164" y="327" on="0"/>
        <pt x="253" y="382" on="0"/>
        <pt x="299" y="383" on="1"/>
      </contour>
    </TTGlyph>
    <TTGlyph name="registered" xMin="142" yMin="115" xMax="658" yMax="630">
      <contour>
        <pt x="399" y="138" on="1"/>
        <pt x="448" y="138" on="0"/>
        <pt x="534" y="173" on="0"/>
        <pt x="597" y="236" on="0"/>
        <pt x="634" y="321" on="0"/>
        <pt x="634" y="371" on="1"/>
        <pt x="634" y="422" on="0"/>
        <pt x="597" y="508" on="0"/>
        <pt x="534" y="571" on="0"/>
        <pt x="448" y="607" on="0"/>
        <pt x="399" y="607" on="1"/>
        <pt x="351" y="607" on="0"/>
        <pt x="266" y="571" on="0"/>
        <pt x="203" y="508" on="0"/>
        <pt x="166" y="422" on="0"/>
        <pt x="166" y="371" on="1"/>
        <pt x="166" y="321" on="0"/>
        <pt x="203" y="236" on="0"/>
        <pt x="266" y="173" on="0"/>
        <pt x="351" y="138" on="0"/>
      </contour>
      <contour>
        <pt x="400" y="115" on="1"/>
        <pt x="346" y="115" on="0"/>
        <pt x="252" y="154" on="0"/>
        <pt x="182" y="223" on="0"/>
        <pt x="142" y="317" on="0"/>
        <pt x="142" y="372" on="1"/>
        <pt x="142" y="428" on="0"/>
        <pt x="182" y="522" on="0"/>
        <pt x="252" y="591" on="0"/>
        <pt x="346" y="630" on="0"/>
        <pt x="400" y="630" on="1"/>
        <pt x="454" y="630" on="0"/>
        <pt x="548" y="591" on="0"/>
        <pt x="618" y="522" on="0"/>
        <pt x="658" y="428" on="0"/>
        <pt x="658" y="372" on="1"/>
        <pt x="658" y="317" on="0"/>
        <pt x="618" y="223" on="0"/>
        <pt x="548" y="154" on="0"/>
        <pt x="454" y="115" on="0"/>
      </contour>
      <contour>
        <pt x="348" y="385" on="1"/>
        <pt x="398" y="385" on="1"/>
        <pt x="423" y="385" on="0"/>
        <pt x="455" y="398" on="0"/>
        <pt x="474" y="419" on="0"/>
        <pt x="482" y="443" on="0"/>
        <pt x="482" y="454" on="1"/>
        <pt x="482" y="481" on="0"/>
        <pt x="433" y="522" on="0"/>
        <pt x="398" y="522" on="1"/>
        <pt x="348" y="522" on="1"/>
      </contour>
      <contour>
        <pt x="329" y="210" on="1"/>
        <pt x="329" y="541" on="1"/>
        <pt x="400" y="541" on="1"/>
        <pt x="415" y="541" on="0"/>
        <pt x="450" y="531" on="0"/>
        <pt x="480" y="510" on="0"/>
        <pt x="501" y="477" on="0"/>
        <pt x="501" y="454" on="1"/>
        <pt x="501" y="421" on="0"/>
        <pt x="465" y="376" on="0"/>
        <pt x="430" y="368" on="1"/>
        <pt x="449" y="328" on="0"/>
        <pt x="486" y="249" on="0"/>
        <pt x="505" y="210" on="1"/>
        <pt x="484" y="210" on="1"/>
        <pt x="446" y="290" on="0"/>
        <pt x="410" y="367" on="1"/>
        <pt x="405" y="366" on="0"/>
        <pt x="398" y="366" on="0"/>
        <pt x="393" y="366" on="1"/>
        <pt x="348" y="366" on="1"/>
        <pt x="348" y="210" on="1"/>
      </contour>
    </TTGlyph>
    <TTGlyph name="s" xMin="57" yMin="-8" xMax="296" yMax="381">
      <contour>
        <pt x="281" y="338" on="1"/>
        <pt x="275" y="330" on="0"/>
        <pt x="262" y="316" on="0"/>
        <pt x="257" y="308" on="1"/>
        <pt x="245" y="322" on="0"/>
        <pt x="201" y="340" on="0"/>
        <pt x="179" y="340" on="1"/>
        <pt x="167" y="340" on="0"/>
        <pt x="143" y="333" on="0"/>
        <pt x="123" y="318" on="0"/>
        <pt x="112" y="295" on="0"/>
        <pt x="112" y="278" on="1"/>
        <pt x="113" y="256" on="0"/>
        <pt x="141" y="231" on="0"/>
        <pt x="181" y="214" on="0"/>
        <pt x="229" y="199" on="0"/>
        <pt x="269" y="175" on="0"/>
        <pt x="296" y="137" on="0"/>
        <pt x="296" y="105" on="1"/>
        <pt x="296" y="88" on="0"/>
        <pt x="283" y="49" on="0"/>
        <pt x="255" y="15" on="0"/>
        <pt x="209" y="-8" on="0"/>
        <pt x="175" y="-8" on="1"/>
        <pt x="144" y="-8" on="0"/>
        <pt x="77" y="14" on="0"/>
        <pt x="57" y="39" on="1"/>
        <pt x="64" y="47" on="0"/>
        <pt x="76" y="61" on="0"/>
        <pt x="84" y="69" on="1"/>
        <pt x="100" y="52" on="0"/>
        <pt x="152" y="33" on="0"/>
        <pt x="178" y="33" on="1"/>
        <pt x="187" y="33" on="0"/>
        <pt x="213" y="40" on="0"/>
        <pt x="237" y="57" on="0"/>
        <pt x="254" y="83" on="0"/>
        <pt x="254" y="102" on="1"/>
        <pt x="254" y="128" on="0"/>
        <pt x="228" y="156" on="0"/>
        <pt x="187" y="173" on="0"/>
        <pt x="139" y="186" on="0"/>
        <pt x="98" y="208" on="0"/>
        <pt x="70" y="244" on="0"/>
        <pt x="70" y="277" on="1"/>
        <pt x="70" y="303" on="0"/>
        <pt x="90" y="342" on="0"/>
        <pt x="122" y="368" on="0"/>
        <pt x="160" y="381" on="0"/>
        <pt x="178" y="381" on="1"/>
        <pt x="199" y="381" on="0"/>
        <pt x="260" y="362" on="0"/>
      </contour>
    </TTGlyph>
    <TTGlyph name="section" xMin="132" yMin="-26" xMax="383" yMax="743">
      <contour>
        <pt x="181" y="331" on="1"/>
        <pt x="190" y="304" on="0"/>
        <pt x="237" y="274" on="0"/>
        <pt x="265" y="276" on="1"/>
        <pt x="283" y="277" on="0"/>
        <pt x="312" y="293" on="0"/>
        <pt x="332" y="319" on="0"/>
        <pt x="342" y="350" on="0"/>
        <pt x="341" y="367" on="1"/>
        <pt x="339" y="385" on="0"/>
        <pt x="322" y="415" on="0"/>
        <pt x="297" y="435" on="0"/>
        <pt x="266" y="446" on="0"/>
        <pt x="250" y="445" on="1"/>
        <pt x="227" y="443" on="0"/>
        <pt x="195" y="421" on="0"/>
        <pt x="177" y="388" on="0"/>
        <pt x="174" y="349" on="0"/>
      </contour>
      <contour>
        <pt x="236" y="152" on="1"/>
        <pt x="218" y="181" on="0"/>
        <pt x="192" y="224" on="0"/>
        <pt x="173" y="257" on="0"/>
        <pt x="158" y="283" on="0"/>
        <pt x="152" y="295" on="1"/>
        <pt x="139" y="316" on="0"/>
        <pt x="132" y="364" on="0"/>
        <pt x="142" y="411" on="0"/>
        <pt x="168" y="451" on="0"/>
        <pt x="188" y="465" on="1"/>
        <pt x="210" y="479" on="0"/>
        <pt x="260" y="482" on="0"/>
        <pt x="284" y="474" on="1"/>
        <pt x="270" y="497" on="0"/>
        <pt x="244" y="543" on="0"/>
        <pt x="230" y="567" on="1"/>
        <pt x="214" y="595" on="0"/>
        <pt x="200" y="636" on="0"/>
        <pt x="201" y="666" on="0"/>
        <pt x="213" y="687" on="0"/>
        <pt x="222" y="696" on="1"/>
        <pt x="236" y="710" on="0"/>
        <pt x="278" y="733" on="0"/>
        <pt x="295" y="743" on="1"/>
        <pt x="300" y="734" on="0"/>
        <pt x="311" y="716" on="0"/>
        <pt x="316" y="708" on="1"/>
        <pt x="271" y="681" on="1"/>
        <pt x="245" y="666" on="0"/>
        <pt x="248" y="619" on="0"/>
        <pt x="276" y="572" on="1"/>
        <pt x="298" y="534" on="0"/>
        <pt x="341" y="459" on="0"/>
        <pt x="364" y="421" on="1"/>
        <pt x="377" y="400" on="0"/>
        <pt x="383" y="352" on="0"/>
        <pt x="373" y="307" on="0"/>
        <pt x="346" y="268" on="0"/>
        <pt x="326" y="254" on="1"/>
        <pt x="304" y="240" on="0"/>
        <pt x="254" y="236" on="0"/>
        <pt x="230" y="244" on="1"/>
        <pt x="244" y="221" on="0"/>
        <pt x="271" y="173" on="0"/>
        <pt x="285" y="150" on="1"/>
        <pt x="301" y="122" on="0"/>
        <pt x="315" y="81" on="0"/>
        <pt x="314" y="51" on="0"/>
        <pt x="302" y="30" on="0"/>
        <pt x="293" y="21" on="1"/>
        <pt x="280" y="6" on="0"/>
        <pt x="238" y="-16" on="0"/>
        <pt x="221" y="-26" on="1"/>
        <pt x="216" y="-17" on="0"/>
        <pt x="205" y="1" on="0"/>
        <pt x="200" y="9" on="1"/>
        <pt x="245" y="36" on="1"/>
        <pt x="271" y="50" on="0"/>
        <pt x="266" y="100" on="0"/>
      </contour>
    </TTGlyph>
    <TTGlyph name="semicolon" xMin="2" yMin="-120" xMax="144" yMax="316">
      <contour>
        <pt x="78" y="283" on="1"/>
        <pt x="78" y="297" on="0"/>
        <pt x="98" y="316" on="0"/>
        <pt x="111" y="316" on="1"/>
        <pt x="124" y="316" on="0"/>
        <pt x="144" y="297" on="0"/>
        <pt x="144" y="283" on="1"/>
        <pt x="144" y="269" on="0"/>
        <pt x="124" y="250" on="0"/>
        <pt x="111" y="250" on="1"/>
        <pt x="98" y="250" on="0"/>
        <pt x="78" y="269" on="0"/>
      </contour>
      <contour>
        <pt x="127" y="86" on="1"/>
        <pt x="105" y="34" on="0"/>
        <pt x="63" y="-68" on="0"/>
        <pt x="41" y="-120" on="1"/>
        <pt x="2" y="-120" on="1"/>
        <pt x="22" y="-68" on="0"/>
        <pt x="59" y="34" on="0"/>
        <pt x="79" y="86" on="1"/>
      </contour>
    </TTGlyph>
    <TTGlyph name="seven" xMin="14" yMin="0" xMax="420" yMax="650">
      <contour>
        <pt x="14" y="609" on="1"/>
        <pt x="14" y="650" on="1"/>
        <pt x="420" y="650" on="1"/>
        <pt x="347" y="486" on="0"/>
        <pt x="201" y="164" on="0"/>
        <pt x="128" y="0" on="1"/>
        <pt x="79" y="0" on="1"/>
        <pt x="148" y="153" on="0"/>
        <pt x="285" y="456" on="0"/>
        <pt x="354" y="609" on="1"/>
      </contour>
    </TTGlyph>
    <TTGlyph name="six" xMin="49" yMin="-8" xMax="468" yMax="635">
      <contour>
        <pt x="91" y="199" on="1"/>
        <pt x="91" y="164" on="0"/>
        <pt x="117" y="104" on="0"/>
        <pt x="163" y="59" on="0"/>
        <pt x="223" y="33" on="0"/>
        <pt x="258" y="33" on="1"/>
        <pt x="292" y="33" on="0"/>
        <pt x="354" y="59" on="0"/>
        <pt x="400" y="104" on="0"/>
        <pt x="427" y="164" on="0"/>
        <pt x="427" y="199" on="1"/>
        <pt x="427" y="233" on="0"/>
        <pt x="400" y="294" on="0"/>
        <pt x="354" y="340" on="0"/>
        <pt x="292" y="366" on="0"/>
        <pt x="258" y="366" on="1"/>
        <pt x="223" y="366" on="0"/>
        <pt x="163" y="340" on="0"/>
        <pt x="117" y="294" on="0"/>
        <pt x="91" y="233" on="0"/>
      </contour>
      <contour>
        <pt x="49" y="195" on="1"/>
        <pt x="49" y="267" on="0"/>
        <pt x="111" y="392" on="0"/>
        <pt x="207" y="501" on="0"/>
        <pt x="325" y="594" on="0"/>
        <pt x="381" y="635" on="1"/>
        <pt x="387" y="627" on="0"/>
        <pt x="401" y="609" on="0"/>
        <pt x="408" y="601" on="1"/>
        <pt x="301" y="531" on="0"/>
        <pt x="179" y="404" on="0"/>
        <pt x="152" y="358" on="1"/>
        <pt x="171" y="380" on="0"/>
        <pt x="226" y="407" on="0"/>
        <pt x="258" y="407" on="1"/>
        <pt x="301" y="407" on="0"/>
        <pt x="378" y="374" on="0"/>
        <pt x="435" y="318" on="0"/>
        <pt x="468" y="242" on="0"/>
        <pt x="468" y="199" on="1"/>
        <pt x="468" y="156" on="0"/>
        <pt x="435" y="81" on="0"/>
        <pt x="378" y="25" on="0"/>
        <pt x="301" y="-8" on="0"/>
        <pt x="258" y="-8" on="1"/>
        <pt x="216" y="-8" on="0"/>
        <pt x="140" y="24" on="0"/>
        <pt x="83" y="79" on="0"/>
        <pt x="50" y="153" on="0"/>
      </contour>
    </TTGlyph>
    <TTGlyph name="slash" xMin="17" yMin="-19" xMax="337" yMax="736">
      <contour>
        <pt x="17" y="-19" on="1"/>
        <pt x="87" y="171" on="0"/>
        <pt x="225" y="546" on="0"/>
        <pt x="295" y="736" on="1"/>
        <pt x="337" y="736" on="1"/>
        <pt x="267" y="546" on="0"/>
        <pt x="129" y="171" on="0"/>
        <pt x="59" y="-19" on="1"/>
      </contour>
    </TTGlyph>
    <TTGlyph name="sterling" xMin="27" yMin="0" xMax="510" yMax="634">
      <contour>
        <pt x="143" y="41" on="1"/>
        <pt x="335" y="41" on="1"/>
        <pt x="360" y="41" on="1"/>
        <pt x="421" y="41" on="0"/>
        <pt x="468" y="62" on="0"/>
        <pt x="468" y="93" on="1"/>
        <pt x="468" y="145" on="1"/>
        <pt x="510" y="145" on="1"/>
        <pt x="510" y="86" on="1"/>
        <pt x="510" y="69" on="0"/>
        <pt x="505" y="38" on="0"/>
        <pt x="482" y="14" on="0"/>
        <pt x="435" y="0" on="0"/>
        <pt x="392" y="0" on="1"/>
        <pt x="27" y="0" on="1"/>
        <pt x="27" y="41" on="1"/>
        <pt x="71" y="41" on="1"/>
        <pt x="88" y="41" on="0"/>
        <pt x="109" y="53" on="0"/>
        <pt x="120" y="82" on="0"/>
        <pt x="123" y="132" on="0"/>
        <pt x="123" y="171" on="1"/>
        <pt x="123" y="296" on="1"/>
        <pt x="58" y="296" on="1"/>
        <pt x="58" y="337" on="1"/>
        <pt x="123" y="337" on="1"/>
        <pt x="123" y="500" on="1"/>
        <pt x="123" y="570" on="0"/>
        <pt x="222" y="634" on="0"/>
        <pt x="307" y="634" on="1"/>
        <pt x="374" y="634" on="0"/>
        <pt x="447" y="581" on="0"/>
        <pt x="467" y="541" on="1"/>
        <pt x="459" y="536" on="0"/>
        <pt x="444" y="527" on="0"/>
        <pt x="436" y="522" on="1"/>
        <pt x="426" y="539" on="0"/>
        <pt x="405" y="565" on="0"/>
        <pt x="376" y="583" on="0"/>
        <pt x="336" y="593" on="0"/>
        <pt x="307" y="593" on="1"/>
        <pt x="229" y="593" on="0"/>
        <pt x="165" y="540" on="0"/>
        <pt x="165" y="494" on="1"/>
        <pt x="165" y="337" on="1"/>
        <pt x="289" y="337" on="1"/>
        <pt x="289" y="296" on="1"/>
        <pt x="165" y="296" on="1"/>
        <pt x="165" y="155" on="1"/>
        <pt x="165" y="131" on="1"/>
        <pt x="165" y="102" on="0"/>
        <pt x="158" y="55" on="0"/>
      </contour>
    </TTGlyph>
    <TTGlyph name="t" xMin="37" yMin="0" xMax="281" yMax="619">
      <contour>
        <pt x="124" y="619" on="1"/>
        <pt x="166" y="619" on="1"/>
        <pt x="166" y="374" on="1"/>
        <pt x="281" y="374" on="1"/>
        <pt x="281" y="333" on="1"/>
        <pt x="166" y="333" on="1"/>
        <pt x="166" y="0" on="1"/>
        <pt x="124" y="0" on="1"/>
        <pt x="124" y="333" on="1"/>
        <pt x="37" y="333" on="1"/>
        <pt x="37" y="374" on="1"/>
        <pt x="124" y="374" on="1"/>
      </contour>
    </TTGlyph>
    <TTGlyph name="thorn" xMin="67" yMin="-250" xMax="461" yMax="750">
      <contour>
        <pt x="419" y="187" on="1"/>
        <pt x="419" y="220" on="0"/>
        <pt x="395" y="276" on="0"/>
        <pt x="354" y="317" on="0"/>
        <pt x="297" y="341" on="0"/>
        <pt x="264" y="341" on="1"/>
        <pt x="231" y="341" on="0"/>
        <pt x="174" y="317" on="0"/>
        <pt x="133" y="276" on="0"/>
        <pt x="109" y="220" on="0"/>
        <pt x="109" y="187" on="1"/>
        <pt x="109" y="155" on="0"/>
        <pt x="133" y="98" on="0"/>
        <pt x="174" y="56" on="0"/>
        <pt x="231" y="32" on="0"/>
        <pt x="264" y="32" on="1"/>
        <pt x="297" y="32" on="0"/>
        <pt x="354" y="56" on="0"/>
        <pt x="395" y="98" on="0"/>
        <pt x="419" y="155" on="0"/>
      </contour>
      <contour>
        <pt x="461" y="187" on="1"/>
        <pt x="461" y="147" on="0"/>
        <pt x="430" y="76" on="0"/>
        <pt x="377" y="23" on="0"/>
        <pt x="305" y="-8" on="0"/>
        <pt x="264" y="-8" on="1"/>
        <pt x="233" y="-8" on="0"/>
        <pt x="181" y="8" on="0"/>
        <pt x="140" y="34" on="0"/>
        <pt x="111" y="68" on="0"/>
        <pt x="105" y="85" on="1"/>
        <pt x="106" y="75" on="0"/>
        <pt x="108" y="55" on="0"/>
        <pt x="109" y="44" on="1"/>
        <pt x="109" y="-250" on="1"/>
        <pt x="67" y="-250" on="1"/>
        <pt x="67" y="750" on="1"/>
        <pt x="109" y="750" on="1"/>
        <pt x="109" y="337" on="1"/>
        <pt x="107" y="324" on="0"/>
        <pt x="105" y="298" on="0"/>
        <pt x="104" y="285" on="1"/>
        <pt x="110" y="303" on="0"/>
        <pt x="140" y="337" on="0"/>
        <pt x="182" y="364" on="0"/>
        <pt x="235" y="381" on="0"/>
        <pt x="264" y="381" on="1"/>
        <pt x="305" y="381" on="0"/>
        <pt x="377" y="350" on="0"/>
        <pt x="430" y="298" on="0"/>
        <pt x="461" y="227" on="0"/>
      </contour>
    </TTGlyph>
    <TTGlyph name="three" xMin="79" yMin="-8" xMax="443" yMax="650">
      <contour>
        <pt x="168" y="347" on="1"/>
        <pt x="214" y="413" on="0"/>
        <pt x="305" y="543" on="0"/>
        <pt x="351" y="609" on="1"/>
        <pt x="103" y="609" on="1"/>
        <pt x="103" y="650" on="1"/>
        <pt x="426" y="650" on="1"/>
        <pt x="249" y="404" on="1"/>
        <pt x="289" y="401" on="0"/>
        <pt x="360" y="368" on="0"/>
        <pt x="413" y="314" on="0"/>
        <pt x="443" y="243" on="0"/>
        <pt x="443" y="201" on="1"/>
        <pt x="443" y="158" on="0"/>
        <pt x="410" y="82" on="0"/>
        <pt x="353" y="25" on="0"/>
        <pt x="276" y="-8" on="0"/>
        <pt x="233" y="-8" on="1"/>
        <pt x="187" y="-8" on="0"/>
        <pt x="108" y="29" on="0"/>
        <pt x="79" y="60" on="1"/>
        <pt x="110" y="91" on="1"/>
        <pt x="132" y="65" on="0"/>
        <pt x="194" y="33" on="0"/>
        <pt x="231" y="33" on="1"/>
        <pt x="266" y="33" on="0"/>
        <pt x="328" y="60" on="0"/>
        <pt x="374" y="106" on="0"/>
        <pt x="401" y="167" on="0"/>
        <pt x="401" y="201" on="1"/>
        <pt x="401" y="235" on="0"/>
        <pt x="374" y="296" on="0"/>
        <pt x="328" y="342" on="0"/>
        <pt x="266" y="368" on="0"/>
        <pt x="231" y="368" on="1"/>
        <pt x="214" y="368" on="0"/>
        <pt x="182" y="357" on="0"/>
      </contour>
    </TTGlyph>
    <TTGlyph name="threequarters" xMin="146" yMin="-19" xMax="1044" yMax="736">
      <component glyphName="three" x="86" y="206" scalex="0.771545410156" scaley="0.772644042969" flags="0x4"/>
      <component glyphName="slash" x="437" y="0" flags="0x4"/>
      <component glyphName="four" x="672" y="0" scalex="0.744262695312" scaley="0.744689941406" flags="0x4"/>
    </TTGlyph>
    <TTGlyph name="threesuperior" xMin="87" yMin="376" xMax="267" yMax="700">
      <component glyphName="three" x="49" y="380" scalex="0.493103027344" scaley="0.492431640625" flags="0x4"/>
    </TTGlyph>
    <TTGlyph name="two" xMin="48" yMin="0" xMax="468" yMax="658">
      <contour>
        <pt x="155" y="41" on="1"/>
        <pt x="468" y="41" on="1"/>
        <pt x="468" y="0" on="1"/>
        <pt x="53" y="0" on="1"/>
        <pt x="116" y="62" on="0"/>
        <pt x="235" y="181" on="0"/>
        <pt x="327" y="294" on="0"/>
        <pt x="383" y="399" on="0"/>
        <pt x="383" y="446" on="1"/>
        <pt x="383" y="495" on="0"/>
        <pt x="354" y="560" on="0"/>
        <pt x="311" y="600" on="0"/>
        <pt x="260" y="617" on="0"/>
        <pt x="238" y="617" on="1"/>
        <pt x="193" y="617" on="0"/>
        <pt x="136" y="585" on="0"/>
        <pt x="103" y="539" on="0"/>
        <pt x="90" y="485" on="0"/>
        <pt x="90" y="463" on="1"/>
        <pt x="90" y="428" on="0"/>
        <pt x="110" y="374" on="0"/>
        <pt x="129" y="353" on="1"/>
        <pt x="123" y="347" on="0"/>
        <pt x="110" y="335" on="0"/>
        <pt x="104" y="328" on="1"/>
        <pt x="78" y="351" on="0"/>
        <pt x="48" y="424" on="0"/>
        <pt x="48" y="463" on="1"/>
        <pt x="48" y="503" on="0"/>
        <pt x="73" y="574" on="0"/>
        <pt x="121" y="627" on="0"/>
        <pt x="192" y="658" on="0"/>
        <pt x="238" y="658" on="1"/>
        <pt x="280" y="658" on="0"/>
        <pt x="349" y="627" on="0"/>
        <pt x="398" y="573" on="0"/>
        <pt x="425" y="500" on="0"/>
        <pt x="425" y="458" on="1"/>
        <pt x="425" y="404" on="0"/>
        <pt x="376" y="297" on="0"/>
        <pt x="298" y="193" on="0"/>
        <pt x="202" y="91" on="0"/>
      </contour>
    </TTGlyph>
    <TTGlyph name="twosuperior" xMin="100" yMin="375" xMax="308" yMax="699">
      <component glyphName="two" x="77" y="375" scalex="0.49462890625" scaley="0.493896484375" flags="0x4"/>
    </TTGlyph>
    <TTGlyph name="u" xMin="103" yMin="-8" xMax="427" yMax="375">
      <contour>
        <pt x="427" y="-4" on="1"/>
        <pt x="385" y="-4" on="1"/>
        <pt x="385" y="52" on="1"/>
        <pt x="388" y="97" on="1"/>
        <pt x="368" y="49" on="0"/>
        <pt x="279" y="-8" on="0"/>
        <pt x="224" y="-8" on="1"/>
        <pt x="169" y="-8" on="0"/>
        <pt x="105" y="54" on="0"/>
        <pt x="103" y="104" on="1"/>
        <pt x="103" y="375" on="1"/>
        <pt x="145" y="375" on="1"/>
        <pt x="145" y="115" on="1"/>
        <pt x="147" y="83" on="0"/>
        <pt x="190" y="35" on="0"/>
        <pt x="232" y="33" on="1"/>
        <pt x="262" y="33" on="0"/>
        <pt x="318" y="54" on="0"/>
        <pt x="360" y="90" on="0"/>
        <pt x="385" y="140" on="0"/>
        <pt x="385" y="170" on="1"/>
        <pt x="385" y="375" on="1"/>
        <pt x="427" y="375" on="1"/>
      </contour>
    </TTGlyph>
    <TTGlyph name="uacute" xMin="103" yMin="-8" xMax="427" yMax="612">
      <component glyphName="u" x="0" y="0" flags="0x204"/>
      <component glyphName="acute" x="131" y="0" flags="0x4"/>
    </TTGlyph>
    <TTGlyph name="ucircumflex" xMin="103" yMin="-8" xMax="427" yMax="660">
      <component glyphName="u" x="0" y="0" flags="0x204"/>
      <component glyphName="asciicircum" x="34" y="0" flags="0x4"/>
    </TTGlyph>
    <TTGlyph name="udieresis" xMin="103" yMin="-8" xMax="427" yMax="541">
      <component glyphName="u" x="0" y="0" flags="0x204"/>
      <component glyphName="dieresis" x="77" y="0" flags="0x4"/>
    </TTGlyph>
    <TTGlyph name="ugrave" xMin="103" yMin="-8" xMax="427" yMax="612">
      <component glyphName="u" x="0" y="0" flags="0x204"/>
      <component glyphName="grave" x="185" y="0" flags="0x4"/>
    </TTGlyph>
    <TTGlyph name="underscore" xMin="100" yMin="0" xMax="500" yMax="41">
      <contour>
        <pt x="500" y="0" on="1"/>
        <pt x="100" y="0" on="1"/>
        <pt x="100" y="41" on="1"/>
        <pt x="500" y="41" on="1"/>
      </contour>
    </TTGlyph>
    <TTGlyph name="v" xMin="54" yMin="-23" xMax="464" yMax="375">
      <contour>
        <pt x="259" y="-23" on="1"/>
        <pt x="208" y="77" on="0"/>
        <pt x="105" y="275" on="0"/>
        <pt x="54" y="375" on="1"/>
        <pt x="96" y="375" on="1"/>
        <pt x="137" y="296" on="0"/>
        <pt x="223" y="134" on="0"/>
        <pt x="259" y="53" on="1"/>
        <pt x="295" y="134" on="0"/>
        <pt x="381" y="295" on="0"/>
        <pt x="422" y="375" on="1"/>
        <pt x="464" y="375" on="1"/>
        <pt x="363" y="178" on="0"/>
      </contour>
    </TTGlyph>
    <TTGlyph name="w" xMin="56" yMin="-23" xMax="726" yMax="375">
      <contour>
        <pt x="369" y="291" on="1"/>
        <pt x="358" y="312" on="0"/>
        <pt x="339" y="354" on="0"/>
        <pt x="328" y="375" on="1"/>
        <pt x="370" y="375" on="1"/>
        <pt x="409" y="295" on="0"/>
        <pt x="491" y="134" on="0"/>
        <pt x="527" y="53" on="1"/>
        <pt x="563" y="134" on="0"/>
        <pt x="645" y="295" on="0"/>
        <pt x="684" y="375" on="1"/>
        <pt x="726" y="375" on="1"/>
        <pt x="676" y="275" on="0"/>
        <pt x="577" y="77" on="0"/>
        <pt x="527" y="-23" on="1"/>
        <pt x="493" y="46" on="0"/>
        <pt x="425" y="180" on="0"/>
        <pt x="391" y="249" on="1"/>
        <pt x="357" y="180" on="0"/>
        <pt x="289" y="46" on="0"/>
        <pt x="255" y="-23" on="1"/>
        <pt x="205" y="77" on="0"/>
        <pt x="106" y="275" on="0"/>
        <pt x="56" y="375" on="1"/>
        <pt x="98" y="375" on="1"/>
        <pt x="137" y="295" on="0"/>
        <pt x="219" y="134" on="0"/>
        <pt x="255" y="53" on="1"/>
        <pt x="281" y="113" on="0"/>
        <pt x="340" y="231" on="0"/>
      </contour>
    </TTGlyph>
    <TTGlyph name="x" xMin="36" yMin="0" xMax="376" yMax="375">
      <contour>
        <pt x="176" y="193" on="1"/>
        <pt x="142" y="239" on="0"/>
        <pt x="75" y="329" on="0"/>
        <pt x="42" y="375" on="1"/>
        <pt x="94" y="375" on="1"/>
        <pt x="211" y="216" on="1"/>
        <pt x="240" y="256" on="0"/>
        <pt x="296" y="334" on="0"/>
        <pt x="325" y="374" on="1"/>
        <pt x="376" y="374" on="1"/>
        <pt x="341" y="326" on="0"/>
        <pt x="271" y="229" on="0"/>
        <pt x="236" y="181" on="1"/>
        <pt x="270" y="135" on="0"/>
        <pt x="336" y="45" on="0"/>
        <pt x="370" y="0" on="1"/>
        <pt x="318" y="0" on="1"/>
        <pt x="289" y="39" on="0"/>
        <pt x="230" y="119" on="0"/>
        <pt x="201" y="158" on="1"/>
        <pt x="172" y="119" on="0"/>
        <pt x="117" y="39" on="0"/>
        <pt x="88" y="0" on="1"/>
        <pt x="36" y="0" on="1"/>
        <pt x="71" y="48" on="0"/>
        <pt x="141" y="145" on="0"/>
      </contour>
    </TTGlyph>
    <TTGlyph name="y" xMin="38" yMin="-250" xMax="460" yMax="375">
      <contour>
        <pt x="147" y="-250" on="1"/>
        <pt x="103" y="-250" on="1"/>
        <pt x="134" y="-188" on="0"/>
        <pt x="196" y="-65" on="0"/>
        <pt x="227" y="-2" on="1"/>
        <pt x="179" y="92" on="0"/>
        <pt x="86" y="280" on="0"/>
        <pt x="38" y="375" on="1"/>
        <pt x="82" y="375" on="1"/>
        <pt x="124" y="291" on="0"/>
        <pt x="212" y="123" on="0"/>
        <pt x="249" y="38" on="1"/>
        <pt x="287" y="123" on="0"/>
        <pt x="374" y="291" on="0"/>
        <pt x="416" y="375" on="1"/>
        <pt x="460" y="375" on="1"/>
        <pt x="382" y="218" on="0"/>
        <pt x="226" y="-93" on="0"/>
      </contour>
    </TTGlyph>
    <TTGlyph name="yacute" xMin="38" yMin="-250" xMax="460" yMax="612">
      <component glyphName="y" x="0" y="0" flags="0x4"/>
      <component glyphName="acute" x="141" y="0" flags="0x4"/>
    </TTGlyph>
    <TTGlyph name="ydieresis" xMin="38" yMin="-250" xMax="460" yMax="541">
      <component glyphName="y" x="0" y="0" flags="0x4"/>
      <component glyphName="dieresis" x="71" y="0" flags="0x4"/>
    </TTGlyph>
    <TTGlyph name="yen" xMin="34" yMin="0" xMax="601" yMax="700">
      <contour>
        <pt x="483" y="141" on="1"/>
        <pt x="483" y="100" on="1"/>
        <pt x="343" y="100" on="1"/>
        <pt x="343" y="0" on="1"/>
        <pt x="293" y="0" on="1"/>
        <pt x="293" y="100" on="1"/>
        <pt x="150" y="100" on="1"/>
        <pt x="150" y="141" on="1"/>
        <pt x="293" y="141" on="1"/>
        <pt x="293" y="263" on="1"/>
        <pt x="150" y="263" on="1"/>
        <pt x="150" y="304" on="1"/>
        <pt x="270" y="304" on="1"/>
        <pt x="210" y="404" on="0"/>
        <pt x="94" y="600" on="0"/>
        <pt x="34" y="700" on="1"/>
        <pt x="85" y="700" on="1"/>
        <pt x="140" y="606" on="0"/>
        <pt x="250" y="423" on="0"/>
        <pt x="306" y="330" on="1"/>
        <pt x="309" y="322" on="0"/>
        <pt x="315" y="309" on="0"/>
        <pt x="318" y="302" on="1"/>
        <pt x="319" y="302" on="1"/>
        <pt x="322" y="309" on="0"/>
        <pt x="327" y="322" on="0"/>
        <pt x="330" y="330" on="1"/>
        <pt x="386" y="423" on="0"/>
        <pt x="495" y="606" on="0"/>
        <pt x="550" y="700" on="1"/>
        <pt x="601" y="700" on="1"/>
        <pt x="541" y="600" on="0"/>
        <pt x="425" y="404" on="0"/>
        <pt x="365" y="304" on="1"/>
        <pt x="483" y="304" on="1"/>
        <pt x="483" y="263" on="1"/>
        <pt x="343" y="263" on="1"/>
        <pt x="343" y="141" on="1"/>
      </contour>
    </TTGlyph>
    <TTGlyph name="z" xMin="42" yMin="0" xMax="403" yMax="410">
      <contour>
        <pt x="133" y="375" on="1"/>
        <pt x="384" y="375" on="1"/>
        <pt x="384" y="334" on="1"/>
        <pt x="309" y="259" on="0"/>
        <pt x="175" y="116" on="0"/>
        <pt x="100" y="41" on="1"/>
        <pt x="403" y="41" on="1"/>
        <pt x="403" y="0" on="1"/>
        <pt x="42" y="0" on="1"/>
        <pt x="42" y="41" on="1"/>
        <pt x="117" y="116" on="0"/>
        <pt x="251" y="260" on="0"/>
        <pt x="326" y="335" on="1"/>
        <pt x="126" y="335" on="1"/>
        <pt x="95" y="335" on="0"/>
        <pt x="61" y="359" on="0"/>
        <pt x="61" y="388" on="1"/>
        <pt x="61" y="410" on="1"/>
        <pt x="103" y="410" on="1"/>
        <pt x="103" y="398" on="1"/>
        <pt x="103" y="386" on="0"/>
        <pt x="116" y="375" on="0"/>
      </contour>
    </TTGlyph>
    <TTGlyph name="zero" xMin="36" yMin="-7" xMax="573" yMax="658">
      <contour>
        <pt x="36" y="327" on="1"/>
        <pt x="36" y="386" on="0"/>
        <pt x="71" y="505" on="0"/>
        <pt x="138" y="599" on="0"/>
        <pt x="240" y="658" on="0"/>
        <pt x="308" y="658" on="1"/>
        <pt x="375" y="658" on="0"/>
        <pt x="475" y="598" on="0"/>
        <pt x="541" y="502" on="0"/>
        <pt x="573" y="383" on="0"/>
        <pt x="573" y="324" on="1"/>
        <pt x="573" y="252" on="0"/>
        <pt x="528" y="130" on="0"/>
        <pt x="453" y="42" on="0"/>
        <pt x="355" y="-7" on="0"/>
        <pt x="302" y="-7" on="1"/>
        <pt x="249" y="-7" on="0"/>
        <pt x="152" y="44" on="0"/>
        <pt x="79" y="133" on="0"/>
        <pt x="36" y="255" on="0"/>
      </contour>
      <contour>
        <pt x="79" y="327" on="1"/>
        <pt x="79" y="262" on="0"/>
        <pt x="116" y="154" on="0"/>
        <pt x="178" y="77" on="0"/>
        <pt x="259" y="33" on="0"/>
        <pt x="303" y="33" on="1"/>
        <pt x="347" y="33" on="0"/>
        <pt x="429" y="75" on="0"/>
        <pt x="492" y="151" on="0"/>
        <pt x="531" y="258" on="0"/>
        <pt x="531" y="323" on="1"/>
        <pt x="531" y="382" on="0"/>
        <pt x="501" y="488" on="0"/>
        <pt x="443" y="569" on="0"/>
        <pt x="359" y="617" on="0"/>
        <pt x="307" y="617" on="1"/>
        <pt x="254" y="617" on="0"/>
        <pt x="170" y="571" on="0"/>
        <pt x="111" y="491" on="0"/>
        <pt x="79" y="385" on="0"/>
      </contour>
    </TTGlyph>
</ttFont>
